<?xml version="1.0" encoding="UTF-8" standalone="no"?>
<svg
   xmlns:dc="http://purl.org/dc/elements/1.1/"
   xmlns:cc="http://creativecommons.org/ns#"
   xmlns:rdf="http://www.w3.org/1999/02/22-rdf-syntax-ns#"
   xmlns:svg="http://www.w3.org/2000/svg"
   xmlns="http://www.w3.org/2000/svg"
   viewBox="0 0 614.40002 460.79999"
   height="460.79999"
   width="614.40002"
   xml:space="preserve"
   id="svg10"
   version="1.1"><metadata
     id="metadata16"><rdf:RDF><cc:Work
         rdf:about=""><dc:format>image/svg+xml</dc:format><dc:type
           rdf:resource="http://purl.org/dc/dcmitype/StillImage" /><dc:title></dc:title></cc:Work></rdf:RDF></metadata><defs
     id="defs14"><clipPath
       id="clipPath30"
       clipPathUnits="userSpaceOnUse"><path
         id="path28"
         d="M 57.6,38.016 H 414.72 V 304.128 H 57.6 Z" /></clipPath><clipPath
       id="clipPath48"
       clipPathUnits="userSpaceOnUse"><path
         id="path46"
         d="M 57.6,38.016 H 414.72 V 304.128 H 57.6 Z" /></clipPath><clipPath
       id="clipPath66"
       clipPathUnits="userSpaceOnUse"><path
         id="path64"
         d="M 57.6,38.016 H 414.72 V 304.128 H 57.6 Z" /></clipPath><clipPath
       id="clipPath84"
       clipPathUnits="userSpaceOnUse"><path
         id="path82"
         d="M 57.6,38.016 H 414.72 V 304.128 H 57.6 Z" /></clipPath><clipPath
       id="clipPath102"
       clipPathUnits="userSpaceOnUse"><path
         id="path100"
         d="M 57.6,38.016 H 414.72 V 304.128 H 57.6 Z" /></clipPath><clipPath
       id="clipPath120"
       clipPathUnits="userSpaceOnUse"><path
         id="path118"
         d="M 57.6,38.016 H 414.72 V 304.128 H 57.6 Z" /></clipPath><clipPath
       id="clipPath138"
       clipPathUnits="userSpaceOnUse"><path
         id="path136"
         d="M 57.6,38.016 H 414.72 V 304.128 H 57.6 Z" /></clipPath><clipPath
       id="clipPath156"
       clipPathUnits="userSpaceOnUse"><path
         id="path154"
         d="M 57.6,38.016 H 414.72 V 304.128 H 57.6 Z" /></clipPath><clipPath
       id="clipPath170"
       clipPathUnits="userSpaceOnUse"><path
         id="path168"
         d="M 57.6,38.016 H 414.72 V 304.128 H 57.6 Z" /></clipPath><clipPath
       id="clipPath184"
       clipPathUnits="userSpaceOnUse"><path
         id="path182"
         d="M 57.6,38.016 H 414.72 V 304.128 H 57.6 Z" /></clipPath><clipPath
       id="clipPath198"
       clipPathUnits="userSpaceOnUse"><path
         id="path196"
         d="M 57.6,38.016 H 414.72 V 304.128 H 57.6 Z" /></clipPath><clipPath
       id="clipPath212"
       clipPathUnits="userSpaceOnUse"><path
         id="path210"
         d="M 57.6,38.016 H 414.72 V 304.128 H 57.6 Z" /></clipPath><clipPath
       id="clipPath226"
       clipPathUnits="userSpaceOnUse"><path
         id="path224"
         d="M 57.6,38.016 H 414.72 V 304.128 H 57.6 Z" /></clipPath><clipPath
       id="clipPath240"
       clipPathUnits="userSpaceOnUse"><path
         id="path238"
         d="M 57.6,38.016 H 414.72 V 304.128 H 57.6 Z" /></clipPath><clipPath
       id="clipPath254"
       clipPathUnits="userSpaceOnUse"><path
         id="path252"
         d="M 57.6,38.016 H 414.72 V 304.128 H 57.6 Z" /></clipPath><clipPath
       id="clipPath268"
       clipPathUnits="userSpaceOnUse"><path
         id="path266"
         d="M 57.6,38.016 H 414.72 V 304.128 H 57.6 Z" /></clipPath><clipPath
       id="clipPath282"
       clipPathUnits="userSpaceOnUse"><path
         id="path280"
         d="M 57.6,38.016 H 414.72 V 304.128 H 57.6 Z" /></clipPath><clipPath
       id="clipPath296"
       clipPathUnits="userSpaceOnUse"><path
         id="path294"
         d="M 57.6,38.016 H 414.72 V 304.128 H 57.6 Z" /></clipPath><clipPath
       id="clipPath310"
       clipPathUnits="userSpaceOnUse"><path
         id="path308"
         d="M 57.6,38.016 H 414.72 V 304.128 H 57.6 Z" /></clipPath><clipPath
       id="clipPath324"
       clipPathUnits="userSpaceOnUse"><path
         id="path322"
         d="M 57.6,38.016 H 414.72 V 304.128 H 57.6 Z" /></clipPath><clipPath
       id="clipPath338"
       clipPathUnits="userSpaceOnUse"><path
         id="path336"
         d="M 57.6,38.016 H 414.72 V 304.128 H 57.6 Z" /></clipPath><clipPath
       id="clipPath352"
       clipPathUnits="userSpaceOnUse"><path
         id="path350"
         d="M 57.6,38.016 H 414.72 V 304.128 H 57.6 Z" /></clipPath><clipPath
       id="clipPath366"
       clipPathUnits="userSpaceOnUse"><path
         id="path364"
         d="M 57.6,38.016 H 414.72 V 304.128 H 57.6 Z" /></clipPath><clipPath
       id="clipPath380"
       clipPathUnits="userSpaceOnUse"><path
         id="path378"
         d="M 57.6,38.016 H 414.72 V 304.128 H 57.6 Z" /></clipPath><clipPath
       id="clipPath394"
       clipPathUnits="userSpaceOnUse"><path
         id="path392"
         d="M 57.6,38.016 H 414.72 V 304.128 H 57.6 Z" /></clipPath><clipPath
       id="clipPath408"
       clipPathUnits="userSpaceOnUse"><path
         id="path406"
         d="M 57.6,38.016 H 414.72 V 304.128 H 57.6 Z" /></clipPath><clipPath
       id="clipPath422"
       clipPathUnits="userSpaceOnUse"><path
         id="path420"
         d="M 57.6,38.016 H 414.72 V 304.128 H 57.6 Z" /></clipPath><clipPath
       id="clipPath436"
       clipPathUnits="userSpaceOnUse"><path
         id="path434"
         d="M 57.6,38.016 H 414.72 V 304.128 H 57.6 Z" /></clipPath><clipPath
       id="clipPath450"
       clipPathUnits="userSpaceOnUse"><path
         id="path448"
         d="M 57.6,38.016 H 414.72 V 304.128 H 57.6 Z" /></clipPath><clipPath
       id="clipPath464"
       clipPathUnits="userSpaceOnUse"><path
         id="path462"
         d="M 57.6,38.016 H 414.72 V 304.128 H 57.6 Z" /></clipPath><clipPath
       id="clipPath478"
       clipPathUnits="userSpaceOnUse"><path
         id="path476"
         d="M 57.6,38.016 H 414.72 V 304.128 H 57.6 Z" /></clipPath><clipPath
       id="clipPath492"
       clipPathUnits="userSpaceOnUse"><path
         id="path490"
         d="M 57.6,38.016 H 414.72 V 304.128 H 57.6 Z" /></clipPath><clipPath
       id="clipPath506"
       clipPathUnits="userSpaceOnUse"><path
         id="path504"
         d="M 57.6,38.016 H 414.72 V 304.128 H 57.6 Z" /></clipPath><clipPath
       id="clipPath524"
       clipPathUnits="userSpaceOnUse"><path
         id="path522"
         d="M 57.6,38.016 H 414.72 V 304.128 H 57.6 Z" /></clipPath><clipPath
       id="clipPath542"
       clipPathUnits="userSpaceOnUse"><path
         id="path540"
         d="M 57.6,38.016 H 414.72 V 304.128 H 57.6 Z" /></clipPath><clipPath
       id="clipPath560"
       clipPathUnits="userSpaceOnUse"><path
         id="path558"
         d="M 57.6,38.016 H 414.72 V 304.128 H 57.6 Z" /></clipPath><clipPath
       id="clipPath578"
       clipPathUnits="userSpaceOnUse"><path
         id="path576"
         d="M 57.6,38.016 H 414.72 V 304.128 H 57.6 Z" /></clipPath><clipPath
       id="clipPath596"
       clipPathUnits="userSpaceOnUse"><path
         id="path594"
         d="M 57.6,38.016 H 414.72 V 304.128 H 57.6 Z" /></clipPath><clipPath
       id="clipPath614"
       clipPathUnits="userSpaceOnUse"><path
         id="path612"
         d="M 57.6,38.016 H 414.72 V 304.128 H 57.6 Z" /></clipPath><clipPath
       id="clipPath628"
       clipPathUnits="userSpaceOnUse"><path
         id="path626"
         d="M 57.6,38.016 H 414.72 V 304.128 H 57.6 Z" /></clipPath><clipPath
       id="clipPath642"
       clipPathUnits="userSpaceOnUse"><path
         id="path640"
         d="M 57.6,38.016 H 414.72 V 304.128 H 57.6 Z" /></clipPath><clipPath
       id="clipPath656"
       clipPathUnits="userSpaceOnUse"><path
         id="path654"
         d="M 57.6,38.016 H 414.72 V 304.128 H 57.6 Z" /></clipPath><clipPath
       id="clipPath670"
       clipPathUnits="userSpaceOnUse"><path
         id="path668"
         d="M 57.6,38.016 H 414.72 V 304.128 H 57.6 Z" /></clipPath><clipPath
       id="clipPath684"
       clipPathUnits="userSpaceOnUse"><path
         id="path682"
         d="M 57.6,38.016 H 414.72 V 304.128 H 57.6 Z" /></clipPath><clipPath
       id="clipPath698"
       clipPathUnits="userSpaceOnUse"><path
         id="path696"
         d="M 57.6,38.016 H 414.72 V 304.128 H 57.6 Z" /></clipPath><clipPath
       id="clipPath712"
       clipPathUnits="userSpaceOnUse"><path
         id="path710"
         d="M 57.6,38.016 H 414.72 V 304.128 H 57.6 Z" /></clipPath><clipPath
       id="clipPath726"
       clipPathUnits="userSpaceOnUse"><path
         id="path724"
         d="M 57.6,38.016 H 414.72 V 304.128 H 57.6 Z" /></clipPath><clipPath
       id="clipPath740"
       clipPathUnits="userSpaceOnUse"><path
         id="path738"
         d="M 57.6,38.016 H 414.72 V 304.128 H 57.6 Z" /></clipPath><clipPath
       id="clipPath754"
       clipPathUnits="userSpaceOnUse"><path
         id="path752"
         d="M 57.6,38.016 H 414.72 V 304.128 H 57.6 Z" /></clipPath><clipPath
       id="clipPath768"
       clipPathUnits="userSpaceOnUse"><path
         id="path766"
         d="M 57.6,38.016 H 414.72 V 304.128 H 57.6 Z" /></clipPath><clipPath
       id="clipPath782"
       clipPathUnits="userSpaceOnUse"><path
         id="path780"
         d="M 57.6,38.016 H 414.72 V 304.128 H 57.6 Z" /></clipPath><clipPath
       id="clipPath796"
       clipPathUnits="userSpaceOnUse"><path
         id="path794"
         d="M 57.6,38.016 H 414.72 V 304.128 H 57.6 Z" /></clipPath><clipPath
       id="clipPath810"
       clipPathUnits="userSpaceOnUse"><path
         id="path808"
         d="M 57.6,38.016 H 414.72 V 304.128 H 57.6 Z" /></clipPath><clipPath
       id="clipPath824"
       clipPathUnits="userSpaceOnUse"><path
         id="path822"
         d="M 57.6,38.016 H 414.72 V 304.128 H 57.6 Z" /></clipPath><clipPath
       id="clipPath838"
       clipPathUnits="userSpaceOnUse"><path
         id="path836"
         d="M 57.6,38.016 H 414.72 V 304.128 H 57.6 Z" /></clipPath><clipPath
       id="clipPath852"
       clipPathUnits="userSpaceOnUse"><path
         id="path850"
         d="M 57.6,38.016 H 414.72 V 304.128 H 57.6 Z" /></clipPath><clipPath
       id="clipPath866"
       clipPathUnits="userSpaceOnUse"><path
         id="path864"
         d="M 57.6,38.016 H 414.72 V 304.128 H 57.6 Z" /></clipPath><clipPath
       id="clipPath888"
       clipPathUnits="userSpaceOnUse"><path
         id="path886"
         d="M -1021,-463 H 1794 V 1233 H -1021 Z" /></clipPath><clipPath
       id="clipPath900"
       clipPathUnits="userSpaceOnUse"><path
         id="path898"
         d="M 57.6,38.016 H 414.72 V 304.128 H 57.6 Z" /></clipPath><clipPath
       id="clipPath910"
       clipPathUnits="userSpaceOnUse"><path
         id="path908"
         d="M 57.6,38.016 H 414.72 V 304.128 H 57.6 Z" /></clipPath><clipPath
       id="clipPath920"
       clipPathUnits="userSpaceOnUse"><path
         id="path918"
         d="M 57.6,38.016 H 414.72 V 304.128 H 57.6 Z" /></clipPath><clipPath
       id="clipPath930"
       clipPathUnits="userSpaceOnUse"><path
         id="path928"
         d="M 57.6,38.016 H 414.72 V 304.128 H 57.6 Z" /></clipPath></defs><g
     transform="matrix(1.3333333,0,0,-1.3333333,0,460.8)"
     id="g18"><path
       id="path20"
       style="fill:#ffffff;fill-opacity:1;fill-rule:nonzero;stroke:none"
       d="M 0,0 H 460.8 V 345.6 H 0 Z" /><path
       id="path22"
       style="fill:#ffffff;fill-opacity:1;fill-rule:nonzero;stroke:none"
       d="M 57.6,38.016 H 414.72 V 304.128 H 57.6 Z" /><g
       id="g24"><g
         clip-path="url(#clipPath30)"
         id="g26"><path
           id="path32"
           style="fill:none;stroke:#d3d3d3;stroke-width:0.25;stroke-linecap:butt;stroke-linejoin:round;stroke-miterlimit:10;stroke-dasharray:1.6, 0.4, 0.25, 0.4;stroke-dashoffset:0;stroke-opacity:1"
           d="M 73.832727,38.016 V 304.128" /></g></g><g
       id="g34"><path
         id="path36"
         style="fill:#000000;fill-opacity:1;fill-rule:nonzero;stroke:#000000;stroke-width:0.8;stroke-linecap:butt;stroke-linejoin:round;stroke-miterlimit:10;stroke-dasharray:none;stroke-opacity:1"
         d="m 73.832727,38.016 v -3.5" /><text
         id="text40"
         style="font-variant:normal;font-weight:normal;font-size:10px;font-family:'DejaVu Sans Mono for Powerline';-inkscape-font-specification:DejaVuSans;writing-mode:lr-tb;fill:#000000;fill-opacity:1;fill-rule:nonzero;stroke:none"
         transform="matrix(1,0,0,-1,70.65304,23.42225)"><tspan
           id="tspan38"
           y="0"
           x="0">0</tspan></text></g><g
       id="g42"><g
         clip-path="url(#clipPath48)"
         id="g44"><path
           id="path50"
           style="fill:none;stroke:#d3d3d3;stroke-width:0.25;stroke-linecap:butt;stroke-linejoin:round;stroke-miterlimit:10;stroke-dasharray:1.6, 0.4, 0.25, 0.4;stroke-dashoffset:0;stroke-opacity:1"
           d="M 127.94182,38.016 V 304.128" /></g></g><g
       id="g52"><path
         id="path54"
         style="fill:#000000;fill-opacity:1;fill-rule:nonzero;stroke:#000000;stroke-width:0.8;stroke-linecap:butt;stroke-linejoin:round;stroke-miterlimit:10;stroke-dasharray:none;stroke-opacity:1"
         d="m 127.94182,38.016 v -3.5" /><text
         id="text58"
         style="font-variant:normal;font-weight:normal;font-size:10px;font-family:'DejaVu Sans Mono for Powerline';-inkscape-font-specification:DejaVuSans;writing-mode:lr-tb;fill:#000000;fill-opacity:1;fill-rule:nonzero;stroke:none"
         transform="matrix(1,0,0,-1,118.40276,23.42225)"><tspan
           id="tspan56"
           y="0"
           x="0 6.3600001 12.72">500</tspan></text></g><g
       id="g60"><g
         clip-path="url(#clipPath66)"
         id="g62"><path
           id="path68"
           style="fill:none;stroke:#d3d3d3;stroke-width:0.25;stroke-linecap:butt;stroke-linejoin:round;stroke-miterlimit:10;stroke-dasharray:1.6, 0.4, 0.25, 0.4;stroke-dashoffset:0;stroke-opacity:1"
           d="M 182.05091,38.016 V 304.128" /></g></g><g
       id="g70"><path
         id="path72"
         style="fill:#000000;fill-opacity:1;fill-rule:nonzero;stroke:#000000;stroke-width:0.8;stroke-linecap:butt;stroke-linejoin:round;stroke-miterlimit:10;stroke-dasharray:none;stroke-opacity:1"
         d="m 182.05091,38.016 v -3.5" /><text
         id="text76"
         style="font-variant:normal;font-weight:normal;font-size:10px;font-family:'DejaVu Sans Mono for Powerline';-inkscape-font-specification:DejaVuSans;writing-mode:lr-tb;fill:#000000;fill-opacity:1;fill-rule:nonzero;stroke:none"
         transform="matrix(1,0,0,-1,169.33216,23.42225)"><tspan
           id="tspan74"
           y="0"
           x="0 6.3600001 12.72 19.08">1000</tspan></text></g><g
       id="g78"><g
         clip-path="url(#clipPath84)"
         id="g80"><path
           id="path86"
           style="fill:none;stroke:#d3d3d3;stroke-width:0.25;stroke-linecap:butt;stroke-linejoin:round;stroke-miterlimit:10;stroke-dasharray:1.6, 0.4, 0.25, 0.4;stroke-dashoffset:0;stroke-opacity:1"
           d="M 236.16,38.016 V 304.128" /></g></g><g
       id="g88"><path
         id="path90"
         style="fill:#000000;fill-opacity:1;fill-rule:nonzero;stroke:#000000;stroke-width:0.8;stroke-linecap:butt;stroke-linejoin:round;stroke-miterlimit:10;stroke-dasharray:none;stroke-opacity:1"
         d="m 236.16,38.016 v -3.5" /><text
         id="text94"
         style="font-variant:normal;font-weight:normal;font-size:10px;font-family:'DejaVu Sans Mono for Powerline';-inkscape-font-specification:DejaVuSans;writing-mode:lr-tb;fill:#000000;fill-opacity:1;fill-rule:nonzero;stroke:none"
         transform="matrix(1,0,0,-1,223.44125,23.42225)"><tspan
           id="tspan92"
           y="0"
           x="0 6.3600001 12.72 19.08">1500</tspan></text></g><g
       id="g96"><g
         clip-path="url(#clipPath102)"
         id="g98"><path
           id="path104"
           style="fill:none;stroke:#d3d3d3;stroke-width:0.25;stroke-linecap:butt;stroke-linejoin:round;stroke-miterlimit:10;stroke-dasharray:1.6, 0.4, 0.25, 0.4;stroke-dashoffset:0;stroke-opacity:1"
           d="M 290.26909,38.016 V 304.128" /></g></g><g
       id="g106"><path
         id="path108"
         style="fill:#000000;fill-opacity:1;fill-rule:nonzero;stroke:#000000;stroke-width:0.8;stroke-linecap:butt;stroke-linejoin:round;stroke-miterlimit:10;stroke-dasharray:none;stroke-opacity:1"
         d="m 290.26909,38.016 v -3.5" /><text
         id="text112"
         style="font-variant:normal;font-weight:normal;font-size:10px;font-family:'DejaVu Sans Mono for Powerline';-inkscape-font-specification:DejaVuSans;writing-mode:lr-tb;fill:#000000;fill-opacity:1;fill-rule:nonzero;stroke:none"
         transform="matrix(1,0,0,-1,277.55034,23.42225)"><tspan
           id="tspan110"
           y="0"
           x="0 6.3600001 12.72 19.08">2000</tspan></text></g><g
       id="g114"><g
         clip-path="url(#clipPath120)"
         id="g116"><path
           id="path122"
           style="fill:none;stroke:#d3d3d3;stroke-width:0.25;stroke-linecap:butt;stroke-linejoin:round;stroke-miterlimit:10;stroke-dasharray:1.6, 0.4, 0.25, 0.4;stroke-dashoffset:0;stroke-opacity:1"
           d="M 344.37818,38.016 V 304.128" /></g></g><g
       id="g124"><path
         id="path126"
         style="fill:#000000;fill-opacity:1;fill-rule:nonzero;stroke:#000000;stroke-width:0.8;stroke-linecap:butt;stroke-linejoin:round;stroke-miterlimit:10;stroke-dasharray:none;stroke-opacity:1"
         d="m 344.37818,38.016 v -3.5" /><text
         id="text130"
         style="font-variant:normal;font-weight:normal;font-size:10px;font-family:'DejaVu Sans Mono for Powerline';-inkscape-font-specification:DejaVuSans;writing-mode:lr-tb;fill:#000000;fill-opacity:1;fill-rule:nonzero;stroke:none"
         transform="matrix(1,0,0,-1,331.65943,23.42225)"><tspan
           id="tspan128"
           y="0"
           x="0 6.3600001 12.72 19.08">2500</tspan></text></g><g
       id="g132"><g
         clip-path="url(#clipPath138)"
         id="g134"><path
           id="path140"
           style="fill:none;stroke:#d3d3d3;stroke-width:0.25;stroke-linecap:butt;stroke-linejoin:round;stroke-miterlimit:10;stroke-dasharray:1.6, 0.4, 0.25, 0.4;stroke-dashoffset:0;stroke-opacity:1"
           d="M 398.48727,38.016 V 304.128" /></g></g><g
       id="g142"><path
         id="path144"
         style="fill:#000000;fill-opacity:1;fill-rule:nonzero;stroke:#000000;stroke-width:0.8;stroke-linecap:butt;stroke-linejoin:round;stroke-miterlimit:10;stroke-dasharray:none;stroke-opacity:1"
         d="m 398.48727,38.016 v -3.5" /><text
         id="text148"
         style="font-variant:normal;font-weight:normal;font-size:10px;font-family:'DejaVu Sans Mono for Powerline';-inkscape-font-specification:DejaVuSans;writing-mode:lr-tb;fill:#000000;fill-opacity:1;fill-rule:nonzero;stroke:none"
         transform="matrix(1,0,0,-1,385.76852,23.42225)"><tspan
           id="tspan146"
           y="0"
           x="0 6.3600001 12.72 19.08">3000</tspan></text></g><g
       id="g150"><g
         clip-path="url(#clipPath156)"
         id="g152"><path
           id="path158"
           style="fill:none;stroke:#d3d3d3;stroke-width:0.25;stroke-linecap:butt;stroke-linejoin:round;stroke-miterlimit:10;stroke-dasharray:1.6, 0.4, 0.25, 0.4;stroke-dashoffset:0;stroke-opacity:1"
           d="M 63.010909,38.016 V 304.128" /></g></g><g
       id="g160"><path
         id="path162"
         style="fill:#000000;fill-opacity:1;fill-rule:nonzero;stroke:#000000;stroke-width:0.6;stroke-linecap:butt;stroke-linejoin:round;stroke-miterlimit:10;stroke-dasharray:none;stroke-opacity:1"
         d="m 63.010909,38.016 v -2" /></g><g
       id="g164"><g
         clip-path="url(#clipPath170)"
         id="g166"><path
           id="path172"
           style="fill:none;stroke:#d3d3d3;stroke-width:0.25;stroke-linecap:butt;stroke-linejoin:round;stroke-miterlimit:10;stroke-dasharray:1.6, 0.4, 0.25, 0.4;stroke-dashoffset:0;stroke-opacity:1"
           d="M 84.654545,38.016 V 304.128" /></g></g><g
       id="g174"><path
         id="path176"
         style="fill:#000000;fill-opacity:1;fill-rule:nonzero;stroke:#000000;stroke-width:0.6;stroke-linecap:butt;stroke-linejoin:round;stroke-miterlimit:10;stroke-dasharray:none;stroke-opacity:1"
         d="m 84.654545,38.016 v -2" /></g><g
       id="g178"><g
         clip-path="url(#clipPath184)"
         id="g180"><path
           id="path186"
           style="fill:none;stroke:#d3d3d3;stroke-width:0.25;stroke-linecap:butt;stroke-linejoin:round;stroke-miterlimit:10;stroke-dasharray:1.6, 0.4, 0.25, 0.4;stroke-dashoffset:0;stroke-opacity:1"
           d="M 95.476364,38.016 V 304.128" /></g></g><g
       id="g188"><path
         id="path190"
         style="fill:#000000;fill-opacity:1;fill-rule:nonzero;stroke:#000000;stroke-width:0.6;stroke-linecap:butt;stroke-linejoin:round;stroke-miterlimit:10;stroke-dasharray:none;stroke-opacity:1"
         d="m 95.476364,38.016 v -2" /></g><g
       id="g192"><g
         clip-path="url(#clipPath198)"
         id="g194"><path
           id="path200"
           style="fill:none;stroke:#d3d3d3;stroke-width:0.25;stroke-linecap:butt;stroke-linejoin:round;stroke-miterlimit:10;stroke-dasharray:1.6, 0.4, 0.25, 0.4;stroke-dashoffset:0;stroke-opacity:1"
           d="M 106.29818,38.016 V 304.128" /></g></g><g
       id="g202"><path
         id="path204"
         style="fill:#000000;fill-opacity:1;fill-rule:nonzero;stroke:#000000;stroke-width:0.6;stroke-linecap:butt;stroke-linejoin:round;stroke-miterlimit:10;stroke-dasharray:none;stroke-opacity:1"
         d="m 106.29818,38.016 v -2" /></g><g
       id="g206"><g
         clip-path="url(#clipPath212)"
         id="g208"><path
           id="path214"
           style="fill:none;stroke:#d3d3d3;stroke-width:0.25;stroke-linecap:butt;stroke-linejoin:round;stroke-miterlimit:10;stroke-dasharray:1.6, 0.4, 0.25, 0.4;stroke-dashoffset:0;stroke-opacity:1"
           d="M 117.12,38.016 V 304.128" /></g></g><g
       id="g216"><path
         id="path218"
         style="fill:#000000;fill-opacity:1;fill-rule:nonzero;stroke:#000000;stroke-width:0.6;stroke-linecap:butt;stroke-linejoin:round;stroke-miterlimit:10;stroke-dasharray:none;stroke-opacity:1"
         d="m 117.12,38.016 v -2" /></g><g
       id="g220"><g
         clip-path="url(#clipPath226)"
         id="g222"><path
           id="path228"
           style="fill:none;stroke:#d3d3d3;stroke-width:0.25;stroke-linecap:butt;stroke-linejoin:round;stroke-miterlimit:10;stroke-dasharray:1.6, 0.4, 0.25, 0.4;stroke-dashoffset:0;stroke-opacity:1"
           d="M 138.76364,38.016 V 304.128" /></g></g><g
       id="g230"><path
         id="path232"
         style="fill:#000000;fill-opacity:1;fill-rule:nonzero;stroke:#000000;stroke-width:0.6;stroke-linecap:butt;stroke-linejoin:round;stroke-miterlimit:10;stroke-dasharray:none;stroke-opacity:1"
         d="m 138.76364,38.016 v -2" /></g><g
       id="g234"><g
         clip-path="url(#clipPath240)"
         id="g236"><path
           id="path242"
           style="fill:none;stroke:#d3d3d3;stroke-width:0.25;stroke-linecap:butt;stroke-linejoin:round;stroke-miterlimit:10;stroke-dasharray:1.6, 0.4, 0.25, 0.4;stroke-dashoffset:0;stroke-opacity:1"
           d="M 149.58545,38.016 V 304.128" /></g></g><g
       id="g244"><path
         id="path246"
         style="fill:#000000;fill-opacity:1;fill-rule:nonzero;stroke:#000000;stroke-width:0.6;stroke-linecap:butt;stroke-linejoin:round;stroke-miterlimit:10;stroke-dasharray:none;stroke-opacity:1"
         d="m 149.58545,38.016 v -2" /></g><g
       id="g248"><g
         clip-path="url(#clipPath254)"
         id="g250"><path
           id="path256"
           style="fill:none;stroke:#d3d3d3;stroke-width:0.25;stroke-linecap:butt;stroke-linejoin:round;stroke-miterlimit:10;stroke-dasharray:1.6, 0.4, 0.25, 0.4;stroke-dashoffset:0;stroke-opacity:1"
           d="M 160.40727,38.016 V 304.128" /></g></g><g
       id="g258"><path
         id="path260"
         style="fill:#000000;fill-opacity:1;fill-rule:nonzero;stroke:#000000;stroke-width:0.6;stroke-linecap:butt;stroke-linejoin:round;stroke-miterlimit:10;stroke-dasharray:none;stroke-opacity:1"
         d="m 160.40727,38.016 v -2" /></g><g
       id="g262"><g
         clip-path="url(#clipPath268)"
         id="g264"><path
           id="path270"
           style="fill:none;stroke:#d3d3d3;stroke-width:0.25;stroke-linecap:butt;stroke-linejoin:round;stroke-miterlimit:10;stroke-dasharray:1.6, 0.4, 0.25, 0.4;stroke-dashoffset:0;stroke-opacity:1"
           d="M 171.22909,38.016 V 304.128" /></g></g><g
       id="g272"><path
         id="path274"
         style="fill:#000000;fill-opacity:1;fill-rule:nonzero;stroke:#000000;stroke-width:0.6;stroke-linecap:butt;stroke-linejoin:round;stroke-miterlimit:10;stroke-dasharray:none;stroke-opacity:1"
         d="m 171.22909,38.016 v -2" /></g><g
       id="g276"><g
         clip-path="url(#clipPath282)"
         id="g278"><path
           id="path284"
           style="fill:none;stroke:#d3d3d3;stroke-width:0.25;stroke-linecap:butt;stroke-linejoin:round;stroke-miterlimit:10;stroke-dasharray:1.6, 0.4, 0.25, 0.4;stroke-dashoffset:0;stroke-opacity:1"
           d="M 192.87273,38.016 V 304.128" /></g></g><g
       id="g286"><path
         id="path288"
         style="fill:#000000;fill-opacity:1;fill-rule:nonzero;stroke:#000000;stroke-width:0.6;stroke-linecap:butt;stroke-linejoin:round;stroke-miterlimit:10;stroke-dasharray:none;stroke-opacity:1"
         d="m 192.87273,38.016 v -2" /></g><g
       id="g290"><g
         clip-path="url(#clipPath296)"
         id="g292"><path
           id="path298"
           style="fill:none;stroke:#d3d3d3;stroke-width:0.25;stroke-linecap:butt;stroke-linejoin:round;stroke-miterlimit:10;stroke-dasharray:1.6, 0.4, 0.25, 0.4;stroke-dashoffset:0;stroke-opacity:1"
           d="M 203.69454,38.016 V 304.128" /></g></g><g
       id="g300"><path
         id="path302"
         style="fill:#000000;fill-opacity:1;fill-rule:nonzero;stroke:#000000;stroke-width:0.6;stroke-linecap:butt;stroke-linejoin:round;stroke-miterlimit:10;stroke-dasharray:none;stroke-opacity:1"
         d="m 203.69454,38.016 v -2" /></g><g
       id="g304"><g
         clip-path="url(#clipPath310)"
         id="g306"><path
           id="path312"
           style="fill:none;stroke:#d3d3d3;stroke-width:0.25;stroke-linecap:butt;stroke-linejoin:round;stroke-miterlimit:10;stroke-dasharray:1.6, 0.4, 0.25, 0.4;stroke-dashoffset:0;stroke-opacity:1"
           d="M 214.51636,38.016 V 304.128" /></g></g><g
       id="g314"><path
         id="path316"
         style="fill:#000000;fill-opacity:1;fill-rule:nonzero;stroke:#000000;stroke-width:0.6;stroke-linecap:butt;stroke-linejoin:round;stroke-miterlimit:10;stroke-dasharray:none;stroke-opacity:1"
         d="m 214.51636,38.016 v -2" /></g><g
       id="g318"><g
         clip-path="url(#clipPath324)"
         id="g320"><path
           id="path326"
           style="fill:none;stroke:#d3d3d3;stroke-width:0.25;stroke-linecap:butt;stroke-linejoin:round;stroke-miterlimit:10;stroke-dasharray:1.6, 0.4, 0.25, 0.4;stroke-dashoffset:0;stroke-opacity:1"
           d="M 225.33818,38.016 V 304.128" /></g></g><g
       id="g328"><path
         id="path330"
         style="fill:#000000;fill-opacity:1;fill-rule:nonzero;stroke:#000000;stroke-width:0.6;stroke-linecap:butt;stroke-linejoin:round;stroke-miterlimit:10;stroke-dasharray:none;stroke-opacity:1"
         d="m 225.33818,38.016 v -2" /></g><g
       id="g332"><g
         clip-path="url(#clipPath338)"
         id="g334"><path
           id="path340"
           style="fill:none;stroke:#d3d3d3;stroke-width:0.25;stroke-linecap:butt;stroke-linejoin:round;stroke-miterlimit:10;stroke-dasharray:1.6, 0.4, 0.25, 0.4;stroke-dashoffset:0;stroke-opacity:1"
           d="M 246.98182,38.016 V 304.128" /></g></g><g
       id="g342"><path
         id="path344"
         style="fill:#000000;fill-opacity:1;fill-rule:nonzero;stroke:#000000;stroke-width:0.6;stroke-linecap:butt;stroke-linejoin:round;stroke-miterlimit:10;stroke-dasharray:none;stroke-opacity:1"
         d="m 246.98182,38.016 v -2" /></g><g
       id="g346"><g
         clip-path="url(#clipPath352)"
         id="g348"><path
           id="path354"
           style="fill:none;stroke:#d3d3d3;stroke-width:0.25;stroke-linecap:butt;stroke-linejoin:round;stroke-miterlimit:10;stroke-dasharray:1.6, 0.4, 0.25, 0.4;stroke-dashoffset:0;stroke-opacity:1"
           d="M 257.80364,38.016 V 304.128" /></g></g><g
       id="g356"><path
         id="path358"
         style="fill:#000000;fill-opacity:1;fill-rule:nonzero;stroke:#000000;stroke-width:0.6;stroke-linecap:butt;stroke-linejoin:round;stroke-miterlimit:10;stroke-dasharray:none;stroke-opacity:1"
         d="m 257.80364,38.016 v -2" /></g><g
       id="g360"><g
         clip-path="url(#clipPath366)"
         id="g362"><path
           id="path368"
           style="fill:none;stroke:#d3d3d3;stroke-width:0.25;stroke-linecap:butt;stroke-linejoin:round;stroke-miterlimit:10;stroke-dasharray:1.6, 0.4, 0.25, 0.4;stroke-dashoffset:0;stroke-opacity:1"
           d="M 268.62545,38.016 V 304.128" /></g></g><g
       id="g370"><path
         id="path372"
         style="fill:#000000;fill-opacity:1;fill-rule:nonzero;stroke:#000000;stroke-width:0.6;stroke-linecap:butt;stroke-linejoin:round;stroke-miterlimit:10;stroke-dasharray:none;stroke-opacity:1"
         d="m 268.62545,38.016 v -2" /></g><g
       id="g374"><g
         clip-path="url(#clipPath380)"
         id="g376"><path
           id="path382"
           style="fill:none;stroke:#d3d3d3;stroke-width:0.25;stroke-linecap:butt;stroke-linejoin:round;stroke-miterlimit:10;stroke-dasharray:1.6, 0.4, 0.25, 0.4;stroke-dashoffset:0;stroke-opacity:1"
           d="M 279.44727,38.016 V 304.128" /></g></g><g
       id="g384"><path
         id="path386"
         style="fill:#000000;fill-opacity:1;fill-rule:nonzero;stroke:#000000;stroke-width:0.6;stroke-linecap:butt;stroke-linejoin:round;stroke-miterlimit:10;stroke-dasharray:none;stroke-opacity:1"
         d="m 279.44727,38.016 v -2" /></g><g
       id="g388"><g
         clip-path="url(#clipPath394)"
         id="g390"><path
           id="path396"
           style="fill:none;stroke:#d3d3d3;stroke-width:0.25;stroke-linecap:butt;stroke-linejoin:round;stroke-miterlimit:10;stroke-dasharray:1.6, 0.4, 0.25, 0.4;stroke-dashoffset:0;stroke-opacity:1"
           d="M 301.09091,38.016 V 304.128" /></g></g><g
       id="g398"><path
         id="path400"
         style="fill:#000000;fill-opacity:1;fill-rule:nonzero;stroke:#000000;stroke-width:0.6;stroke-linecap:butt;stroke-linejoin:round;stroke-miterlimit:10;stroke-dasharray:none;stroke-opacity:1"
         d="m 301.09091,38.016 v -2" /></g><g
       id="g402"><g
         clip-path="url(#clipPath408)"
         id="g404"><path
           id="path410"
           style="fill:none;stroke:#d3d3d3;stroke-width:0.25;stroke-linecap:butt;stroke-linejoin:round;stroke-miterlimit:10;stroke-dasharray:1.6, 0.4, 0.25, 0.4;stroke-dashoffset:0;stroke-opacity:1"
           d="M 311.91273,38.016 V 304.128" /></g></g><g
       id="g412"><path
         id="path414"
         style="fill:#000000;fill-opacity:1;fill-rule:nonzero;stroke:#000000;stroke-width:0.6;stroke-linecap:butt;stroke-linejoin:round;stroke-miterlimit:10;stroke-dasharray:none;stroke-opacity:1"
         d="m 311.91273,38.016 v -2" /></g><g
       id="g416"><g
         clip-path="url(#clipPath422)"
         id="g418"><path
           id="path424"
           style="fill:none;stroke:#d3d3d3;stroke-width:0.25;stroke-linecap:butt;stroke-linejoin:round;stroke-miterlimit:10;stroke-dasharray:1.6, 0.4, 0.25, 0.4;stroke-dashoffset:0;stroke-opacity:1"
           d="M 322.73454,38.016 V 304.128" /></g></g><g
       id="g426"><path
         id="path428"
         style="fill:#000000;fill-opacity:1;fill-rule:nonzero;stroke:#000000;stroke-width:0.6;stroke-linecap:butt;stroke-linejoin:round;stroke-miterlimit:10;stroke-dasharray:none;stroke-opacity:1"
         d="m 322.73454,38.016 v -2" /></g><g
       id="g430"><g
         clip-path="url(#clipPath436)"
         id="g432"><path
           id="path438"
           style="fill:none;stroke:#d3d3d3;stroke-width:0.25;stroke-linecap:butt;stroke-linejoin:round;stroke-miterlimit:10;stroke-dasharray:1.6, 0.4, 0.25, 0.4;stroke-dashoffset:0;stroke-opacity:1"
           d="M 333.55636,38.016 V 304.128" /></g></g><g
       id="g440"><path
         id="path442"
         style="fill:#000000;fill-opacity:1;fill-rule:nonzero;stroke:#000000;stroke-width:0.6;stroke-linecap:butt;stroke-linejoin:round;stroke-miterlimit:10;stroke-dasharray:none;stroke-opacity:1"
         d="m 333.55636,38.016 v -2" /></g><g
       id="g444"><g
         clip-path="url(#clipPath450)"
         id="g446"><path
           id="path452"
           style="fill:none;stroke:#d3d3d3;stroke-width:0.25;stroke-linecap:butt;stroke-linejoin:round;stroke-miterlimit:10;stroke-dasharray:1.6, 0.4, 0.25, 0.4;stroke-dashoffset:0;stroke-opacity:1"
           d="M 355.2,38.016 V 304.128" /></g></g><g
       id="g454"><path
         id="path456"
         style="fill:#000000;fill-opacity:1;fill-rule:nonzero;stroke:#000000;stroke-width:0.6;stroke-linecap:butt;stroke-linejoin:round;stroke-miterlimit:10;stroke-dasharray:none;stroke-opacity:1"
         d="m 355.2,38.016 v -2" /></g><g
       id="g458"><g
         clip-path="url(#clipPath464)"
         id="g460"><path
           id="path466"
           style="fill:none;stroke:#d3d3d3;stroke-width:0.25;stroke-linecap:butt;stroke-linejoin:round;stroke-miterlimit:10;stroke-dasharray:1.6, 0.4, 0.25, 0.4;stroke-dashoffset:0;stroke-opacity:1"
           d="M 366.02182,38.016 V 304.128" /></g></g><g
       id="g468"><path
         id="path470"
         style="fill:#000000;fill-opacity:1;fill-rule:nonzero;stroke:#000000;stroke-width:0.6;stroke-linecap:butt;stroke-linejoin:round;stroke-miterlimit:10;stroke-dasharray:none;stroke-opacity:1"
         d="m 366.02182,38.016 v -2" /></g><g
       id="g472"><g
         clip-path="url(#clipPath478)"
         id="g474"><path
           id="path480"
           style="fill:none;stroke:#d3d3d3;stroke-width:0.25;stroke-linecap:butt;stroke-linejoin:round;stroke-miterlimit:10;stroke-dasharray:1.6, 0.4, 0.25, 0.4;stroke-dashoffset:0;stroke-opacity:1"
           d="M 376.84364,38.016 V 304.128" /></g></g><g
       id="g482"><path
         id="path484"
         style="fill:#000000;fill-opacity:1;fill-rule:nonzero;stroke:#000000;stroke-width:0.6;stroke-linecap:butt;stroke-linejoin:round;stroke-miterlimit:10;stroke-dasharray:none;stroke-opacity:1"
         d="m 376.84364,38.016 v -2" /></g><g
       id="g486"><g
         clip-path="url(#clipPath492)"
         id="g488"><path
           id="path494"
           style="fill:none;stroke:#d3d3d3;stroke-width:0.25;stroke-linecap:butt;stroke-linejoin:round;stroke-miterlimit:10;stroke-dasharray:1.6, 0.4, 0.25, 0.4;stroke-dashoffset:0;stroke-opacity:1"
           d="M 387.66545,38.016 V 304.128" /></g></g><g
       id="g496"><path
         id="path498"
         style="fill:#000000;fill-opacity:1;fill-rule:nonzero;stroke:#000000;stroke-width:0.6;stroke-linecap:butt;stroke-linejoin:round;stroke-miterlimit:10;stroke-dasharray:none;stroke-opacity:1"
         d="m 387.66545,38.016 v -2" /></g><g
       id="g500"><g
         clip-path="url(#clipPath506)"
         id="g502"><path
           id="path508"
           style="fill:none;stroke:#d3d3d3;stroke-width:0.25;stroke-linecap:butt;stroke-linejoin:round;stroke-miterlimit:10;stroke-dasharray:1.6, 0.4, 0.25, 0.4;stroke-dashoffset:0;stroke-opacity:1"
           d="M 409.30909,38.016 V 304.128" /></g></g><g
       id="g510"><path
         id="path512"
         style="fill:#000000;fill-opacity:1;fill-rule:nonzero;stroke:#000000;stroke-width:0.6;stroke-linecap:butt;stroke-linejoin:round;stroke-miterlimit:10;stroke-dasharray:none;stroke-opacity:1"
         d="m 409.30909,38.016 v -2" /><text
         id="text516"
         style="font-variant:normal;font-weight:normal;font-size:10px;font-family:'DejaVu Sans Mono for Powerline';-inkscape-font-specification:DejaVuSans;writing-mode:lr-tb;fill:#000000;fill-opacity:1;fill-rule:nonzero;stroke:none"
         transform="matrix(1,0,0,-1,212.60531,9.750375)"><tspan
           id="tspan514"
           y="0"
           x="0 6.1100001 8.8900003 18.629999 24.780001 27.959999 31.860001 38.209999 43.419998">Time (ps)</tspan></text></g><g
       id="g518"><g
         clip-path="url(#clipPath524)"
         id="g520"><path
           id="path526"
           style="fill:none;stroke:#d3d3d3;stroke-width:0.25;stroke-linecap:butt;stroke-linejoin:round;stroke-miterlimit:10;stroke-dasharray:1.6, 0.4, 0.25, 0.4;stroke-dashoffset:0;stroke-opacity:1"
           d="M 57.6,75.725166 H 414.72" /></g></g><g
       id="g528"><path
         id="path530"
         style="fill:#000000;fill-opacity:1;fill-rule:nonzero;stroke:#000000;stroke-width:0.8;stroke-linecap:butt;stroke-linejoin:round;stroke-miterlimit:10;stroke-dasharray:none;stroke-opacity:1"
         d="M 57.6,75.725166 H 54.1" /><text
         id="text534"
         style="font-variant:normal;font-weight:normal;font-size:10px;font-family:'DejaVu Sans Mono for Powerline';-inkscape-font-specification:DejaVuSans;writing-mode:lr-tb;fill:#000000;fill-opacity:1;fill-rule:nonzero;stroke:none"
         transform="matrix(1,0,0,-1,44.240625,71.928291)"><tspan
           id="tspan532"
           y="0"
           x="0">5</tspan></text></g><g
       id="g536"><g
         clip-path="url(#clipPath542)"
         id="g538"><path
           id="path544"
           style="fill:none;stroke:#d3d3d3;stroke-width:0.25;stroke-linecap:butt;stroke-linejoin:round;stroke-miterlimit:10;stroke-dasharray:1.6, 0.4, 0.25, 0.4;stroke-dashoffset:0;stroke-opacity:1"
           d="M 57.6,130.27589 H 414.72" /></g></g><g
       id="g546"><path
         id="path548"
         style="fill:#000000;fill-opacity:1;fill-rule:nonzero;stroke:#000000;stroke-width:0.8;stroke-linecap:butt;stroke-linejoin:round;stroke-miterlimit:10;stroke-dasharray:none;stroke-opacity:1"
         d="M 57.6,130.27589 H 54.1" /><text
         id="text552"
         style="font-variant:normal;font-weight:normal;font-size:10px;font-family:'DejaVu Sans Mono for Powerline';-inkscape-font-specification:DejaVuSans;writing-mode:lr-tb;fill:#000000;fill-opacity:1;fill-rule:nonzero;stroke:none"
         transform="matrix(1,0,0,-1,37.88125,126.47902)"><tspan
           id="tspan550"
           y="0"
           x="0 6.3600001">10</tspan></text></g><g
       id="g554"><g
         clip-path="url(#clipPath560)"
         id="g556"><path
           id="path562"
           style="fill:none;stroke:#d3d3d3;stroke-width:0.25;stroke-linecap:butt;stroke-linejoin:round;stroke-miterlimit:10;stroke-dasharray:1.6, 0.4, 0.25, 0.4;stroke-dashoffset:0;stroke-opacity:1"
           d="M 57.6,184.82662 H 414.72" /></g></g><g
       id="g564"><path
         id="path566"
         style="fill:#000000;fill-opacity:1;fill-rule:nonzero;stroke:#000000;stroke-width:0.8;stroke-linecap:butt;stroke-linejoin:round;stroke-miterlimit:10;stroke-dasharray:none;stroke-opacity:1"
         d="M 57.6,184.82662 H 54.1" /><text
         id="text570"
         style="font-variant:normal;font-weight:normal;font-size:10px;font-family:'DejaVu Sans Mono for Powerline';-inkscape-font-specification:DejaVuSans;writing-mode:lr-tb;fill:#000000;fill-opacity:1;fill-rule:nonzero;stroke:none"
         transform="matrix(1,0,0,-1,37.88125,181.02974)"><tspan
           id="tspan568"
           y="0"
           x="0 6.3600001">15</tspan></text></g><g
       id="g572"><g
         clip-path="url(#clipPath578)"
         id="g574"><path
           id="path580"
           style="fill:none;stroke:#d3d3d3;stroke-width:0.25;stroke-linecap:butt;stroke-linejoin:round;stroke-miterlimit:10;stroke-dasharray:1.6, 0.4, 0.25, 0.4;stroke-dashoffset:0;stroke-opacity:1"
           d="M 57.6,239.37734 H 414.72" /></g></g><g
       id="g582"><path
         id="path584"
         style="fill:#000000;fill-opacity:1;fill-rule:nonzero;stroke:#000000;stroke-width:0.8;stroke-linecap:butt;stroke-linejoin:round;stroke-miterlimit:10;stroke-dasharray:none;stroke-opacity:1"
         d="M 57.6,239.37734 H 54.1" /><text
         id="text588"
         style="font-variant:normal;font-weight:normal;font-size:10px;font-family:'DejaVu Sans Mono for Powerline';-inkscape-font-specification:DejaVuSans;writing-mode:lr-tb;fill:#000000;fill-opacity:1;fill-rule:nonzero;stroke:none"
         transform="matrix(1,0,0,-1,37.88125,235.58047)"><tspan
           id="tspan586"
           y="0"
           x="0 6.3600001">20</tspan></text></g><g
       id="g590"><g
         clip-path="url(#clipPath596)"
         id="g592"><path
           id="path598"
           style="fill:none;stroke:#d3d3d3;stroke-width:0.25;stroke-linecap:butt;stroke-linejoin:round;stroke-miterlimit:10;stroke-dasharray:1.6, 0.4, 0.25, 0.4;stroke-dashoffset:0;stroke-opacity:1"
           d="M 57.6,293.92807 H 414.72" /></g></g><g
       id="g600"><path
         id="path602"
         style="fill:#000000;fill-opacity:1;fill-rule:nonzero;stroke:#000000;stroke-width:0.8;stroke-linecap:butt;stroke-linejoin:round;stroke-miterlimit:10;stroke-dasharray:none;stroke-opacity:1"
         d="M 57.6,293.92807 H 54.1" /><text
         id="text606"
         style="font-variant:normal;font-weight:normal;font-size:10px;font-family:'DejaVu Sans Mono for Powerline';-inkscape-font-specification:DejaVuSans;writing-mode:lr-tb;fill:#000000;fill-opacity:1;fill-rule:nonzero;stroke:none"
         transform="matrix(1,0,0,-1,37.88125,290.13119)"><tspan
           id="tspan604"
           y="0"
           x="0 6.3600001">25</tspan></text></g><g
       id="g608"><g
         clip-path="url(#clipPath614)"
         id="g610"><path
           id="path616"
           style="fill:none;stroke:#d3d3d3;stroke-width:0.25;stroke-linecap:butt;stroke-linejoin:round;stroke-miterlimit:10;stroke-dasharray:1.6, 0.4, 0.25, 0.4;stroke-dashoffset:0;stroke-opacity:1"
           d="M 57.6,42.994731 H 414.72" /></g></g><g
       id="g618"><path
         id="path620"
         style="fill:#000000;fill-opacity:1;fill-rule:nonzero;stroke:#000000;stroke-width:0.6;stroke-linecap:butt;stroke-linejoin:round;stroke-miterlimit:10;stroke-dasharray:none;stroke-opacity:1"
         d="m 57.6,42.994731 h -2" /></g><g
       id="g622"><g
         clip-path="url(#clipPath628)"
         id="g624"><path
           id="path630"
           style="fill:none;stroke:#d3d3d3;stroke-width:0.25;stroke-linecap:butt;stroke-linejoin:round;stroke-miterlimit:10;stroke-dasharray:1.6, 0.4, 0.25, 0.4;stroke-dashoffset:0;stroke-opacity:1"
           d="M 57.6,53.904876 H 414.72" /></g></g><g
       id="g632"><path
         id="path634"
         style="fill:#000000;fill-opacity:1;fill-rule:nonzero;stroke:#000000;stroke-width:0.6;stroke-linecap:butt;stroke-linejoin:round;stroke-miterlimit:10;stroke-dasharray:none;stroke-opacity:1"
         d="m 57.6,53.904876 h -2" /></g><g
       id="g636"><g
         clip-path="url(#clipPath642)"
         id="g638"><path
           id="path644"
           style="fill:none;stroke:#d3d3d3;stroke-width:0.25;stroke-linecap:butt;stroke-linejoin:round;stroke-miterlimit:10;stroke-dasharray:1.6, 0.4, 0.25, 0.4;stroke-dashoffset:0;stroke-opacity:1"
           d="M 57.6,64.815021 H 414.72" /></g></g><g
       id="g646"><path
         id="path648"
         style="fill:#000000;fill-opacity:1;fill-rule:nonzero;stroke:#000000;stroke-width:0.6;stroke-linecap:butt;stroke-linejoin:round;stroke-miterlimit:10;stroke-dasharray:none;stroke-opacity:1"
         d="m 57.6,64.815021 h -2" /></g><g
       id="g650"><g
         clip-path="url(#clipPath656)"
         id="g652"><path
           id="path658"
           style="fill:none;stroke:#d3d3d3;stroke-width:0.25;stroke-linecap:butt;stroke-linejoin:round;stroke-miterlimit:10;stroke-dasharray:1.6, 0.4, 0.25, 0.4;stroke-dashoffset:0;stroke-opacity:1"
           d="M 57.6,86.635311 H 414.72" /></g></g><g
       id="g660"><path
         id="path662"
         style="fill:#000000;fill-opacity:1;fill-rule:nonzero;stroke:#000000;stroke-width:0.6;stroke-linecap:butt;stroke-linejoin:round;stroke-miterlimit:10;stroke-dasharray:none;stroke-opacity:1"
         d="m 57.6,86.635311 h -2" /></g><g
       id="g664"><g
         clip-path="url(#clipPath670)"
         id="g666"><path
           id="path672"
           style="fill:none;stroke:#d3d3d3;stroke-width:0.25;stroke-linecap:butt;stroke-linejoin:round;stroke-miterlimit:10;stroke-dasharray:1.6, 0.4, 0.25, 0.4;stroke-dashoffset:0;stroke-opacity:1"
           d="M 57.6,97.545457 H 414.72" /></g></g><g
       id="g674"><path
         id="path676"
         style="fill:#000000;fill-opacity:1;fill-rule:nonzero;stroke:#000000;stroke-width:0.6;stroke-linecap:butt;stroke-linejoin:round;stroke-miterlimit:10;stroke-dasharray:none;stroke-opacity:1"
         d="m 57.6,97.545457 h -2" /></g><g
       id="g678"><g
         clip-path="url(#clipPath684)"
         id="g680"><path
           id="path686"
           style="fill:none;stroke:#d3d3d3;stroke-width:0.25;stroke-linecap:butt;stroke-linejoin:round;stroke-miterlimit:10;stroke-dasharray:1.6, 0.4, 0.25, 0.4;stroke-dashoffset:0;stroke-opacity:1"
           d="M 57.6,108.4556 H 414.72" /></g></g><g
       id="g688"><path
         id="path690"
         style="fill:#000000;fill-opacity:1;fill-rule:nonzero;stroke:#000000;stroke-width:0.6;stroke-linecap:butt;stroke-linejoin:round;stroke-miterlimit:10;stroke-dasharray:none;stroke-opacity:1"
         d="m 57.6,108.4556 h -2" /></g><g
       id="g692"><g
         clip-path="url(#clipPath698)"
         id="g694"><path
           id="path700"
           style="fill:none;stroke:#d3d3d3;stroke-width:0.25;stroke-linecap:butt;stroke-linejoin:round;stroke-miterlimit:10;stroke-dasharray:1.6, 0.4, 0.25, 0.4;stroke-dashoffset:0;stroke-opacity:1"
           d="M 57.6,119.36575 H 414.72" /></g></g><g
       id="g702"><path
         id="path704"
         style="fill:#000000;fill-opacity:1;fill-rule:nonzero;stroke:#000000;stroke-width:0.6;stroke-linecap:butt;stroke-linejoin:round;stroke-miterlimit:10;stroke-dasharray:none;stroke-opacity:1"
         d="m 57.6,119.36575 h -2" /></g><g
       id="g706"><g
         clip-path="url(#clipPath712)"
         id="g708"><path
           id="path714"
           style="fill:none;stroke:#d3d3d3;stroke-width:0.25;stroke-linecap:butt;stroke-linejoin:round;stroke-miterlimit:10;stroke-dasharray:1.6, 0.4, 0.25, 0.4;stroke-dashoffset:0;stroke-opacity:1"
           d="M 57.6,141.18604 H 414.72" /></g></g><g
       id="g716"><path
         id="path718"
         style="fill:#000000;fill-opacity:1;fill-rule:nonzero;stroke:#000000;stroke-width:0.6;stroke-linecap:butt;stroke-linejoin:round;stroke-miterlimit:10;stroke-dasharray:none;stroke-opacity:1"
         d="m 57.6,141.18604 h -2" /></g><g
       id="g720"><g
         clip-path="url(#clipPath726)"
         id="g722"><path
           id="path728"
           style="fill:none;stroke:#d3d3d3;stroke-width:0.25;stroke-linecap:butt;stroke-linejoin:round;stroke-miterlimit:10;stroke-dasharray:1.6, 0.4, 0.25, 0.4;stroke-dashoffset:0;stroke-opacity:1"
           d="M 57.6,152.09618 H 414.72" /></g></g><g
       id="g730"><path
         id="path732"
         style="fill:#000000;fill-opacity:1;fill-rule:nonzero;stroke:#000000;stroke-width:0.6;stroke-linecap:butt;stroke-linejoin:round;stroke-miterlimit:10;stroke-dasharray:none;stroke-opacity:1"
         d="m 57.6,152.09618 h -2" /></g><g
       id="g734"><g
         clip-path="url(#clipPath740)"
         id="g736"><path
           id="path742"
           style="fill:none;stroke:#d3d3d3;stroke-width:0.25;stroke-linecap:butt;stroke-linejoin:round;stroke-miterlimit:10;stroke-dasharray:1.6, 0.4, 0.25, 0.4;stroke-dashoffset:0;stroke-opacity:1"
           d="M 57.6,163.00633 H 414.72" /></g></g><g
       id="g744"><path
         id="path746"
         style="fill:#000000;fill-opacity:1;fill-rule:nonzero;stroke:#000000;stroke-width:0.6;stroke-linecap:butt;stroke-linejoin:round;stroke-miterlimit:10;stroke-dasharray:none;stroke-opacity:1"
         d="m 57.6,163.00633 h -2" /></g><g
       id="g748"><g
         clip-path="url(#clipPath754)"
         id="g750"><path
           id="path756"
           style="fill:none;stroke:#d3d3d3;stroke-width:0.25;stroke-linecap:butt;stroke-linejoin:round;stroke-miterlimit:10;stroke-dasharray:1.6, 0.4, 0.25, 0.4;stroke-dashoffset:0;stroke-opacity:1"
           d="M 57.6,173.91647 H 414.72" /></g></g><g
       id="g758"><path
         id="path760"
         style="fill:#000000;fill-opacity:1;fill-rule:nonzero;stroke:#000000;stroke-width:0.6;stroke-linecap:butt;stroke-linejoin:round;stroke-miterlimit:10;stroke-dasharray:none;stroke-opacity:1"
         d="m 57.6,173.91647 h -2" /></g><g
       id="g762"><g
         clip-path="url(#clipPath768)"
         id="g764"><path
           id="path770"
           style="fill:none;stroke:#d3d3d3;stroke-width:0.25;stroke-linecap:butt;stroke-linejoin:round;stroke-miterlimit:10;stroke-dasharray:1.6, 0.4, 0.25, 0.4;stroke-dashoffset:0;stroke-opacity:1"
           d="M 57.6,195.73676 H 414.72" /></g></g><g
       id="g772"><path
         id="path774"
         style="fill:#000000;fill-opacity:1;fill-rule:nonzero;stroke:#000000;stroke-width:0.6;stroke-linecap:butt;stroke-linejoin:round;stroke-miterlimit:10;stroke-dasharray:none;stroke-opacity:1"
         d="m 57.6,195.73676 h -2" /></g><g
       id="g776"><g
         clip-path="url(#clipPath782)"
         id="g778"><path
           id="path784"
           style="fill:none;stroke:#d3d3d3;stroke-width:0.25;stroke-linecap:butt;stroke-linejoin:round;stroke-miterlimit:10;stroke-dasharray:1.6, 0.4, 0.25, 0.4;stroke-dashoffset:0;stroke-opacity:1"
           d="M 57.6,206.64691 H 414.72" /></g></g><g
       id="g786"><path
         id="path788"
         style="fill:#000000;fill-opacity:1;fill-rule:nonzero;stroke:#000000;stroke-width:0.6;stroke-linecap:butt;stroke-linejoin:round;stroke-miterlimit:10;stroke-dasharray:none;stroke-opacity:1"
         d="m 57.6,206.64691 h -2" /></g><g
       id="g790"><g
         clip-path="url(#clipPath796)"
         id="g792"><path
           id="path798"
           style="fill:none;stroke:#d3d3d3;stroke-width:0.25;stroke-linecap:butt;stroke-linejoin:round;stroke-miterlimit:10;stroke-dasharray:1.6, 0.4, 0.25, 0.4;stroke-dashoffset:0;stroke-opacity:1"
           d="M 57.6,217.55705 H 414.72" /></g></g><g
       id="g800"><path
         id="path802"
         style="fill:#000000;fill-opacity:1;fill-rule:nonzero;stroke:#000000;stroke-width:0.6;stroke-linecap:butt;stroke-linejoin:round;stroke-miterlimit:10;stroke-dasharray:none;stroke-opacity:1"
         d="m 57.6,217.55705 h -2" /></g><g
       id="g804"><g
         clip-path="url(#clipPath810)"
         id="g806"><path
           id="path812"
           style="fill:none;stroke:#d3d3d3;stroke-width:0.25;stroke-linecap:butt;stroke-linejoin:round;stroke-miterlimit:10;stroke-dasharray:1.6, 0.4, 0.25, 0.4;stroke-dashoffset:0;stroke-opacity:1"
           d="M 57.6,228.4672 H 414.72" /></g></g><g
       id="g814"><path
         id="path816"
         style="fill:#000000;fill-opacity:1;fill-rule:nonzero;stroke:#000000;stroke-width:0.6;stroke-linecap:butt;stroke-linejoin:round;stroke-miterlimit:10;stroke-dasharray:none;stroke-opacity:1"
         d="m 57.6,228.4672 h -2" /></g><g
       id="g818"><g
         clip-path="url(#clipPath824)"
         id="g820"><path
           id="path826"
           style="fill:none;stroke:#d3d3d3;stroke-width:0.25;stroke-linecap:butt;stroke-linejoin:round;stroke-miterlimit:10;stroke-dasharray:1.6, 0.4, 0.25, 0.4;stroke-dashoffset:0;stroke-opacity:1"
           d="M 57.6,250.28749 H 414.72" /></g></g><g
       id="g828"><path
         id="path830"
         style="fill:#000000;fill-opacity:1;fill-rule:nonzero;stroke:#000000;stroke-width:0.6;stroke-linecap:butt;stroke-linejoin:round;stroke-miterlimit:10;stroke-dasharray:none;stroke-opacity:1"
         d="m 57.6,250.28749 h -2" /></g><g
       id="g832"><g
         clip-path="url(#clipPath838)"
         id="g834"><path
           id="path840"
           style="fill:none;stroke:#d3d3d3;stroke-width:0.25;stroke-linecap:butt;stroke-linejoin:round;stroke-miterlimit:10;stroke-dasharray:1.6, 0.4, 0.25, 0.4;stroke-dashoffset:0;stroke-opacity:1"
           d="M 57.6,261.19763 H 414.72" /></g></g><g
       id="g842"><path
         id="path844"
         style="fill:#000000;fill-opacity:1;fill-rule:nonzero;stroke:#000000;stroke-width:0.6;stroke-linecap:butt;stroke-linejoin:round;stroke-miterlimit:10;stroke-dasharray:none;stroke-opacity:1"
         d="m 57.6,261.19763 h -2" /></g><g
       id="g846"><g
         clip-path="url(#clipPath852)"
         id="g848"><path
           id="path854"
           style="fill:none;stroke:#d3d3d3;stroke-width:0.25;stroke-linecap:butt;stroke-linejoin:round;stroke-miterlimit:10;stroke-dasharray:1.6, 0.4, 0.25, 0.4;stroke-dashoffset:0;stroke-opacity:1"
           d="M 57.6,272.10778 H 414.72" /></g></g><g
       id="g856"><path
         id="path858"
         style="fill:#000000;fill-opacity:1;fill-rule:nonzero;stroke:#000000;stroke-width:0.6;stroke-linecap:butt;stroke-linejoin:round;stroke-miterlimit:10;stroke-dasharray:none;stroke-opacity:1"
         d="m 57.6,272.10778 h -2" /></g><g
       id="g860"><g
         clip-path="url(#clipPath866)"
         id="g862"><path
           id="path868"
           style="fill:none;stroke:#d3d3d3;stroke-width:0.25;stroke-linecap:butt;stroke-linejoin:round;stroke-miterlimit:10;stroke-dasharray:1.6, 0.4, 0.25, 0.4;stroke-dashoffset:0;stroke-opacity:1"
           d="M 57.6,283.01792 H 414.72" /></g></g><g
       id="g870"><path
         id="path872"
         style="fill:#000000;fill-opacity:1;fill-rule:nonzero;stroke:#000000;stroke-width:0.6;stroke-linecap:butt;stroke-linejoin:round;stroke-miterlimit:10;stroke-dasharray:none;stroke-opacity:1"
         d="m 57.6,283.01792 h -2" /><g
         transform="rotate(90,-57.76725,89.570375)"
         id="g874"><text
           id="text878"
           style="font-variant:normal;font-weight:normal;font-size:10px;font-family:'DejaVu Sans Mono for Powerline';-inkscape-font-specification:DejaVuSans;writing-mode:lr-tb;fill:#000000;fill-opacity:1;fill-rule:nonzero;stroke:none"
           transform="scale(1,-1)"><tspan
             id="tspan876"
             y="0"
             x="0 6.9499998 15.58 21.93 29.629999 32.810001 43.544922">RMSD ()</tspan></text><g
           transform="matrix(0.01,0,0,0.01,36.704102,0)"
           id="g880"><g
             id="g882"><g
               clip-path="url(#clipPath888)"
               id="g884"><g
                 id="g890"><path
                   id="path892"
                   style="fill:#000000;fill-opacity:1;fill-rule:nonzero;stroke:none"
                   d="m 416,794 c 0,20 -8,38 -22,52 -14,14 -32,22 -52,22 -21,0 -39,-7 -53,-21 -14,-14 -21,-32 -21,-53 0,-21 7,-39 21,-53 14,-14 32,-21 53,-21 20,0 38,7 52,21 14,14 22,32 22,53 M 342,632 209,269 H 475 L 342,632 m -74,50 c -20,13 -35,29 -45,48 -10,18 -15,40 -15,64 0,37 13,69 39,95 26,26 57,39 95,39 36,0 68,-13 94,-39 26,-26 40,-58 40,-95 0,-23 -6,-44 -16,-63 -10,-20 -25,-36 -44,-49 L 676,0 H 573 L 507,187 H 178 L 112,0 H 8 l 260,682" /></g></g></g></g></g></g><g
       id="g894"><g
         clip-path="url(#clipPath900)"
         id="g896"><path
           id="path902"
           style="fill:none;stroke:#1f77b4;stroke-width:0.5;stroke-linecap:square;stroke-linejoin:round;stroke-miterlimit:10;stroke-dasharray:none;stroke-opacity:1"
           d="m 73.832727,264.57146 0.541091,4.80113 0.216437,0.27226 0.108218,-0.20166 0.108218,-0.71583 0.108218,1.88506 0.108218,-1.0206 0.973964,6.49056 0.108218,-1.70557 0.108218,0.64958 0.108218,-0.62865 0.216437,2.11455 0.108218,-0.0413 0.108218,-0.37365 0.216437,-2.42381 0.108218,0.47469 0.108218,-0.14644 0.108218,0.50133 0.108218,-1.62287 0.108218,0.3428 0.108219,-0.49327 0.216436,0.86112 0.108218,1.66656 0.324655,-2.79555 0.108218,0.5171 0.108218,-0.41438 0.216436,-1.46337 0.108219,0.38336 0.216436,-1.17861 0.108218,-0.12243 0.108218,0.41367 0.108219,-0.39231 0.108218,0.0713 0.108218,0.2252 0.108218,0.63299 0.216436,2.52456 0.108219,0.23764 0.108218,2.38845 0.108218,-0.0525 0.108218,-1.01286 0.216437,2.4566 0.108218,-0.40593 0.216436,0.75703 0.108218,-0.6579 0.108218,-1.58063 0.108219,0.12589 0.108218,0.58683 0.108218,-0.64217 0.216436,1.00375 0.108219,-0.48628 0.108218,-1.58635 0.108218,0.66786 0.216436,-1.21645 0.216437,1.18482 0.108218,0.12723 0.108218,-0.42936 0.216436,1.97699 0.108219,-0.35463 0.108218,0.0578 0.216436,-0.6771 0.108218,0.0646 0.108218,-1.64603 0.108219,0.40028 0.108218,1.10852 0.108218,-0.10476 0.216436,0.64779 0.108219,-0.11726 0.108218,-0.39573 0.108218,-2.25834 0.216436,1.42836 0.108218,0.34211 0.324655,2.40839 0.108218,-0.50858 0.108218,0.18604 0.216437,3.11732 0.432872,-2.58923 0.324655,-3.91759 0.108218,-0.50834 0.108218,1.26082 0.108219,-0.11926 0.324654,-2.56158 0.108218,-0.4831 0.108218,0.79251 0.216437,-2.5889 0.216436,0.23822 0.432873,4.80113 0.108218,0.87762 0.216436,-1.64103 0.108219,0.86303 0.108218,-0.48369 0.108218,0.87625 0.108218,-0.33211 0.108218,-1.14163 0.108219,0.0216 0.108218,0.15264 0.108218,0.54188 0.216436,2.00027 0.216437,0.0105 0.108218,0.28292 0.216436,-1.46453 0.108218,0.96054 0.108219,-0.10065 0.108218,-1.70679 0.108218,0.89067 0.108218,-0.10705 0.108218,-0.33286 0.108218,-1.10839 0.108219,0.20637 0.216436,2.14121 0.108218,0.23677 0.216437,-1.02624 0.216436,2.005 0.108218,-0.12757 0.108218,0.48536 0.108218,1.6251 0.108219,-0.60785 0.216436,1.15176 0.108218,0.0775 0.108218,-0.93593 0.324655,3.6702 0.108218,-0.40912 0.216436,0.57893 0.216437,2.09601 0.108218,-0.45533 0.108218,-1.12894 0.108218,1.34476 0.541091,-3.3831 0.108218,2.3171 0.108219,-0.39406 0.649309,7.22187 0.108218,-0.8423 0.108218,0.40477 0.324655,-1.45098 0.216436,-1.56004 0.216436,2.60767 0.108219,-0.42568 0.216436,2.1999 0.108218,-1.37545 0.108218,0.53688 0.324655,-4.17943 0.108218,0.58359 0.108218,-0.75956 0.108218,0.17192 0.216437,-1.74325 0.108218,-0.20104 0.216436,-1.81382 0.108218,0.77791 0.216437,-0.83212 0.108218,-0.23828 0.432873,-3.34839 0.216436,1.20807 0.216436,0.10393 0.108219,-0.57876 0.108218,-1.86333 0.108218,0.14983 0.108218,-0.10852 0.108218,-0.81819 0.108219,0.13139 0.216436,2.63536 0.216439,1.84972 0.10821,0.35322 0.10822,-0.37485 0.10822,1.12949 0.21644,-0.77688 0.10822,-0.13695 0.10822,0.0619 0.10821,-2.0142 0.10822,0.20665 0.10822,0.75924 0.10822,-1.24954 0.10821,0.81514 0.21644,-0.84314 0.21644,0.66642 0.32465,-4.61115 0.10822,-0.27774 0.10822,-0.81245 0.10822,0.68953 0.21643,-2.13944 0.21644,1.00342 0.10822,0.10804 0.10822,0.41915 0.21643,-2.56093 0.10822,1.2487 0.32466,-4.88305 0.10821,0.65848 0.32466,-3.84383 0.10822,-0.53415 0.10822,0.21768 0.10821,0.65606 0.10822,-0.56858 0.10822,0.13344 0.10822,-1.22008 0.21643,2.52142 0.21644,-1.92823 0.10822,0.47616 0.10822,1.38666 0.10822,-0.67354 0.21643,1.60581 0.10822,-1.56477 0.10822,0.95486 0.21643,-0.91937 0.32466,3.15171 0.10822,-0.52793 0.10822,0.61534 0.21643,-2.53235 0.10822,0.50762 0.21643,-0.0133 0.32466,2.75696 0.10822,-0.2663 0.21644,2.41208 0.32465,1.55335 0.10822,0.30232 0.21643,-0.94299 0.21644,2.69822 0.10822,-0.28793 0.32465,2.59529 0.10822,-0.88731 0.10822,0.74387 0.21643,-0.0963 0.43288,-3.15594 0.54109,7.80173 0.10822,-0.069 0.10822,-0.72544 0.10821,0.82212 0.21644,-0.83849 0.21644,1.00058 0.21643,-0.11818 0.10822,-0.23632 0.21644,-2.21977 0.10821,0.12899 0.10822,-0.69115 0.10822,0.1527 0.10822,-0.0524 0.21644,-1.48357 0.21643,-4.0351 0.10822,-0.0565 0.10822,0.66441 0.10822,-0.11198 0.10822,0.80776 0.10821,-0.68037 0.10822,0.76793 0.21644,-0.41113 0.10822,1.96824 0.10821,-0.52109 0.10822,2.20397 0.21644,-0.50283 0.32465,-3.66424 0.10822,-0.46345 0.32466,1.61593 0.10822,-1.11414 0.10821,0.0312 0.32466,-1.13042 0.10822,-0.64426 0.21643,1.38676 0.21644,0.27713 0.10822,-0.43582 0.10822,-1.76254 0.21643,1.55084 0.10822,0.51506 0.10822,-0.44605 0.21643,-2.32215 0.10822,1.58284 0.10822,-1.56928 0.10822,0.12163 0.10822,-0.35968 0.10822,0.85766 0.10821,-0.308 0.10822,0.0795 0.10822,0.32131 0.21643,1.11178 0.10822,-0.78046 0.21644,-2.35419 0.10822,1.1815 0.10822,-0.26382 0.32465,1.64904 0.32465,0.28876 0.10822,-1.13927 0.10822,0.79017 0.21644,-1.37161 0.10822,-0.16553 0.10821,0.73405 0.43288,-1.57281 0.21643,1.79992 0.21644,-1.97302 0.43287,-2.3753 0.10822,0.11316 0.32466,-1.12169 0.10821,1.50939 0.10822,-1.11971 0.21644,1.65416 0.32465,3.16682 0.10822,-0.62779 0.21644,1.82559 0.10822,-1.09712 0.10821,0.16165 0.21644,-2.30455 0.10822,-0.32436 0.21644,-1.69966 0.10821,-0.0488 0.10822,0.70416 0.10822,-0.67185 0.32465,2.23658 0.10822,-0.39818 0.21644,0.84518 0.10822,-0.84051 0.6493,5.81396 0.43288,-3.13592 0.10822,0.72465 0.21643,1.89041 0.10822,-1.22601 0.10822,0.10336 0.21644,-1.73982 0.43287,6.91384 0.21644,-0.55374 0.10821,1.32867 0.21644,-0.1444 0.10822,0.46076 0.21643,-1.83621 0.10822,0.0469 0.32466,2.9393 0.10821,-0.53489 0.10822,0.15001 0.10822,0.58468 0.10822,1.3902 0.21643,-1.2786 0.10822,0.45521 0.10822,-0.0804 0.21644,-1.08422 0.43287,2.01746 0.10822,-0.6214 0.21643,-2.94193 0.10822,-0.25279 0.21644,0.86935 0.10822,1.23653 0.10822,-0.15339 0.21643,1.19752 0.10822,-0.18054 0.10822,-1.09667 0.10822,0.22093 0.32465,1.15529 0.10822,-0.0265 0.43287,-2.92578 0.10822,2.37055 0.10822,-0.0154 0.21643,-0.82856 0.10822,0.6231 0.54109,-3.2426 0.21644,-0.034 0.10822,0.0158 0.10822,-0.67789 0.10821,0.63525 0.5411,-1.33343 0.21643,-2.85566 0.10822,-0.18702 0.10822,0.99427 0.32465,-3.65324 0.10822,0.36992 0.10822,-0.0138 0.21644,0.76037 0.75752,10.42145 0.10822,-0.14122 0.10822,0.79602 0.54109,-2.67032 0.32466,2.79049 0.10821,-0.23371 0.21644,5.33873 0.10822,-0.25222 0.10822,0.17981 0.10821,-0.0847 0.32466,3.20656 0.32465,-1.1096 0.10822,0.265 0.32466,-3.04849 0.21643,1.30917 0.10822,0.0131 0.10822,-0.38874 0.32465,-3.31065 0.10822,0.21379 0.21644,-2.51645 0.10822,1.50123 0.10821,-1.1973 0.10822,0.97773 0.10822,-0.52092 0.21644,-1.50843 0.21643,0.12712 0.21644,-1.72447 0.21644,1.61928 0.21643,-1.68085 0.43287,-5.4059 0.21644,2.83904 0.10822,-0.0343 0.21644,-1.69428 0.21643,1.58471 0.10822,0.36131 0.21644,1.07785 0.10821,0.0252 0.32466,-2.10789 0.10822,0.31387 0.10822,-0.5553 0.21643,2.11413 0.10822,0.31 0.21644,-0.8512 0.21643,0.23383 0.10822,0.70751 0.21644,-0.90098 0.10822,0.0435 0.10821,0.89031 0.21644,-4.6546 0.21644,-0.56736 0.10821,0.21929 0.10822,-0.6733 0.21644,-1.98756 0.21644,-0.8555 0.10821,0.61521 0.5411,-2.11438 0.21643,0.72604 0.21644,0.34243 0.10822,-1.51939 0.10821,0.11224 0.10822,-0.69962 0.10822,0.60788 0.10822,-0.94471 0.10822,0.38432 0.32465,3.80607 0.10822,-0.69784 0.21644,1.75467 0.10821,-0.11159 0.10822,0.10626 0.21644,0.68461 0.10822,-1.63029 0.10821,0.19649 0.10822,2.19813 0.21644,-0.96157 0.10822,0.004 0.10822,-0.52298 0.10821,-2.63162 0.10822,0.48592 0.10822,-0.3767 0.10822,-0.89428 0.10822,1.28905 0.21643,-3.62799 0.10822,-0.29859 0.10822,-0.67638 0.32465,-3.77771 0.10822,0.89564 0.21644,-1.35114 0.10822,-1.78975 0.21643,1.37511 0.10822,-1.20614 0.21644,1.20152 0.10822,-0.8558 0.10821,1.06334 0.43288,-4.93817 0.10822,1.09726 0.32465,-2.51929 0.10822,0.62996 0.10822,-0.57669 0.10821,2.28842 0.21644,-1.12487 0.10822,-0.10768 0.10822,1.24645 0.10821,-0.21447 0.10822,0.0769 0.21644,0.73778 0.10822,1.34464 0.21643,-1.54058 0.21644,1.87607 0.10822,1.43879 0.32465,-1.86421 0.10822,0.10135 0.64931,7.67578 0.10822,-0.13474 0.10822,-1.10483 0.21643,1.36047 0.10822,0.0431 0.10822,0.78766 0.10822,-0.29127 0.10822,0.14963 0.10821,0.40335 0.10822,-0.67756 0.10822,1.68086 0.10822,-1.3692 0.10822,0.88478 0.32465,-1.40157 0.10822,-1.19542 0.10822,0.89115 0.21643,-0.45582 0.32466,5.21462 0.10822,-0.6287 0.10822,-0.53481 0.10821,1.10773 0.10822,-0.46763 0.21644,1.76212 0.10822,-0.6103 0.10821,1.17386 0.10822,-0.2272 0.10822,0.47073 0.10822,-0.065 0.10822,1.05572 0.21643,-0.30759 0.75753,7.38212 0.10822,-0.974 0.21643,1.00072 0.10822,0.83908 0.21644,3.74529 0.10822,-0.002 0.10822,0.25525 0.10821,-0.18231 0.10822,-0.41512 0.64931,-7.37045 0.10822,-0.18693 0.10822,0.81339 0.10822,-0.58106 0.10821,0.34394 0.32466,3.72564 0.10822,-1.57903 0.10821,0.28718 0.10822,-0.4941 0.32466,-2.5249 0.10822,0.22775 0.32465,-3.05929 0.32465,-5.57126 0.10822,0.55638 0.10822,-0.49027 0.54109,4.3103 0.10822,-1.32819 0.10822,0.20112 0.21643,1.13442 0.32466,-2.85165 0.21644,1.70989 0.21643,0.32741 0.32466,1.74657 0.10821,-0.058 0.10822,-1.44075 0.21644,0.73966 0.21644,-2.12077 0.10821,0.20249 0.21644,-1.50633 0.10822,0.95609 0.21644,-3.06532 0.43287,3.65478 0.21643,-2.75825 0.21644,1.54355 0.32465,-1.71482 0.21644,-3.32097 0.32466,-4.77615 0.10821,-0.28458 0.10822,-0.83798 0.10822,1.3307 0.21644,-2.8542 0.10821,1.0108 0.21644,3.95628 0.97396,7.05511 0.10822,-0.86887 0.32466,-5.83646 0.54109,-5.26839 0.32465,1.07607 0.21644,-1.23225 0.10822,1.5169 0.10822,-0.4042 0.10821,0.74044 0.10822,-0.25412 0.10822,-0.85557 0.21644,2.15708 0.10821,-0.17148 0.21644,-0.81258 0.43287,-6.34405 0.21644,-1.6025 0.10822,-1.7566 0.10822,0.14025 0.10821,-0.13741 0.10822,-1.98327 0.21644,1.91689 0.21644,-1.4534 0.54109,8.62859 0.10821,-0.50679 0.10822,0.44799 0.21644,1.60144 0.10822,-0.39057 0.21643,-1.30065 0.10822,-0.14124 0.10822,-0.47286 0.21644,-2.29178 0.10821,0.35778 0.21644,1.14621 0.10822,-1.69143 0.21644,0.82213 0.10821,0.0685 0.21644,-1.32345 0.32465,-0.65987 0.10822,0.0253 0.10822,-0.49294 0.10822,-1.908 0.10822,0.58483 0.10822,-0.26698 0.10821,0.54668 0.10822,-1.10315 0.21644,3.00624 0.10822,-0.1797 0.10821,-0.97471 0.10822,0.31736 0.10822,-1.1198 0.10822,0.16562 0.10822,-0.28034 0.10822,1.39099 0.10821,-0.38796 0.10822,-1.00278 0.10822,1.68002 0.21644,-2.38693 0.32465,0.645 0.54109,2.80177 0.10822,-1.64667 0.10822,0.7315 0.21643,-0.7601 0.10822,-0.0561 0.21644,1.73919 0.21644,0.94599 0.10821,0.16861 0.10822,0.92778 0.10822,-0.99718 0.32466,4.36792 0.21643,0.75813 0.32466,-2.49922 0.32465,2.46508 0.21644,-1.03971 0.21643,-3.704 0.10822,1.00462 0.10822,2.28646 0.10822,-0.95695 0.21643,1.19404 0.21644,-1.33206 0.10822,-0.4212 0.10822,1.66633 0.10821,-1.75852 0.21644,1.77972 0.10822,-0.23536 0.10822,0.0426 0.21643,2.08956 0.10822,-1.47457 0.10822,0.38433 0.10822,-0.03 0.10822,0.26859 0.43287,-3.1131 0.10822,-0.45099 0.10822,0.11326 0.21643,-1.66822 0.10822,-0.002 0.10822,-1.76795 0.10822,0.17865 0.32465,-3.95616 0.21644,-1.72607 0.10822,-0.44439 0.21643,1.72299 0.10822,-0.0122 0.21644,0.86034 0.10821,-0.0975 0.43288,3.58132 0.10822,-0.50248 0.10821,0.56052 0.10822,-1.20352 0.10822,0.51932 0.10822,-0.98502 0.21643,1.70408 0.10822,0.0256 0.10822,-1.03665 0.10822,0.46323 0.21644,2.2158 0.10821,-0.59029 0.21644,1.69967 0.10822,-0.48836 0.10822,0.0904 0.10821,0.70119 0.21644,-1.30787 0.32466,2.35951 0.21643,-2.52252 0.10822,-3.47821 0.10822,0.34046 0.10822,-0.31727 0.10822,0.0903 0.10821,0.46932 0.10822,-0.27372 0.32466,-3.1356 0.10821,0.28217 0.21644,1.36094 0.10822,0.44185 0.10822,-0.72936 0.21643,-3.1327 0.21644,-1.54129 0.10822,0.0865 0.10822,-0.19887 0.10821,-0.48764 0.5411,-4.3672 0.21643,-1.61837 0.21644,-1.43997 0.10822,0.0248 0.43287,-5.95247 0.10822,0.52431 0.10822,-0.0615 0.21643,-1.37722 0.54109,6.3958 0.43287,4.34722 0.10822,-0.33451 0.21644,3.49307 0.32465,-1.12469 0.10822,-1.01717 0.10822,1.28565 0.10822,-0.51161 0.10822,0.32254 0.10822,-1.01124 0.10821,0.0597 0.10822,0.30021 0.10822,-0.15836 0.10822,1.63628 0.10822,-0.25173 0.10821,0.33507 0.10822,0.78895 0.21644,3.34592 0.32465,-3.2149 0.10822,-0.4015 0.10822,1.51471 0.10822,-1.55081 0.10822,0.17418 0.10821,-0.1539 0.10822,0.22325 0.10822,-1.15188 0.10822,0.29073 0.21643,-2.31068 0.21644,-1.59663 0.10822,0.68408 0.10822,-1.04503 0.10822,2.0992 0.21643,-1.15294 0.10822,-0.0696 0.10822,0.22194 0.10822,-0.54028 0.10821,0.0481 0.10822,0.21316 0.10822,-0.56171 0.21644,-2.08011 0.10822,-0.52477 0.10821,0.52163 0.10822,1.71941 0.21644,-2.236 0.10822,0.69494 0.10821,-0.18284 0.21644,1.81872 0.32466,-3.86706 0.21643,0.22263 0.43288,-4.60951 0.10821,-1.36229 0.21644,0.75381 0.10822,2.44816 0.21643,-0.94759 0.54109,6.0089 0.10822,0.12813 0.10822,-0.12569 0.21644,1.68294 0.10822,1.78683 0.10821,-0.14735 0.10822,-1.35329 0.21644,0.75252 0.10822,0.0746 0.10821,1.22559 0.10822,-0.7647 0.21644,2.5256 0.10822,0.14053 0.21643,1.6704 0.21644,-1.14353 0.10822,-0.36386 0.21644,-3.32418 0.32465,-1.31222 0.32465,-1.51228 0.21644,-1.34851 0.21644,2.09161 0.21643,-1.92158 0.10822,0.022 0.10822,0.36761 0.10822,-0.15979 0.10822,0.2502 0.10821,-0.37504 0.21644,-1.17467 0.10822,0.21888 0.10822,-0.44976 0.21643,1.63852 0.10822,-0.12489 0.10822,0.36705 0.10822,-0.17667 0.21643,1.77911 0.10822,-0.0942 0.10822,-0.27976 0.10822,-0.7134 0.10822,-1.67459 0.32465,1.43742 0.10822,-0.1735 0.10822,0.21312 0.10822,-0.47662 0.10821,2.14404 0.10822,-0.65178 0.21644,2.44155 0.10822,-0.28756 0.21643,-2.78203 0.10822,0.30683 0.21644,0.46184 0.10822,0.19165 0.10821,0.58996 0.10822,-0.59865 0.10822,1.32237 0.10822,-1.47567 0.10822,0.34696 0.10822,-0.42018 0.21643,-2.78931 0.43287,-5.56808 0.10822,-0.53803 0.75753,-8.09872 0.10822,0.82977 0.21643,-0.55401 0.21644,0.31197 0.21644,2.98558 0.43287,-2.46928 0.10822,0.57778 0.10822,2.29474 0.21643,-0.45344 0.21644,0.99458 0.21643,-1.52384 0.21644,0.30201 0.21644,3.00336 0.21643,-1.81127 0.10822,0.77977 0.21644,1.74043 0.10822,-0.31317 0.21643,0.6591 0.21644,-0.97556 0.10822,-1.30597 0.10822,0.30124 0.21643,2.30681 0.10822,-1.26763 0.32466,4.43669 0.10821,-0.20502 0.54109,-4.47544 0.10822,0.767 0.21644,-1.64523 0.32465,1.75842 0.10822,0.11007 0.10822,0.41947 0.10822,-1.62102 0.21643,0.54987 0.10822,1.07861 0.10822,-0.62582 0.10822,0.28722 0.32465,-1.35807 0.10822,0.82966 0.10822,-0.0239 0.10822,-0.59259 0.32465,-3.89993 0.10822,0.52292 0.10822,1.08899 0.32465,-0.99091 0.10822,-0.38379 0.21644,-2.25523 0.21643,0.65326 0.32466,-3.2672 0.10822,1.08999 0.10821,-0.54528 0.10822,0.20007 0.32466,1.87615 0.10822,-0.17666 0.32465,1.23839 0.21644,-0.0117 0.10822,1.23992 0.10821,-0.0752 0.10822,0.12229 0.21644,0.57178 0.21643,-0.93234 0.10822,0.68312 0.10822,-0.34485 0.21644,-1.82436 0.10821,1.82585 0.10822,-0.6204 0.10822,-2.11252 0.21644,2.05898 0.43287,-5.27627 0.21644,0.65341 0.21643,-2.30635 0.21644,0.52011 0.10822,-0.21463 0.10822,-1.40637 0.21643,2.70442 0.10822,-0.36789 0.10822,0.11257 0.10822,0.54602 0.10822,-0.16326 0.21643,3.11424 0.10822,-0.60561 0.10822,0.006 0.10822,-0.6151 0.10821,0.15491 0.21644,-1.40124 0.10822,-0.27772 0.43287,-2.11995 0.10822,-0.31574 0.10822,-1.61598 0.10822,0.63452 0.54109,-8.15403 0.10821,-0.87202 0.10822,0.0958 0.10822,0.4927 0.21644,-2.27511 0.10822,0.14867 0.10821,0.68149 0.21644,-1.35805 0.10822,0.78108 0.10822,-0.2315 0.21643,0.69979 0.21644,0.71691 0.10822,-0.95132 0.10822,0.96594 0.10821,2.5081 0.21644,-1.45843 0.32465,4.3503 0.32466,1.13426 0.43287,-3.52732 0.21644,-3.42069 0.10822,-0.0699 0.21643,-2.58505 0.43288,-3.75529 0.10821,0.55009 0.21644,-0.86703 0.10822,-0.0708 0.21643,3.4901 0.10822,-0.27752 0.10822,0.15161 0.32466,-2.59845 0.10821,0.90455 0.21644,-1.9042 0.21644,-3.80015 0.10821,0.16488 0.10822,0.49881 0.10822,-0.47863 0.32466,2.03944 0.10821,-0.0262 0.10822,-0.14331 0.10822,-0.73083 0.10822,-2.85751 0.21643,0.71701 0.10822,-0.10883 0.10822,0.69477 0.10822,-0.61003 0.21644,-1.99464 0.32465,2.45805 0.10822,-0.41617 0.10822,0.44055 0.10821,-0.75237 0.10822,0.48499 0.10822,-0.23375 0.21644,-1.77788 0.21643,-2.85636 0.10822,0.0508 0.10822,-0.50478 0.10822,0.18242 0.43287,-5.24284 0.21644,0.55082 0.21643,-2.20175 0.10822,-0.19675 0.10822,0.51311 0.10822,-0.48934 0.43287,2.40013 0.21644,-4.14766 0.21643,1.3488 0.21644,0.19744 0.21644,-1.29118 0.21643,2.37495 0.10822,0.7697 0.43287,-3.47282 0.10822,0.47283 0.54109,-3.1246 0.32466,-4.37224 0.10822,0.0451 0.21643,-2.0536 0.10822,0.12225 0.32465,-1.07478 0.43288,-5.01469 0.10822,-1.34676 0.10821,0.23461 0.10822,-0.0406 0.21644,-0.86994 0.10822,0.5441 0.10821,-2.33479 0.10822,0.44108 0.32466,-3.39685 0.10822,0.44036 0.10821,-0.69665 0.21644,1.03177 0.54109,-3.61379 0.10822,0.0454 0.10822,-0.66346 0.21643,-2.9448 0.21644,1.73404 0.21644,1.15123 0.21643,-1.23652 0.10822,0.1087 0.32466,-2.55543 0.21643,-1.57747 0.10822,-0.14436 0.10822,-0.88354 0.21643,2.23866 0.21644,0.70537 0.21644,-1.64912 0.10822,0.50164 0.54109,-1.20803 0.10821,1.52124 0.10822,-0.42302 0.21644,-1.40241 0.43287,3.52996 0.10822,0.17878 0.32465,3.12614 0.21644,-1.07855 0.21644,2.72051 0.10822,-0.60733 0.10821,0.17126 0.21644,-1.47781 0.21644,-0.83212 0.10822,-0.49651 0.21643,1.21154 0.32466,-2.79593 0.21643,-2.84387 0.10822,0.91776 0.10822,0.0259 0.10822,-0.47435 0.10821,0.29217 0.21644,1.12692 0.10822,-0.19718 0.21644,-2.37813 0.10821,0.58366 0.21644,-0.59952 0.10822,-0.12684 0.10822,-1.52226 0.10821,0.0523 0.10822,0.4366 0.10822,-0.35931 0.21644,1.43389 0.32465,-3.28574 0.10822,0.12622 0.32465,-2.13428 0.10822,0.2597 0.21644,-1.84442 0.10822,-0.20461 0.10822,-0.72983 0.43287,1.83683 0.10822,-0.1555 0.10821,-0.55867 0.10822,0.0688 0.10822,-0.84959 0.10822,0.23598 0.10822,-0.28559 0.10822,2.00835 0.21643,-2.07361 0.10822,1.24544 0.10822,-0.53835 0.10822,-1.45483 0.21643,1.07454 0.10822,-0.63895 0.32466,1.1946 0.10821,-0.0206 0.10822,0.46175 0.10822,-0.59429 0.10822,1.1977 0.21643,-1.27087 0.32466,2.15661 0.54109,-3.35104 0.10822,1.11732 0.21643,-0.59119 0.10822,0.14511 0.10822,-0.81817 0.10822,0.22315 0.21644,1.02509 0.10821,-0.45934 0.10822,-2.81931 0.21644,2.24949 0.21643,0.84658 0.10822,-0.94772 0.32466,1.63443 0.21643,-1.66899 0.10822,-0.52446 0.10822,0.72832 0.10822,-1.35187 0.10822,0.0443 0.10821,0.56081 0.43288,5.04893 0.21644,-1.19466 0.43287,6.21486 0.10821,-0.73753 0.10822,2.34184 0.21644,-2.40766 0.10822,-0.43205 0.21643,2.13061 0.10822,-0.34964 0.75753,-7.54469 0.21644,1.93637 0.10821,1.48043 0.21644,-0.89516 0.32465,-1.64538 0.10822,0.39774 0.32466,-3.21455 0.54109,-8.31863 0.21643,1.56488 0.21644,-0.54305 0.10822,0.35127 0.10822,-0.99683 0.21643,-3.04368 0.10822,0.14048 0.21644,-0.52232 0.10822,0.8061 0.10821,-0.42801 0.97397,-14.49669 0.21643,-4.11841 0.10822,-1.05143 0.32466,-6.25454 0.97396,-11.013247 0.10822,0.176332 0.10822,-0.605193 0.10822,0.359451 0.21643,-1.415916 0.43287,-3.303814 0.21644,2.281666 0.10822,-0.178999 0.10822,-0.781664 0.10822,0.07012 0.54109,-8.101075 0.10821,-1.647566 0.10822,0.202578 0.32466,-4.518926 0.43287,-5.513042 0.21644,-2.860401 0.21643,0.862839 0.10822,0.09113 0.10822,-0.08785 0.10822,-1.954608 0.10822,0.80685 0.10822,-0.309165 0.10821,0.479703 0.32466,-2.709046 0.10822,0.662007 0.10821,-0.396827 0.21644,-1.966961 0.10822,-0.953647 0.10822,1.137466 0.10821,-0.541987 0.21644,0.868937 0.10822,-0.245392 0.10822,-1.154369 0.32465,2.369824 0.10822,-0.117982 0.21644,1.878404 0.10821,-0.527261 0.21644,-1.548355 0.10822,-0.42536 0.21643,0.949209 0.10822,-1.794585 0.10822,0.324414 0.21644,-1.609059 0.10822,0.151051 0.10821,-0.104185 0.10822,0.742082 0.10822,-0.02141 0.10822,-0.02111 0.32465,-1.800013 0.10822,1.005478 0.21644,-0.486501 0.10822,-0.162136 0.10821,-0.621816 0.10822,0.117011 0.21644,-0.359259 0.10822,-0.926292 0.43287,0.840956 0.10822,-0.374191 0.10822,0.168362 0.10822,-0.76919 0.54109,3.515083 0.10821,-0.502179 0.21644,0.535418 0.21644,1.273168 0.43287,-0.190879 0.21643,0.913416 0.32466,0.813891 0.21644,-0.630746 0.10821,1.324598 0.10822,-1.833672 0.10822,0.103428 0.10822,-0.860489 0.32465,2.631478 0.10822,-0.402686 0.21644,-1.024591 0.10822,0.410785 0.21643,-1.735125 0.10822,0.244116 0.21644,-0.624698 0.32465,-2.762198 0.10822,0.07927 0.10822,0.398741 0.10822,-0.388813 0.21643,1.6851 0.10822,-0.291747 0.21644,-0.933935 0.10821,-0.147777 0.10822,0.24542 0.10822,-0.177927 0.10822,0.19381 0.10822,-0.245756 0.10822,-0.93448 0.21643,0.36424 0.32466,-1.528593 0.10821,1.21624 0.21644,-1.489569 0.10822,0.190195 0.21644,1.387814 0.10821,-0.27744 0.21644,0.40865 0.21644,1.11056 0.10821,-0.04222 0.10822,-0.379336 0.10822,0.267363 0.54109,-1.001419 0.10822,0.196393 0.10822,-0.202902 0.32465,1.254803 0.10822,0.01395 0.10822,-0.334198 0.21644,2.131168 0.10821,-0.57916 0.10822,0.308865 0.10822,0.837155 0.32466,-1.768354 0.10821,0.20897 0.10822,-0.157385 0.10822,-0.374685 0.10822,0.06203 0.10822,-0.467959 0.10821,0.145553 0.21644,-0.945138 0.21644,1.079729 0.10821,0.218564 0.10822,-0.446951 0.10822,-1.357306 0.21644,2.018587 0.10822,-0.250869 0.10822,-1.172093 0.21643,0.329009 0.10822,-0.381808 0.10822,0.28574 0.10821,-0.202183 0.32466,2.220497 0.21644,-1.434144 0.10821,0.226677 0.10822,0.502043 0.10822,-0.390327 0.10822,0.97221 0.43287,-2.38057 0.21644,-1.830709 0.10822,0.07801 0.10821,0.563798 0.10822,-0.431784 0.32466,0.613757 0.10821,-0.145476 0.10822,-0.79374 0.10822,0.05262 0.32466,-1.89629 0.10821,0.568067 0.21644,-1.133 0.10822,0.407768 0.10822,-0.311118 0.10821,0.463647 0.10822,-0.0777 0.21644,-0.712231 0.10822,0.05189 0.10822,0.748358 0.10821,-0.117304 0.10822,-0.892068 0.10822,0.201235 0.21644,-0.528583 0.10821,0.611677 0.10822,-0.602189 0.10822,0.440635 0.32466,-2.24151 0.10821,0.499494 0.21644,-0.481759 0.10822,0.186714 0.10822,0.896543 0.10821,-0.147718 0.21644,0.519542 0.10822,0.918006 0.10822,-0.0155 0.10822,-0.877134 0.32465,1.565316 0.43287,-1.917095 0.10822,0.985284 0.21644,-0.327892 0.10822,0.125702 0.10821,-0.156541 0.10822,0.559367 0.21644,2.317319 0.10822,0.120036 0.10821,-0.478026 0.10822,-1.057612 0.10822,1.324659 0.21644,-1.998989 0.10822,0.272876 0.21643,0.03988 0.10822,0.02487 0.10822,-0.322999 0.21643,0.679323 0.21644,-0.957196 0.10822,0.601827 0.10822,-0.490281 0.10822,0.291665 0.10821,0.661062 0.21644,-1.437456 0.10822,-0.733651 0.10822,0.444085 0.10821,-0.641581 0.10822,0.08212 0.21644,-0.539533 0.32465,3.648172 0.10822,-0.524422 0.10822,0.306188 0.21644,-1.841305 0.10821,-1.037674 0.21644,0.556354 0.10822,-0.414547 0.10822,0.235647 0.10822,1.201064 0.43287,-1.432164 0.10822,0.397952 0.32465,-0.71279 0.32466,1.212998 0.21643,0.458893 0.21644,-1.135687 0.10822,0.846944 0.21643,-2.128735 0.21644,0.71159 0.21644,-0.692416 0.10821,-0.441248 0.21644,0.412339 0.10822,1.395234 0.10822,-0.155284 0.10821,0.793339 0.21644,-0.531188 0.10822,0.01665 0.10822,-0.222657 0.10822,-1.349209 0.10821,0.274551 0.10822,0.939408 0.10822,-0.01589 0.21644,0.712214 0.10821,-0.154142 0.21644,0.700038 0.10822,0.06151 0.10822,0.400066 0.21643,-2.392392 0.10822,-0.251373 0.32466,2.053581 0.21643,-0.04572 0.21644,-1.762024 0.21644,-2.220996 0.10821,-0.323534 0.21644,0.603295 0.21644,-1.356229 0.10821,0.151966 0.21644,-1.250903 0.10822,0.02661 0.43287,1.745267 0.43287,-1.606445 0.10822,0.565999 0.10822,1.449242 0.21644,-1.18984 0.10822,-0.0186 0.21643,-0.815261 0.10822,0.693923 0.10822,-0.142703 0.10822,0.581182 0.10821,-1.151412 0.21644,0.371778 0.21644,-0.475772 0.10822,0.01666 0.32465,1.345799 0.10822,-0.08864 0.54109,3.165396 0.10822,-0.691155 0.10822,0.918717 0.21643,-1.697324 0.10822,-0.126822 0.10822,0.294971 0.43287,-1.686553 0.21644,-0.08744 0.10822,0.812726 0.21643,-1.711762 0.10822,0.03314 0.10822,-0.25537 0.10822,1.450305 0.10822,-0.206625 0.10821,0.204051 0.10822,-0.261085 0.21644,-1.483022 0.10822,0.772504 0.10821,-0.726439 0.10822,0.03677 0.32466,1.373522 0.21643,1.152021 0.21644,-1.160561 0.10822,0.168656 0.10822,-0.522968 0.10821,-1.455339 0.21644,0.491278 0.10822,0.01421 0.21643,-0.754935 0.10822,-0.04274 0.21644,0.543419 0.10822,0.0057 0.10822,1.899627 0.10821,-0.148677 0.10822,-0.70907 0.10822,0.914742 0.21644,-0.985363 0.10821,1.239567 0.10822,-0.03713 0.21644,-1.202862 0.10822,-0.09157 0.10822,0.165997 0.10821,-0.346068 0.32466,2.094308 0.10822,0.379854 0.10821,-0.521221 0.10822,0.04819 0.10822,-0.270298 0.21644,0.36307 0.21643,-0.540385 0.21644,0.283035 0.10822,-0.58994 0.10822,0.305851 0.64931,-1.280011 0.10822,0.262257 0.21643,0.961887 0.21644,-0.763892 0.10821,1.375073 0.10822,-0.398813 0.10822,0.438694 0.10822,-0.55212 0.21644,-1.748396 0.10821,0.365805 0.10822,0.894812 0.10822,-0.349607 0.21644,1.094923 0.10821,0.05385 0.10822,0.273427 0.10822,-1.029725 0.10822,0.227499 0.10822,0.546656 0.10822,-0.50778 0.10821,0.284172 0.21644,-1.482371 0.10822,0.813369 0.10822,-0.111133 0.21643,-1.155803 0.21644,0.522599 0.10822,-0.171245 0.10822,0.29346 0.21643,0.912567 0.32466,-1.455617 0.21643,0.914753 0.21644,-0.427104 0.10822,0.224925 0.21643,1.681137 0.21644,-1.351622 0.21644,0.359361 0.10821,-0.393449 0.10822,0.17691 0.10822,-1.284434 0.10822,1.009809 0.10822,-0.101221 0.21643,-0.849648 0.10822,-0.09688 0.43287,1.937416 0.10822,-0.930893 0.10822,0.04821 0.10822,0.814149 0.10822,-0.296987 0.10822,0.211442 0.10821,-0.300713 0.10822,0.06887 0.21644,-1.331112 0.21643,1.247195 0.10822,-0.235851 0.10822,0.406163 0.21644,-1.630656 0.21643,1.558344 0.32466,-2.070782 0.10822,-0.628652 0.21643,1.012744 0.10822,-0.656123 0.10822,1.194418 0.21644,-1.042105 0.10821,0.634826 0.21644,-1.091021 0.10822,0.02869 0.21643,1.369337 0.21644,-0.467832 0.21644,0.717559 0.10822,-0.164683 0.10821,0.266736 0.21644,-0.212168 0.21644,-0.85082 0.21643,0.06713 0.10822,1.002072 0.10822,-1.407564 0.10822,0.65424 0.10822,-0.325651 0.10822,0.311983 0.21643,1.510552 0.10822,-0.35141 0.10822,0.257071 0.10821,-0.339957 0.10822,-1.34145 0.21644,0.98332 0.10822,-1.088378 0.10822,0.286412 0.10821,0.698219 0.10822,-0.48149 0.10822,-1.173522 0.10822,0.01252 0.21643,0.229953 0.10822,-0.324506 0.10822,0.03038 0.10822,-0.158464 0.21644,1.059691 0.10821,-0.265542 0.10822,0.698751 0.10822,-0.363283 0.21644,0.414894 0.10821,0.107056 0.10822,0.56675 0.10822,-0.02568 0.10822,0.156424 0.10822,-0.193066 0.10822,0.486058 0.21643,-0.462154 0.10822,-1.03972 0.10822,0.02161 0.10822,-0.05352 0.10821,0.532437 0.10822,-0.109805 0.43288,-1.890773 0.10821,0.212595 0.10822,-0.408296 0.21644,0.484028 0.21643,-0.797798 0.10822,0.99786 0.10822,-0.771707 0.32466,1.920266 0.21643,-1.381872 0.10822,0.360832 0.10822,0.07566 0.10822,0.376579 0.10822,-0.561219 0.10821,0.687638 0.10822,-0.916992 0.21644,0.308771 0.32465,1.263938 0.21644,0.217625 0.10822,-0.927588 0.10821,0.357136 0.10822,-0.608218 0.21644,0.565918 0.10822,-0.651739 0.10822,0.828853 0.21643,-0.347666 0.10822,0.458552 0.21644,-0.872969 0.10821,-0.967891 0.21644,1.01078 0.10822,0.416696 0.10822,-0.714661 0.10822,0.555828 0.10821,-0.02197 0.10822,-0.596548 0.10822,0.569181 0.10822,-0.279705 0.21643,0.519712 0.10822,0.450575 0.10822,-0.44781 0.10822,0.125849 0.32465,-1.297583 0.21644,0.672669 0.21644,-0.360563 0.10821,-0.115339 0.32466,1.69753 0.10822,-0.748915 0.21643,0.07106 0.10822,-0.50645 0.10822,0.538827 0.32465,-1.277396 0.10822,0.336492 0.10822,-0.135149 0.10822,-0.48933 0.10822,0.658491 0.10822,-0.166653 0.10822,0.666786 0.21643,-0.229214 0.10822,0.904577 0.10822,-0.966381 0.10822,0.152653 0.10821,-0.325617 0.10822,-0.760117 0.21644,0.44824 0.10822,-0.443355 0.10821,0.128642 0.32466,1.062497 0.10822,0.06941 0.21643,-0.304841 0.21644,1.189195 0.21644,-0.795383 0.10821,0.0014 0.21644,1.678999 0.21644,-0.957654 0.21643,-0.06893 0.10822,0.09543 0.10822,-0.125308 0.21644,-0.892046 0.21643,1.062975 0.21644,-0.982172 0.10822,0.07446 0.10821,0.202655 0.10822,-0.135875 0.10822,0.479008 0.21644,-0.637141 0.10822,-0.170673 0.10821,0.196405 0.21644,1.331392 0.10822,-0.481326 0.10822,0.318797 0.10821,-0.185644 0.32466,1.382224 0.10822,-1.181312 0.21643,1.802704 0.21644,-1.459078 0.10822,-0.727109 0.10822,0.923108 0.10821,-0.256249 0.10822,-0.679148 0.21644,0.942573 0.21644,-0.301318 0.10821,0.01349 0.10822,-1.391731 0.10822,0.239471 0.10822,-0.453088 0.21643,0.978018 0.10822,0.06872 0.10822,-0.207553 0.10822,0.840165 0.21644,-0.456003 0.21643,0.230432 0.10822,-1.266609 0.21644,0.237978 0.21643,-0.813235 0.10822,0.382933 0.10822,-0.382775 0.10822,0.03476 0.10822,0.743072 0.21643,-0.916849 0.10822,-0.06606 0.10822,0.394377 0.10822,-0.04008 0.10821,0.62696 0.10822,-0.81604 0.21644,0.361859 0.10822,-0.132002 0.10822,0.396053 0.10822,-0.423916 0.21643,0.175577 0.32465,1.366835 0.10822,-0.205205 0.10822,0.246829 0.10822,-0.275997 0.21644,1.096062 0.10822,-0.321112 0.10821,0.806306 0.21644,-1.079275 0.10822,0.251195 0.10821,-0.338874 0.10822,0.09795 0.21644,0.555322 0.10822,0.196612 0.10822,-0.80828 0.10821,0.29113 0.32466,1.622249 0.10822,-0.53555 0.10821,0.422146 0.21644,-0.319147 0.43287,-2.037366 0.21644,1.21094 0.10822,0.03011 0.10822,0.518724 0.10821,-1.095514 0.32466,0.473616 0.10822,-0.786358 0.21643,0.947269 0.21644,-0.591733 0.10822,1.257761 0.21643,-0.61372 0.21644,0.553734 0.21644,-1.50092 0.21644,0.808299 0.10821,-1.031865 0.10822,0.735587 0.10822,-0.441901 0.10822,0.610227 0.10821,-0.130081 0.10822,-0.408807 0.21644,0.769245 0.32465,-0.834589 0.10822,-0.01794 0.32466,2.128341 0.32465,-1.560908 0.10822,-0.229401 0.10822,0.196961 0.10822,-0.418299 0.21643,1.309467 0.10822,-1.245312 0.10822,0.144709 0.10822,0.690549 0.10821,-0.221831 0.32466,0.716544 0.10822,-0.133131 0.10822,-0.94291 0.21643,1.359241 0.21644,-0.988584 0.10822,0.606222 0.21643,-0.303583 0.10822,-0.476897 0.21644,0.199464 0.10822,-0.580818 0.10821,1.415376 0.64931,-1.07347 0.10822,-0.132553 0.10822,0.159353 0.21644,-1.758748 0.21643,0.966766 0.10822,-0.429421 0.21644,1.0224 0.10821,-0.746219 0.10822,0.754557 0.10822,-0.651164 0.10822,0.278125 0.10822,-0.259231 0.10822,1.158289 0.10821,-0.102007 0.21644,1.165108 0.21644,-0.92594 0.32465,1.432211 0.10822,-0.03722 0.21644,-1.609893 0.21643,0.268802 0.21644,-0.895996 0.10822,0.120673 0.21643,-0.478587 0.10822,0.187179 0.21644,-1.147004 0.32465,0.716715 0.21644,-0.350138 0.10822,0.364351 0.10821,-0.520443 0.10822,1.000121 0.21644,-0.586601 0.10822,0.02667 0.21643,-0.467939 0.10822,-0.04619 0.10822,0.853084 0.21644,-1.28837 0.10821,0.895911 0.32466,-0.291719 0.10822,0.30538 0.21643,-0.584741 0.32466,-1.288045 0.10822,0.852732 0.21643,-0.78071 0.10822,0.0487 0.21644,-0.698446 0.21643,1.032681 0.10822,0.05814 0.10822,-0.36231 0.21644,0.80275 0.10822,-0.221118 0.10821,0.256535 0.10822,-0.103062 0.10822,0.08004 0.10822,-0.97755 0.32465,2.31353 0.43287,-0.481537 0.10822,-0.888112 0.32466,1.186517 0.10822,-0.378658 0.21643,0.726546 0.21644,0.442263 0.10822,0.077 0.10821,-1.121602 0.10822,0.303862 0.21644,-0.57459 0.10822,0.610344 0.10822,-0.08902 0.10821,-0.688005 0.10822,0.299984 0.10822,-0.455858 0.10822,0.659889 0.10822,-0.217724 0.32465,0.805557 0.21644,-0.936504 0.10822,0.05445 0.10821,-0.672734 0.10822,0.241368 0.21644,-0.729344 0.10822,-0.161237 0.32465,2.068951 0.21644,0.05651 0.10822,-0.18768 0.21643,-0.879267 0.10822,0.498324 0.10822,-0.338019 0.10822,0.694763 0.21643,-2.419645 0.21644,0.435815 0.32465,-0.870134 0.21644,1.091796 0.10822,-0.380337 0.10822,0.989858 0.10821,-0.01186 0.32466,0.450312 0.10822,-0.361096 0.21643,1.23829 0.21644,-0.949158 0.10822,-0.349493 0.10822,0.698337 0.43287,-1.827721 0.21644,0.499599 0.21643,-1.029378 0.21644,0.516007 0.10822,0.146904 0.32465,0.834674 0.10822,0.269268 0.10822,-0.481386 0.21643,1.4185 0.10822,-1.068699 0.21644,0.563288 0.10822,-0.05763 0.21643,-0.501485 0.10822,0.855561 0.10822,-0.826618 0.10822,0.0989 0.10822,-0.140473 0.10822,-0.666479 0.10821,0.723283 0.10822,-0.360284 0.21644,1.237118 0.10822,0.864282 0.54109,-1.977519 0.10821,0.205565 0.10822,-0.05865 0.10822,0.789545 0.10822,-0.790834 0.10822,0.259482 0.10821,-1.341873 0.32466,1.397297 0.10822,0.0031 0.10822,-0.21628 0.21643,0.681965 0.10822,-0.665023 0.10822,0.316349 0.10822,-0.854475 0.32465,0.401538 0.21644,-0.568861 0.10822,0.457526 0.10821,-0.397265 0.10822,0.100764 v 0" /></g></g><g
       id="g904"><g
         clip-path="url(#clipPath910)"
         id="g906"><path
           id="path912"
           style="fill:none;stroke:#808080;stroke-width:0.75;stroke-linecap:butt;stroke-linejoin:round;stroke-miterlimit:10;stroke-dasharray:2.775, 1.2;stroke-dashoffset:0;stroke-opacity:1"
           d="M 57.6,53.904876 H 414.72" /></g></g><g
       id="g914"><g
         clip-path="url(#clipPath920)"
         id="g916"><path
           id="path922"
           style="fill:#ff7f0e;fill-opacity:1;fill-rule:nonzero;stroke:#ff7f0e;stroke-width:1;stroke-linecap:butt;stroke-linejoin:round;stroke-miterlimit:10;stroke-dasharray:none;stroke-opacity:1"
           d="m 315.37571,51.150486 c 0.66301,0 1.29895,0.263416 1.76777,0.732233 0.46881,0.468817 0.73223,1.104759 0.73223,1.767767 0,0.663008 -0.26342,1.29895 -0.73223,1.767767 -0.46882,0.468817 -1.10476,0.732233 -1.76777,0.732233 -0.66301,0 -1.29895,-0.263416 -1.76777,-0.732233 -0.46882,-0.468817 -0.73223,-1.104759 -0.73223,-1.767767 0,-0.663008 0.26341,-1.29895 0.73223,-1.767767 0.46882,-0.468817 1.10476,-0.732233 1.76777,-0.732233 z" /></g></g><g
       id="g924"><g
         clip-path="url(#clipPath930)"
         id="g926"><path
           id="path932"
           style="fill:none;stroke:#ff7f0e;stroke-width:1;stroke-linecap:butt;stroke-linejoin:round;stroke-miterlimit:10;stroke-dasharray:1, 1.65;stroke-dashoffset:0;stroke-opacity:1"
           d="M 315.37571,38.016 V 304.128" /></g></g><g
       id="g934"><path
         id="path936"
         style="fill:none;stroke:#000000;stroke-width:0.8;stroke-linecap:square;stroke-linejoin:miter;stroke-miterlimit:10;stroke-dasharray:none;stroke-opacity:1"
         d="M 57.6,38.016 V 304.128" /><path
         id="path938"
         style="fill:none;stroke:#000000;stroke-width:0.8;stroke-linecap:square;stroke-linejoin:miter;stroke-miterlimit:10;stroke-dasharray:none;stroke-opacity:1"
         d="M 414.72,38.016 V 304.128" /><path
         id="path940"
         style="fill:none;stroke:#000000;stroke-width:0.8;stroke-linecap:square;stroke-linejoin:miter;stroke-miterlimit:10;stroke-dasharray:none;stroke-opacity:1"
         d="M 57.6,38.016 H 414.72" /><path
         id="path942"
         style="fill:none;stroke:#000000;stroke-width:0.8;stroke-linecap:square;stroke-linejoin:miter;stroke-miterlimit:10;stroke-dasharray:none;stroke-opacity:1"
         d="M 57.6,304.128 H 414.72" /></g></g></svg>
