<?xml version="1.0" encoding="UTF-8" standalone="no"?>
<svg
   xmlns:dc="http://purl.org/dc/elements/1.1/"
   xmlns:cc="http://creativecommons.org/ns#"
   xmlns:rdf="http://www.w3.org/1999/02/22-rdf-syntax-ns#"
   xmlns:svg="http://www.w3.org/2000/svg"
   xmlns="http://www.w3.org/2000/svg"
   viewBox="0 0 614.40002 460.79999"
   height="460.79999"
   width="614.40002"
   xml:space="preserve"
   id="svg10"
   version="1.1"><metadata
     id="metadata16"><rdf:RDF><cc:Work
         rdf:about=""><dc:format>image/svg+xml</dc:format><dc:type
           rdf:resource="http://purl.org/dc/dcmitype/StillImage" /><dc:title></dc:title></cc:Work></rdf:RDF></metadata><defs
     id="defs14"><clipPath
       id="clipPath30"
       clipPathUnits="userSpaceOnUse"><path
         id="path28"
         d="M 57.6,38.016 H 414.72 V 304.128 H 57.6 Z" /></clipPath><clipPath
       id="clipPath48"
       clipPathUnits="userSpaceOnUse"><path
         id="path46"
         d="M 57.6,38.016 H 414.72 V 304.128 H 57.6 Z" /></clipPath><clipPath
       id="clipPath66"
       clipPathUnits="userSpaceOnUse"><path
         id="path64"
         d="M 57.6,38.016 H 414.72 V 304.128 H 57.6 Z" /></clipPath><clipPath
       id="clipPath84"
       clipPathUnits="userSpaceOnUse"><path
         id="path82"
         d="M 57.6,38.016 H 414.72 V 304.128 H 57.6 Z" /></clipPath><clipPath
       id="clipPath102"
       clipPathUnits="userSpaceOnUse"><path
         id="path100"
         d="M 57.6,38.016 H 414.72 V 304.128 H 57.6 Z" /></clipPath><clipPath
       id="clipPath120"
       clipPathUnits="userSpaceOnUse"><path
         id="path118"
         d="M 57.6,38.016 H 414.72 V 304.128 H 57.6 Z" /></clipPath><clipPath
       id="clipPath138"
       clipPathUnits="userSpaceOnUse"><path
         id="path136"
         d="M 57.6,38.016 H 414.72 V 304.128 H 57.6 Z" /></clipPath><clipPath
       id="clipPath156"
       clipPathUnits="userSpaceOnUse"><path
         id="path154"
         d="M 57.6,38.016 H 414.72 V 304.128 H 57.6 Z" /></clipPath><clipPath
       id="clipPath170"
       clipPathUnits="userSpaceOnUse"><path
         id="path168"
         d="M 57.6,38.016 H 414.72 V 304.128 H 57.6 Z" /></clipPath><clipPath
       id="clipPath184"
       clipPathUnits="userSpaceOnUse"><path
         id="path182"
         d="M 57.6,38.016 H 414.72 V 304.128 H 57.6 Z" /></clipPath><clipPath
       id="clipPath198"
       clipPathUnits="userSpaceOnUse"><path
         id="path196"
         d="M 57.6,38.016 H 414.72 V 304.128 H 57.6 Z" /></clipPath><clipPath
       id="clipPath212"
       clipPathUnits="userSpaceOnUse"><path
         id="path210"
         d="M 57.6,38.016 H 414.72 V 304.128 H 57.6 Z" /></clipPath><clipPath
       id="clipPath226"
       clipPathUnits="userSpaceOnUse"><path
         id="path224"
         d="M 57.6,38.016 H 414.72 V 304.128 H 57.6 Z" /></clipPath><clipPath
       id="clipPath240"
       clipPathUnits="userSpaceOnUse"><path
         id="path238"
         d="M 57.6,38.016 H 414.72 V 304.128 H 57.6 Z" /></clipPath><clipPath
       id="clipPath254"
       clipPathUnits="userSpaceOnUse"><path
         id="path252"
         d="M 57.6,38.016 H 414.72 V 304.128 H 57.6 Z" /></clipPath><clipPath
       id="clipPath268"
       clipPathUnits="userSpaceOnUse"><path
         id="path266"
         d="M 57.6,38.016 H 414.72 V 304.128 H 57.6 Z" /></clipPath><clipPath
       id="clipPath282"
       clipPathUnits="userSpaceOnUse"><path
         id="path280"
         d="M 57.6,38.016 H 414.72 V 304.128 H 57.6 Z" /></clipPath><clipPath
       id="clipPath296"
       clipPathUnits="userSpaceOnUse"><path
         id="path294"
         d="M 57.6,38.016 H 414.72 V 304.128 H 57.6 Z" /></clipPath><clipPath
       id="clipPath310"
       clipPathUnits="userSpaceOnUse"><path
         id="path308"
         d="M 57.6,38.016 H 414.72 V 304.128 H 57.6 Z" /></clipPath><clipPath
       id="clipPath324"
       clipPathUnits="userSpaceOnUse"><path
         id="path322"
         d="M 57.6,38.016 H 414.72 V 304.128 H 57.6 Z" /></clipPath><clipPath
       id="clipPath338"
       clipPathUnits="userSpaceOnUse"><path
         id="path336"
         d="M 57.6,38.016 H 414.72 V 304.128 H 57.6 Z" /></clipPath><clipPath
       id="clipPath352"
       clipPathUnits="userSpaceOnUse"><path
         id="path350"
         d="M 57.6,38.016 H 414.72 V 304.128 H 57.6 Z" /></clipPath><clipPath
       id="clipPath366"
       clipPathUnits="userSpaceOnUse"><path
         id="path364"
         d="M 57.6,38.016 H 414.72 V 304.128 H 57.6 Z" /></clipPath><clipPath
       id="clipPath380"
       clipPathUnits="userSpaceOnUse"><path
         id="path378"
         d="M 57.6,38.016 H 414.72 V 304.128 H 57.6 Z" /></clipPath><clipPath
       id="clipPath394"
       clipPathUnits="userSpaceOnUse"><path
         id="path392"
         d="M 57.6,38.016 H 414.72 V 304.128 H 57.6 Z" /></clipPath><clipPath
       id="clipPath408"
       clipPathUnits="userSpaceOnUse"><path
         id="path406"
         d="M 57.6,38.016 H 414.72 V 304.128 H 57.6 Z" /></clipPath><clipPath
       id="clipPath422"
       clipPathUnits="userSpaceOnUse"><path
         id="path420"
         d="M 57.6,38.016 H 414.72 V 304.128 H 57.6 Z" /></clipPath><clipPath
       id="clipPath436"
       clipPathUnits="userSpaceOnUse"><path
         id="path434"
         d="M 57.6,38.016 H 414.72 V 304.128 H 57.6 Z" /></clipPath><clipPath
       id="clipPath450"
       clipPathUnits="userSpaceOnUse"><path
         id="path448"
         d="M 57.6,38.016 H 414.72 V 304.128 H 57.6 Z" /></clipPath><clipPath
       id="clipPath464"
       clipPathUnits="userSpaceOnUse"><path
         id="path462"
         d="M 57.6,38.016 H 414.72 V 304.128 H 57.6 Z" /></clipPath><clipPath
       id="clipPath478"
       clipPathUnits="userSpaceOnUse"><path
         id="path476"
         d="M 57.6,38.016 H 414.72 V 304.128 H 57.6 Z" /></clipPath><clipPath
       id="clipPath492"
       clipPathUnits="userSpaceOnUse"><path
         id="path490"
         d="M 57.6,38.016 H 414.72 V 304.128 H 57.6 Z" /></clipPath><clipPath
       id="clipPath506"
       clipPathUnits="userSpaceOnUse"><path
         id="path504"
         d="M 57.6,38.016 H 414.72 V 304.128 H 57.6 Z" /></clipPath><clipPath
       id="clipPath524"
       clipPathUnits="userSpaceOnUse"><path
         id="path522"
         d="M 57.6,38.016 H 414.72 V 304.128 H 57.6 Z" /></clipPath><clipPath
       id="clipPath542"
       clipPathUnits="userSpaceOnUse"><path
         id="path540"
         d="M 57.6,38.016 H 414.72 V 304.128 H 57.6 Z" /></clipPath><clipPath
       id="clipPath560"
       clipPathUnits="userSpaceOnUse"><path
         id="path558"
         d="M 57.6,38.016 H 414.72 V 304.128 H 57.6 Z" /></clipPath><clipPath
       id="clipPath578"
       clipPathUnits="userSpaceOnUse"><path
         id="path576"
         d="M 57.6,38.016 H 414.72 V 304.128 H 57.6 Z" /></clipPath><clipPath
       id="clipPath596"
       clipPathUnits="userSpaceOnUse"><path
         id="path594"
         d="M 57.6,38.016 H 414.72 V 304.128 H 57.6 Z" /></clipPath><clipPath
       id="clipPath614"
       clipPathUnits="userSpaceOnUse"><path
         id="path612"
         d="M 57.6,38.016 H 414.72 V 304.128 H 57.6 Z" /></clipPath><clipPath
       id="clipPath628"
       clipPathUnits="userSpaceOnUse"><path
         id="path626"
         d="M 57.6,38.016 H 414.72 V 304.128 H 57.6 Z" /></clipPath><clipPath
       id="clipPath642"
       clipPathUnits="userSpaceOnUse"><path
         id="path640"
         d="M 57.6,38.016 H 414.72 V 304.128 H 57.6 Z" /></clipPath><clipPath
       id="clipPath656"
       clipPathUnits="userSpaceOnUse"><path
         id="path654"
         d="M 57.6,38.016 H 414.72 V 304.128 H 57.6 Z" /></clipPath><clipPath
       id="clipPath670"
       clipPathUnits="userSpaceOnUse"><path
         id="path668"
         d="M 57.6,38.016 H 414.72 V 304.128 H 57.6 Z" /></clipPath><clipPath
       id="clipPath684"
       clipPathUnits="userSpaceOnUse"><path
         id="path682"
         d="M 57.6,38.016 H 414.72 V 304.128 H 57.6 Z" /></clipPath><clipPath
       id="clipPath698"
       clipPathUnits="userSpaceOnUse"><path
         id="path696"
         d="M 57.6,38.016 H 414.72 V 304.128 H 57.6 Z" /></clipPath><clipPath
       id="clipPath712"
       clipPathUnits="userSpaceOnUse"><path
         id="path710"
         d="M 57.6,38.016 H 414.72 V 304.128 H 57.6 Z" /></clipPath><clipPath
       id="clipPath726"
       clipPathUnits="userSpaceOnUse"><path
         id="path724"
         d="M 57.6,38.016 H 414.72 V 304.128 H 57.6 Z" /></clipPath><clipPath
       id="clipPath740"
       clipPathUnits="userSpaceOnUse"><path
         id="path738"
         d="M 57.6,38.016 H 414.72 V 304.128 H 57.6 Z" /></clipPath><clipPath
       id="clipPath754"
       clipPathUnits="userSpaceOnUse"><path
         id="path752"
         d="M 57.6,38.016 H 414.72 V 304.128 H 57.6 Z" /></clipPath><clipPath
       id="clipPath768"
       clipPathUnits="userSpaceOnUse"><path
         id="path766"
         d="M 57.6,38.016 H 414.72 V 304.128 H 57.6 Z" /></clipPath><clipPath
       id="clipPath782"
       clipPathUnits="userSpaceOnUse"><path
         id="path780"
         d="M 57.6,38.016 H 414.72 V 304.128 H 57.6 Z" /></clipPath><clipPath
       id="clipPath796"
       clipPathUnits="userSpaceOnUse"><path
         id="path794"
         d="M 57.6,38.016 H 414.72 V 304.128 H 57.6 Z" /></clipPath><clipPath
       id="clipPath810"
       clipPathUnits="userSpaceOnUse"><path
         id="path808"
         d="M 57.6,38.016 H 414.72 V 304.128 H 57.6 Z" /></clipPath><clipPath
       id="clipPath824"
       clipPathUnits="userSpaceOnUse"><path
         id="path822"
         d="M 57.6,38.016 H 414.72 V 304.128 H 57.6 Z" /></clipPath><clipPath
       id="clipPath838"
       clipPathUnits="userSpaceOnUse"><path
         id="path836"
         d="M 57.6,38.016 H 414.72 V 304.128 H 57.6 Z" /></clipPath><clipPath
       id="clipPath852"
       clipPathUnits="userSpaceOnUse"><path
         id="path850"
         d="M 57.6,38.016 H 414.72 V 304.128 H 57.6 Z" /></clipPath><clipPath
       id="clipPath866"
       clipPathUnits="userSpaceOnUse"><path
         id="path864"
         d="M 57.6,38.016 H 414.72 V 304.128 H 57.6 Z" /></clipPath><clipPath
       id="clipPath880"
       clipPathUnits="userSpaceOnUse"><path
         id="path878"
         d="M 57.6,38.016 H 414.72 V 304.128 H 57.6 Z" /></clipPath><clipPath
       id="clipPath894"
       clipPathUnits="userSpaceOnUse"><path
         id="path892"
         d="M 57.6,38.016 H 414.72 V 304.128 H 57.6 Z" /></clipPath><clipPath
       id="clipPath908"
       clipPathUnits="userSpaceOnUse"><path
         id="path906"
         d="M 57.6,38.016 H 414.72 V 304.128 H 57.6 Z" /></clipPath><clipPath
       id="clipPath922"
       clipPathUnits="userSpaceOnUse"><path
         id="path920"
         d="M 57.6,38.016 H 414.72 V 304.128 H 57.6 Z" /></clipPath><clipPath
       id="clipPath936"
       clipPathUnits="userSpaceOnUse"><path
         id="path934"
         d="M 57.6,38.016 H 414.72 V 304.128 H 57.6 Z" /></clipPath><clipPath
       id="clipPath958"
       clipPathUnits="userSpaceOnUse"><path
         id="path956"
         d="M -1021,-463 H 1794 V 1233 H -1021 Z" /></clipPath><clipPath
       id="clipPath970"
       clipPathUnits="userSpaceOnUse"><path
         id="path968"
         d="M 57.6,38.016 H 414.72 V 304.128 H 57.6 Z" /></clipPath><clipPath
       id="clipPath980"
       clipPathUnits="userSpaceOnUse"><path
         id="path978"
         d="M 57.6,38.016 H 414.72 V 304.128 H 57.6 Z" /></clipPath><clipPath
       id="clipPath990"
       clipPathUnits="userSpaceOnUse"><path
         id="path988"
         d="M 57.6,38.016 H 414.72 V 304.128 H 57.6 Z" /></clipPath><clipPath
       id="clipPath1000"
       clipPathUnits="userSpaceOnUse"><path
         id="path998"
         d="M 57.6,38.016 H 414.72 V 304.128 H 57.6 Z" /></clipPath></defs><g
     transform="matrix(1.3333333,0,0,-1.3333333,0,460.8)"
     id="g18"><path
       id="path20"
       style="fill:#ffffff;fill-opacity:1;fill-rule:nonzero;stroke:none"
       d="M 0,0 H 460.8 V 345.6 H 0 Z" /><path
       id="path22"
       style="fill:#ffffff;fill-opacity:1;fill-rule:nonzero;stroke:none"
       d="M 57.6,38.016 H 414.72 V 304.128 H 57.6 Z" /><g
       id="g24"><g
         clip-path="url(#clipPath30)"
         id="g26"><path
           id="path32"
           style="fill:none;stroke:#d3d3d3;stroke-width:0.25;stroke-linecap:butt;stroke-linejoin:round;stroke-miterlimit:10;stroke-dasharray:1.6, 0.4, 0.25, 0.4;stroke-dashoffset:0;stroke-opacity:1"
           d="M 73.832727,38.016 V 304.128" /></g></g><g
       id="g34"><path
         id="path36"
         style="fill:#000000;fill-opacity:1;fill-rule:nonzero;stroke:#000000;stroke-width:0.8;stroke-linecap:butt;stroke-linejoin:round;stroke-miterlimit:10;stroke-dasharray:none;stroke-opacity:1"
         d="m 73.832727,38.016 v -3.5" /><text
         id="text40"
         style="font-variant:normal;font-weight:normal;font-size:10px;font-family:'DejaVu Sans Mono for Powerline';-inkscape-font-specification:DejaVuSans;writing-mode:lr-tb;fill:#000000;fill-opacity:1;fill-rule:nonzero;stroke:none"
         transform="matrix(1,0,0,-1,70.65304,23.42225)"><tspan
           id="tspan38"
           y="0"
           x="0">0</tspan></text></g><g
       id="g42"><g
         clip-path="url(#clipPath48)"
         id="g44"><path
           id="path50"
           style="fill:none;stroke:#d3d3d3;stroke-width:0.25;stroke-linecap:butt;stroke-linejoin:round;stroke-miterlimit:10;stroke-dasharray:1.6, 0.4, 0.25, 0.4;stroke-dashoffset:0;stroke-opacity:1"
           d="M 127.94182,38.016 V 304.128" /></g></g><g
       id="g52"><path
         id="path54"
         style="fill:#000000;fill-opacity:1;fill-rule:nonzero;stroke:#000000;stroke-width:0.8;stroke-linecap:butt;stroke-linejoin:round;stroke-miterlimit:10;stroke-dasharray:none;stroke-opacity:1"
         d="m 127.94182,38.016 v -3.5" /><text
         id="text58"
         style="font-variant:normal;font-weight:normal;font-size:10px;font-family:'DejaVu Sans Mono for Powerline';-inkscape-font-specification:DejaVuSans;writing-mode:lr-tb;fill:#000000;fill-opacity:1;fill-rule:nonzero;stroke:none"
         transform="matrix(1,0,0,-1,118.40276,23.42225)"><tspan
           id="tspan56"
           y="0"
           x="0 6.3600001 12.72">500</tspan></text></g><g
       id="g60"><g
         clip-path="url(#clipPath66)"
         id="g62"><path
           id="path68"
           style="fill:none;stroke:#d3d3d3;stroke-width:0.25;stroke-linecap:butt;stroke-linejoin:round;stroke-miterlimit:10;stroke-dasharray:1.6, 0.4, 0.25, 0.4;stroke-dashoffset:0;stroke-opacity:1"
           d="M 182.05091,38.016 V 304.128" /></g></g><g
       id="g70"><path
         id="path72"
         style="fill:#000000;fill-opacity:1;fill-rule:nonzero;stroke:#000000;stroke-width:0.8;stroke-linecap:butt;stroke-linejoin:round;stroke-miterlimit:10;stroke-dasharray:none;stroke-opacity:1"
         d="m 182.05091,38.016 v -3.5" /><text
         id="text76"
         style="font-variant:normal;font-weight:normal;font-size:10px;font-family:'DejaVu Sans Mono for Powerline';-inkscape-font-specification:DejaVuSans;writing-mode:lr-tb;fill:#000000;fill-opacity:1;fill-rule:nonzero;stroke:none"
         transform="matrix(1,0,0,-1,169.33216,23.42225)"><tspan
           id="tspan74"
           y="0"
           x="0 6.3600001 12.72 19.08">1000</tspan></text></g><g
       id="g78"><g
         clip-path="url(#clipPath84)"
         id="g80"><path
           id="path86"
           style="fill:none;stroke:#d3d3d3;stroke-width:0.25;stroke-linecap:butt;stroke-linejoin:round;stroke-miterlimit:10;stroke-dasharray:1.6, 0.4, 0.25, 0.4;stroke-dashoffset:0;stroke-opacity:1"
           d="M 236.16,38.016 V 304.128" /></g></g><g
       id="g88"><path
         id="path90"
         style="fill:#000000;fill-opacity:1;fill-rule:nonzero;stroke:#000000;stroke-width:0.8;stroke-linecap:butt;stroke-linejoin:round;stroke-miterlimit:10;stroke-dasharray:none;stroke-opacity:1"
         d="m 236.16,38.016 v -3.5" /><text
         id="text94"
         style="font-variant:normal;font-weight:normal;font-size:10px;font-family:'DejaVu Sans Mono for Powerline';-inkscape-font-specification:DejaVuSans;writing-mode:lr-tb;fill:#000000;fill-opacity:1;fill-rule:nonzero;stroke:none"
         transform="matrix(1,0,0,-1,223.44125,23.42225)"><tspan
           id="tspan92"
           y="0"
           x="0 6.3600001 12.72 19.08">1500</tspan></text></g><g
       id="g96"><g
         clip-path="url(#clipPath102)"
         id="g98"><path
           id="path104"
           style="fill:none;stroke:#d3d3d3;stroke-width:0.25;stroke-linecap:butt;stroke-linejoin:round;stroke-miterlimit:10;stroke-dasharray:1.6, 0.4, 0.25, 0.4;stroke-dashoffset:0;stroke-opacity:1"
           d="M 290.26909,38.016 V 304.128" /></g></g><g
       id="g106"><path
         id="path108"
         style="fill:#000000;fill-opacity:1;fill-rule:nonzero;stroke:#000000;stroke-width:0.8;stroke-linecap:butt;stroke-linejoin:round;stroke-miterlimit:10;stroke-dasharray:none;stroke-opacity:1"
         d="m 290.26909,38.016 v -3.5" /><text
         id="text112"
         style="font-variant:normal;font-weight:normal;font-size:10px;font-family:'DejaVu Sans Mono for Powerline';-inkscape-font-specification:DejaVuSans;writing-mode:lr-tb;fill:#000000;fill-opacity:1;fill-rule:nonzero;stroke:none"
         transform="matrix(1,0,0,-1,277.55034,23.42225)"><tspan
           id="tspan110"
           y="0"
           x="0 6.3600001 12.72 19.08">2000</tspan></text></g><g
       id="g114"><g
         clip-path="url(#clipPath120)"
         id="g116"><path
           id="path122"
           style="fill:none;stroke:#d3d3d3;stroke-width:0.25;stroke-linecap:butt;stroke-linejoin:round;stroke-miterlimit:10;stroke-dasharray:1.6, 0.4, 0.25, 0.4;stroke-dashoffset:0;stroke-opacity:1"
           d="M 344.37818,38.016 V 304.128" /></g></g><g
       id="g124"><path
         id="path126"
         style="fill:#000000;fill-opacity:1;fill-rule:nonzero;stroke:#000000;stroke-width:0.8;stroke-linecap:butt;stroke-linejoin:round;stroke-miterlimit:10;stroke-dasharray:none;stroke-opacity:1"
         d="m 344.37818,38.016 v -3.5" /><text
         id="text130"
         style="font-variant:normal;font-weight:normal;font-size:10px;font-family:'DejaVu Sans Mono for Powerline';-inkscape-font-specification:DejaVuSans;writing-mode:lr-tb;fill:#000000;fill-opacity:1;fill-rule:nonzero;stroke:none"
         transform="matrix(1,0,0,-1,331.65943,23.42225)"><tspan
           id="tspan128"
           y="0"
           x="0 6.3600001 12.72 19.08">2500</tspan></text></g><g
       id="g132"><g
         clip-path="url(#clipPath138)"
         id="g134"><path
           id="path140"
           style="fill:none;stroke:#d3d3d3;stroke-width:0.25;stroke-linecap:butt;stroke-linejoin:round;stroke-miterlimit:10;stroke-dasharray:1.6, 0.4, 0.25, 0.4;stroke-dashoffset:0;stroke-opacity:1"
           d="M 398.48727,38.016 V 304.128" /></g></g><g
       id="g142"><path
         id="path144"
         style="fill:#000000;fill-opacity:1;fill-rule:nonzero;stroke:#000000;stroke-width:0.8;stroke-linecap:butt;stroke-linejoin:round;stroke-miterlimit:10;stroke-dasharray:none;stroke-opacity:1"
         d="m 398.48727,38.016 v -3.5" /><text
         id="text148"
         style="font-variant:normal;font-weight:normal;font-size:10px;font-family:'DejaVu Sans Mono for Powerline';-inkscape-font-specification:DejaVuSans;writing-mode:lr-tb;fill:#000000;fill-opacity:1;fill-rule:nonzero;stroke:none"
         transform="matrix(1,0,0,-1,385.76852,23.42225)"><tspan
           id="tspan146"
           y="0"
           x="0 6.3600001 12.72 19.08">3000</tspan></text></g><g
       id="g150"><g
         clip-path="url(#clipPath156)"
         id="g152"><path
           id="path158"
           style="fill:none;stroke:#d3d3d3;stroke-width:0.25;stroke-linecap:butt;stroke-linejoin:round;stroke-miterlimit:10;stroke-dasharray:1.6, 0.4, 0.25, 0.4;stroke-dashoffset:0;stroke-opacity:1"
           d="M 63.010909,38.016 V 304.128" /></g></g><g
       id="g160"><path
         id="path162"
         style="fill:#000000;fill-opacity:1;fill-rule:nonzero;stroke:#000000;stroke-width:0.6;stroke-linecap:butt;stroke-linejoin:round;stroke-miterlimit:10;stroke-dasharray:none;stroke-opacity:1"
         d="m 63.010909,38.016 v -2" /></g><g
       id="g164"><g
         clip-path="url(#clipPath170)"
         id="g166"><path
           id="path172"
           style="fill:none;stroke:#d3d3d3;stroke-width:0.25;stroke-linecap:butt;stroke-linejoin:round;stroke-miterlimit:10;stroke-dasharray:1.6, 0.4, 0.25, 0.4;stroke-dashoffset:0;stroke-opacity:1"
           d="M 84.654545,38.016 V 304.128" /></g></g><g
       id="g174"><path
         id="path176"
         style="fill:#000000;fill-opacity:1;fill-rule:nonzero;stroke:#000000;stroke-width:0.6;stroke-linecap:butt;stroke-linejoin:round;stroke-miterlimit:10;stroke-dasharray:none;stroke-opacity:1"
         d="m 84.654545,38.016 v -2" /></g><g
       id="g178"><g
         clip-path="url(#clipPath184)"
         id="g180"><path
           id="path186"
           style="fill:none;stroke:#d3d3d3;stroke-width:0.25;stroke-linecap:butt;stroke-linejoin:round;stroke-miterlimit:10;stroke-dasharray:1.6, 0.4, 0.25, 0.4;stroke-dashoffset:0;stroke-opacity:1"
           d="M 95.476364,38.016 V 304.128" /></g></g><g
       id="g188"><path
         id="path190"
         style="fill:#000000;fill-opacity:1;fill-rule:nonzero;stroke:#000000;stroke-width:0.6;stroke-linecap:butt;stroke-linejoin:round;stroke-miterlimit:10;stroke-dasharray:none;stroke-opacity:1"
         d="m 95.476364,38.016 v -2" /></g><g
       id="g192"><g
         clip-path="url(#clipPath198)"
         id="g194"><path
           id="path200"
           style="fill:none;stroke:#d3d3d3;stroke-width:0.25;stroke-linecap:butt;stroke-linejoin:round;stroke-miterlimit:10;stroke-dasharray:1.6, 0.4, 0.25, 0.4;stroke-dashoffset:0;stroke-opacity:1"
           d="M 106.29818,38.016 V 304.128" /></g></g><g
       id="g202"><path
         id="path204"
         style="fill:#000000;fill-opacity:1;fill-rule:nonzero;stroke:#000000;stroke-width:0.6;stroke-linecap:butt;stroke-linejoin:round;stroke-miterlimit:10;stroke-dasharray:none;stroke-opacity:1"
         d="m 106.29818,38.016 v -2" /></g><g
       id="g206"><g
         clip-path="url(#clipPath212)"
         id="g208"><path
           id="path214"
           style="fill:none;stroke:#d3d3d3;stroke-width:0.25;stroke-linecap:butt;stroke-linejoin:round;stroke-miterlimit:10;stroke-dasharray:1.6, 0.4, 0.25, 0.4;stroke-dashoffset:0;stroke-opacity:1"
           d="M 117.12,38.016 V 304.128" /></g></g><g
       id="g216"><path
         id="path218"
         style="fill:#000000;fill-opacity:1;fill-rule:nonzero;stroke:#000000;stroke-width:0.6;stroke-linecap:butt;stroke-linejoin:round;stroke-miterlimit:10;stroke-dasharray:none;stroke-opacity:1"
         d="m 117.12,38.016 v -2" /></g><g
       id="g220"><g
         clip-path="url(#clipPath226)"
         id="g222"><path
           id="path228"
           style="fill:none;stroke:#d3d3d3;stroke-width:0.25;stroke-linecap:butt;stroke-linejoin:round;stroke-miterlimit:10;stroke-dasharray:1.6, 0.4, 0.25, 0.4;stroke-dashoffset:0;stroke-opacity:1"
           d="M 138.76364,38.016 V 304.128" /></g></g><g
       id="g230"><path
         id="path232"
         style="fill:#000000;fill-opacity:1;fill-rule:nonzero;stroke:#000000;stroke-width:0.6;stroke-linecap:butt;stroke-linejoin:round;stroke-miterlimit:10;stroke-dasharray:none;stroke-opacity:1"
         d="m 138.76364,38.016 v -2" /></g><g
       id="g234"><g
         clip-path="url(#clipPath240)"
         id="g236"><path
           id="path242"
           style="fill:none;stroke:#d3d3d3;stroke-width:0.25;stroke-linecap:butt;stroke-linejoin:round;stroke-miterlimit:10;stroke-dasharray:1.6, 0.4, 0.25, 0.4;stroke-dashoffset:0;stroke-opacity:1"
           d="M 149.58545,38.016 V 304.128" /></g></g><g
       id="g244"><path
         id="path246"
         style="fill:#000000;fill-opacity:1;fill-rule:nonzero;stroke:#000000;stroke-width:0.6;stroke-linecap:butt;stroke-linejoin:round;stroke-miterlimit:10;stroke-dasharray:none;stroke-opacity:1"
         d="m 149.58545,38.016 v -2" /></g><g
       id="g248"><g
         clip-path="url(#clipPath254)"
         id="g250"><path
           id="path256"
           style="fill:none;stroke:#d3d3d3;stroke-width:0.25;stroke-linecap:butt;stroke-linejoin:round;stroke-miterlimit:10;stroke-dasharray:1.6, 0.4, 0.25, 0.4;stroke-dashoffset:0;stroke-opacity:1"
           d="M 160.40727,38.016 V 304.128" /></g></g><g
       id="g258"><path
         id="path260"
         style="fill:#000000;fill-opacity:1;fill-rule:nonzero;stroke:#000000;stroke-width:0.6;stroke-linecap:butt;stroke-linejoin:round;stroke-miterlimit:10;stroke-dasharray:none;stroke-opacity:1"
         d="m 160.40727,38.016 v -2" /></g><g
       id="g262"><g
         clip-path="url(#clipPath268)"
         id="g264"><path
           id="path270"
           style="fill:none;stroke:#d3d3d3;stroke-width:0.25;stroke-linecap:butt;stroke-linejoin:round;stroke-miterlimit:10;stroke-dasharray:1.6, 0.4, 0.25, 0.4;stroke-dashoffset:0;stroke-opacity:1"
           d="M 171.22909,38.016 V 304.128" /></g></g><g
       id="g272"><path
         id="path274"
         style="fill:#000000;fill-opacity:1;fill-rule:nonzero;stroke:#000000;stroke-width:0.6;stroke-linecap:butt;stroke-linejoin:round;stroke-miterlimit:10;stroke-dasharray:none;stroke-opacity:1"
         d="m 171.22909,38.016 v -2" /></g><g
       id="g276"><g
         clip-path="url(#clipPath282)"
         id="g278"><path
           id="path284"
           style="fill:none;stroke:#d3d3d3;stroke-width:0.25;stroke-linecap:butt;stroke-linejoin:round;stroke-miterlimit:10;stroke-dasharray:1.6, 0.4, 0.25, 0.4;stroke-dashoffset:0;stroke-opacity:1"
           d="M 192.87273,38.016 V 304.128" /></g></g><g
       id="g286"><path
         id="path288"
         style="fill:#000000;fill-opacity:1;fill-rule:nonzero;stroke:#000000;stroke-width:0.6;stroke-linecap:butt;stroke-linejoin:round;stroke-miterlimit:10;stroke-dasharray:none;stroke-opacity:1"
         d="m 192.87273,38.016 v -2" /></g><g
       id="g290"><g
         clip-path="url(#clipPath296)"
         id="g292"><path
           id="path298"
           style="fill:none;stroke:#d3d3d3;stroke-width:0.25;stroke-linecap:butt;stroke-linejoin:round;stroke-miterlimit:10;stroke-dasharray:1.6, 0.4, 0.25, 0.4;stroke-dashoffset:0;stroke-opacity:1"
           d="M 203.69454,38.016 V 304.128" /></g></g><g
       id="g300"><path
         id="path302"
         style="fill:#000000;fill-opacity:1;fill-rule:nonzero;stroke:#000000;stroke-width:0.6;stroke-linecap:butt;stroke-linejoin:round;stroke-miterlimit:10;stroke-dasharray:none;stroke-opacity:1"
         d="m 203.69454,38.016 v -2" /></g><g
       id="g304"><g
         clip-path="url(#clipPath310)"
         id="g306"><path
           id="path312"
           style="fill:none;stroke:#d3d3d3;stroke-width:0.25;stroke-linecap:butt;stroke-linejoin:round;stroke-miterlimit:10;stroke-dasharray:1.6, 0.4, 0.25, 0.4;stroke-dashoffset:0;stroke-opacity:1"
           d="M 214.51636,38.016 V 304.128" /></g></g><g
       id="g314"><path
         id="path316"
         style="fill:#000000;fill-opacity:1;fill-rule:nonzero;stroke:#000000;stroke-width:0.6;stroke-linecap:butt;stroke-linejoin:round;stroke-miterlimit:10;stroke-dasharray:none;stroke-opacity:1"
         d="m 214.51636,38.016 v -2" /></g><g
       id="g318"><g
         clip-path="url(#clipPath324)"
         id="g320"><path
           id="path326"
           style="fill:none;stroke:#d3d3d3;stroke-width:0.25;stroke-linecap:butt;stroke-linejoin:round;stroke-miterlimit:10;stroke-dasharray:1.6, 0.4, 0.25, 0.4;stroke-dashoffset:0;stroke-opacity:1"
           d="M 225.33818,38.016 V 304.128" /></g></g><g
       id="g328"><path
         id="path330"
         style="fill:#000000;fill-opacity:1;fill-rule:nonzero;stroke:#000000;stroke-width:0.6;stroke-linecap:butt;stroke-linejoin:round;stroke-miterlimit:10;stroke-dasharray:none;stroke-opacity:1"
         d="m 225.33818,38.016 v -2" /></g><g
       id="g332"><g
         clip-path="url(#clipPath338)"
         id="g334"><path
           id="path340"
           style="fill:none;stroke:#d3d3d3;stroke-width:0.25;stroke-linecap:butt;stroke-linejoin:round;stroke-miterlimit:10;stroke-dasharray:1.6, 0.4, 0.25, 0.4;stroke-dashoffset:0;stroke-opacity:1"
           d="M 246.98182,38.016 V 304.128" /></g></g><g
       id="g342"><path
         id="path344"
         style="fill:#000000;fill-opacity:1;fill-rule:nonzero;stroke:#000000;stroke-width:0.6;stroke-linecap:butt;stroke-linejoin:round;stroke-miterlimit:10;stroke-dasharray:none;stroke-opacity:1"
         d="m 246.98182,38.016 v -2" /></g><g
       id="g346"><g
         clip-path="url(#clipPath352)"
         id="g348"><path
           id="path354"
           style="fill:none;stroke:#d3d3d3;stroke-width:0.25;stroke-linecap:butt;stroke-linejoin:round;stroke-miterlimit:10;stroke-dasharray:1.6, 0.4, 0.25, 0.4;stroke-dashoffset:0;stroke-opacity:1"
           d="M 257.80364,38.016 V 304.128" /></g></g><g
       id="g356"><path
         id="path358"
         style="fill:#000000;fill-opacity:1;fill-rule:nonzero;stroke:#000000;stroke-width:0.6;stroke-linecap:butt;stroke-linejoin:round;stroke-miterlimit:10;stroke-dasharray:none;stroke-opacity:1"
         d="m 257.80364,38.016 v -2" /></g><g
       id="g360"><g
         clip-path="url(#clipPath366)"
         id="g362"><path
           id="path368"
           style="fill:none;stroke:#d3d3d3;stroke-width:0.25;stroke-linecap:butt;stroke-linejoin:round;stroke-miterlimit:10;stroke-dasharray:1.6, 0.4, 0.25, 0.4;stroke-dashoffset:0;stroke-opacity:1"
           d="M 268.62545,38.016 V 304.128" /></g></g><g
       id="g370"><path
         id="path372"
         style="fill:#000000;fill-opacity:1;fill-rule:nonzero;stroke:#000000;stroke-width:0.6;stroke-linecap:butt;stroke-linejoin:round;stroke-miterlimit:10;stroke-dasharray:none;stroke-opacity:1"
         d="m 268.62545,38.016 v -2" /></g><g
       id="g374"><g
         clip-path="url(#clipPath380)"
         id="g376"><path
           id="path382"
           style="fill:none;stroke:#d3d3d3;stroke-width:0.25;stroke-linecap:butt;stroke-linejoin:round;stroke-miterlimit:10;stroke-dasharray:1.6, 0.4, 0.25, 0.4;stroke-dashoffset:0;stroke-opacity:1"
           d="M 279.44727,38.016 V 304.128" /></g></g><g
       id="g384"><path
         id="path386"
         style="fill:#000000;fill-opacity:1;fill-rule:nonzero;stroke:#000000;stroke-width:0.6;stroke-linecap:butt;stroke-linejoin:round;stroke-miterlimit:10;stroke-dasharray:none;stroke-opacity:1"
         d="m 279.44727,38.016 v -2" /></g><g
       id="g388"><g
         clip-path="url(#clipPath394)"
         id="g390"><path
           id="path396"
           style="fill:none;stroke:#d3d3d3;stroke-width:0.25;stroke-linecap:butt;stroke-linejoin:round;stroke-miterlimit:10;stroke-dasharray:1.6, 0.4, 0.25, 0.4;stroke-dashoffset:0;stroke-opacity:1"
           d="M 301.09091,38.016 V 304.128" /></g></g><g
       id="g398"><path
         id="path400"
         style="fill:#000000;fill-opacity:1;fill-rule:nonzero;stroke:#000000;stroke-width:0.6;stroke-linecap:butt;stroke-linejoin:round;stroke-miterlimit:10;stroke-dasharray:none;stroke-opacity:1"
         d="m 301.09091,38.016 v -2" /></g><g
       id="g402"><g
         clip-path="url(#clipPath408)"
         id="g404"><path
           id="path410"
           style="fill:none;stroke:#d3d3d3;stroke-width:0.25;stroke-linecap:butt;stroke-linejoin:round;stroke-miterlimit:10;stroke-dasharray:1.6, 0.4, 0.25, 0.4;stroke-dashoffset:0;stroke-opacity:1"
           d="M 311.91273,38.016 V 304.128" /></g></g><g
       id="g412"><path
         id="path414"
         style="fill:#000000;fill-opacity:1;fill-rule:nonzero;stroke:#000000;stroke-width:0.6;stroke-linecap:butt;stroke-linejoin:round;stroke-miterlimit:10;stroke-dasharray:none;stroke-opacity:1"
         d="m 311.91273,38.016 v -2" /></g><g
       id="g416"><g
         clip-path="url(#clipPath422)"
         id="g418"><path
           id="path424"
           style="fill:none;stroke:#d3d3d3;stroke-width:0.25;stroke-linecap:butt;stroke-linejoin:round;stroke-miterlimit:10;stroke-dasharray:1.6, 0.4, 0.25, 0.4;stroke-dashoffset:0;stroke-opacity:1"
           d="M 322.73454,38.016 V 304.128" /></g></g><g
       id="g426"><path
         id="path428"
         style="fill:#000000;fill-opacity:1;fill-rule:nonzero;stroke:#000000;stroke-width:0.6;stroke-linecap:butt;stroke-linejoin:round;stroke-miterlimit:10;stroke-dasharray:none;stroke-opacity:1"
         d="m 322.73454,38.016 v -2" /></g><g
       id="g430"><g
         clip-path="url(#clipPath436)"
         id="g432"><path
           id="path438"
           style="fill:none;stroke:#d3d3d3;stroke-width:0.25;stroke-linecap:butt;stroke-linejoin:round;stroke-miterlimit:10;stroke-dasharray:1.6, 0.4, 0.25, 0.4;stroke-dashoffset:0;stroke-opacity:1"
           d="M 333.55636,38.016 V 304.128" /></g></g><g
       id="g440"><path
         id="path442"
         style="fill:#000000;fill-opacity:1;fill-rule:nonzero;stroke:#000000;stroke-width:0.6;stroke-linecap:butt;stroke-linejoin:round;stroke-miterlimit:10;stroke-dasharray:none;stroke-opacity:1"
         d="m 333.55636,38.016 v -2" /></g><g
       id="g444"><g
         clip-path="url(#clipPath450)"
         id="g446"><path
           id="path452"
           style="fill:none;stroke:#d3d3d3;stroke-width:0.25;stroke-linecap:butt;stroke-linejoin:round;stroke-miterlimit:10;stroke-dasharray:1.6, 0.4, 0.25, 0.4;stroke-dashoffset:0;stroke-opacity:1"
           d="M 355.2,38.016 V 304.128" /></g></g><g
       id="g454"><path
         id="path456"
         style="fill:#000000;fill-opacity:1;fill-rule:nonzero;stroke:#000000;stroke-width:0.6;stroke-linecap:butt;stroke-linejoin:round;stroke-miterlimit:10;stroke-dasharray:none;stroke-opacity:1"
         d="m 355.2,38.016 v -2" /></g><g
       id="g458"><g
         clip-path="url(#clipPath464)"
         id="g460"><path
           id="path466"
           style="fill:none;stroke:#d3d3d3;stroke-width:0.25;stroke-linecap:butt;stroke-linejoin:round;stroke-miterlimit:10;stroke-dasharray:1.6, 0.4, 0.25, 0.4;stroke-dashoffset:0;stroke-opacity:1"
           d="M 366.02182,38.016 V 304.128" /></g></g><g
       id="g468"><path
         id="path470"
         style="fill:#000000;fill-opacity:1;fill-rule:nonzero;stroke:#000000;stroke-width:0.6;stroke-linecap:butt;stroke-linejoin:round;stroke-miterlimit:10;stroke-dasharray:none;stroke-opacity:1"
         d="m 366.02182,38.016 v -2" /></g><g
       id="g472"><g
         clip-path="url(#clipPath478)"
         id="g474"><path
           id="path480"
           style="fill:none;stroke:#d3d3d3;stroke-width:0.25;stroke-linecap:butt;stroke-linejoin:round;stroke-miterlimit:10;stroke-dasharray:1.6, 0.4, 0.25, 0.4;stroke-dashoffset:0;stroke-opacity:1"
           d="M 376.84364,38.016 V 304.128" /></g></g><g
       id="g482"><path
         id="path484"
         style="fill:#000000;fill-opacity:1;fill-rule:nonzero;stroke:#000000;stroke-width:0.6;stroke-linecap:butt;stroke-linejoin:round;stroke-miterlimit:10;stroke-dasharray:none;stroke-opacity:1"
         d="m 376.84364,38.016 v -2" /></g><g
       id="g486"><g
         clip-path="url(#clipPath492)"
         id="g488"><path
           id="path494"
           style="fill:none;stroke:#d3d3d3;stroke-width:0.25;stroke-linecap:butt;stroke-linejoin:round;stroke-miterlimit:10;stroke-dasharray:1.6, 0.4, 0.25, 0.4;stroke-dashoffset:0;stroke-opacity:1"
           d="M 387.66545,38.016 V 304.128" /></g></g><g
       id="g496"><path
         id="path498"
         style="fill:#000000;fill-opacity:1;fill-rule:nonzero;stroke:#000000;stroke-width:0.6;stroke-linecap:butt;stroke-linejoin:round;stroke-miterlimit:10;stroke-dasharray:none;stroke-opacity:1"
         d="m 387.66545,38.016 v -2" /></g><g
       id="g500"><g
         clip-path="url(#clipPath506)"
         id="g502"><path
           id="path508"
           style="fill:none;stroke:#d3d3d3;stroke-width:0.25;stroke-linecap:butt;stroke-linejoin:round;stroke-miterlimit:10;stroke-dasharray:1.6, 0.4, 0.25, 0.4;stroke-dashoffset:0;stroke-opacity:1"
           d="M 409.30909,38.016 V 304.128" /></g></g><g
       id="g510"><path
         id="path512"
         style="fill:#000000;fill-opacity:1;fill-rule:nonzero;stroke:#000000;stroke-width:0.6;stroke-linecap:butt;stroke-linejoin:round;stroke-miterlimit:10;stroke-dasharray:none;stroke-opacity:1"
         d="m 409.30909,38.016 v -2" /><text
         id="text516"
         style="font-variant:normal;font-weight:normal;font-size:10px;font-family:'DejaVu Sans Mono for Powerline';-inkscape-font-specification:DejaVuSans;writing-mode:lr-tb;fill:#000000;fill-opacity:1;fill-rule:nonzero;stroke:none"
         transform="matrix(1,0,0,-1,212.60531,9.750375)"><tspan
           id="tspan514"
           y="0"
           x="0 6.1100001 8.8900003 18.629999 24.780001 27.959999 31.860001 38.209999 43.419998">Time (ps)</tspan></text></g><g
       id="g518"><g
         clip-path="url(#clipPath524)"
         id="g520"><path
           id="path526"
           style="fill:none;stroke:#d3d3d3;stroke-width:0.25;stroke-linecap:butt;stroke-linejoin:round;stroke-miterlimit:10;stroke-dasharray:1.6, 0.4, 0.25, 0.4;stroke-dashoffset:0;stroke-opacity:1"
           d="M 57.6,79.161619 H 414.72" /></g></g><g
       id="g528"><path
         id="path530"
         style="fill:#000000;fill-opacity:1;fill-rule:nonzero;stroke:#000000;stroke-width:0.8;stroke-linecap:butt;stroke-linejoin:round;stroke-miterlimit:10;stroke-dasharray:none;stroke-opacity:1"
         d="M 57.6,79.161619 H 54.1" /><text
         id="text534"
         style="font-variant:normal;font-weight:normal;font-size:10px;font-family:'DejaVu Sans Mono for Powerline';-inkscape-font-specification:DejaVuSans;writing-mode:lr-tb;fill:#000000;fill-opacity:1;fill-rule:nonzero;stroke:none"
         transform="matrix(1,0,0,-1,44.240625,75.364744)"><tspan
           id="tspan532"
           y="0"
           x="0">5</tspan></text></g><g
       id="g536"><g
         clip-path="url(#clipPath542)"
         id="g538"><path
           id="path544"
           style="fill:none;stroke:#d3d3d3;stroke-width:0.25;stroke-linecap:butt;stroke-linejoin:round;stroke-miterlimit:10;stroke-dasharray:1.6, 0.4, 0.25, 0.4;stroke-dashoffset:0;stroke-opacity:1"
           d="M 57.6,124.56758 H 414.72" /></g></g><g
       id="g546"><path
         id="path548"
         style="fill:#000000;fill-opacity:1;fill-rule:nonzero;stroke:#000000;stroke-width:0.8;stroke-linecap:butt;stroke-linejoin:round;stroke-miterlimit:10;stroke-dasharray:none;stroke-opacity:1"
         d="M 57.6,124.56758 H 54.1" /><text
         id="text552"
         style="font-variant:normal;font-weight:normal;font-size:10px;font-family:'DejaVu Sans Mono for Powerline';-inkscape-font-specification:DejaVuSans;writing-mode:lr-tb;fill:#000000;fill-opacity:1;fill-rule:nonzero;stroke:none"
         transform="matrix(1,0,0,-1,37.88125,120.77071)"><tspan
           id="tspan550"
           y="0"
           x="0 6.3600001">10</tspan></text></g><g
       id="g554"><g
         clip-path="url(#clipPath560)"
         id="g556"><path
           id="path562"
           style="fill:none;stroke:#d3d3d3;stroke-width:0.25;stroke-linecap:butt;stroke-linejoin:round;stroke-miterlimit:10;stroke-dasharray:1.6, 0.4, 0.25, 0.4;stroke-dashoffset:0;stroke-opacity:1"
           d="M 57.6,169.97355 H 414.72" /></g></g><g
       id="g564"><path
         id="path566"
         style="fill:#000000;fill-opacity:1;fill-rule:nonzero;stroke:#000000;stroke-width:0.8;stroke-linecap:butt;stroke-linejoin:round;stroke-miterlimit:10;stroke-dasharray:none;stroke-opacity:1"
         d="M 57.6,169.97355 H 54.1" /><text
         id="text570"
         style="font-variant:normal;font-weight:normal;font-size:10px;font-family:'DejaVu Sans Mono for Powerline';-inkscape-font-specification:DejaVuSans;writing-mode:lr-tb;fill:#000000;fill-opacity:1;fill-rule:nonzero;stroke:none"
         transform="matrix(1,0,0,-1,37.88125,166.17667)"><tspan
           id="tspan568"
           y="0"
           x="0 6.3600001">15</tspan></text></g><g
       id="g572"><g
         clip-path="url(#clipPath578)"
         id="g574"><path
           id="path580"
           style="fill:none;stroke:#d3d3d3;stroke-width:0.25;stroke-linecap:butt;stroke-linejoin:round;stroke-miterlimit:10;stroke-dasharray:1.6, 0.4, 0.25, 0.4;stroke-dashoffset:0;stroke-opacity:1"
           d="M 57.6,215.37951 H 414.72" /></g></g><g
       id="g582"><path
         id="path584"
         style="fill:#000000;fill-opacity:1;fill-rule:nonzero;stroke:#000000;stroke-width:0.8;stroke-linecap:butt;stroke-linejoin:round;stroke-miterlimit:10;stroke-dasharray:none;stroke-opacity:1"
         d="M 57.6,215.37951 H 54.1" /><text
         id="text588"
         style="font-variant:normal;font-weight:normal;font-size:10px;font-family:'DejaVu Sans Mono for Powerline';-inkscape-font-specification:DejaVuSans;writing-mode:lr-tb;fill:#000000;fill-opacity:1;fill-rule:nonzero;stroke:none"
         transform="matrix(1,0,0,-1,37.88125,211.58264)"><tspan
           id="tspan586"
           y="0"
           x="0 6.3600001">20</tspan></text></g><g
       id="g590"><g
         clip-path="url(#clipPath596)"
         id="g592"><path
           id="path598"
           style="fill:none;stroke:#d3d3d3;stroke-width:0.25;stroke-linecap:butt;stroke-linejoin:round;stroke-miterlimit:10;stroke-dasharray:1.6, 0.4, 0.25, 0.4;stroke-dashoffset:0;stroke-opacity:1"
           d="M 57.6,260.78548 H 414.72" /></g></g><g
       id="g600"><path
         id="path602"
         style="fill:#000000;fill-opacity:1;fill-rule:nonzero;stroke:#000000;stroke-width:0.8;stroke-linecap:butt;stroke-linejoin:round;stroke-miterlimit:10;stroke-dasharray:none;stroke-opacity:1"
         d="M 57.6,260.78548 H 54.1" /><text
         id="text606"
         style="font-variant:normal;font-weight:normal;font-size:10px;font-family:'DejaVu Sans Mono for Powerline';-inkscape-font-specification:DejaVuSans;writing-mode:lr-tb;fill:#000000;fill-opacity:1;fill-rule:nonzero;stroke:none"
         transform="matrix(1,0,0,-1,37.88125,256.98861)"><tspan
           id="tspan604"
           y="0"
           x="0 6.3600001">25</tspan></text></g><g
       id="g608"><g
         clip-path="url(#clipPath614)"
         id="g610"><path
           id="path616"
           style="fill:none;stroke:#d3d3d3;stroke-width:0.25;stroke-linecap:butt;stroke-linejoin:round;stroke-miterlimit:10;stroke-dasharray:1.6, 0.4, 0.25, 0.4;stroke-dashoffset:0;stroke-opacity:1"
           d="M 57.6,42.836846 H 414.72" /></g></g><g
       id="g618"><path
         id="path620"
         style="fill:#000000;fill-opacity:1;fill-rule:nonzero;stroke:#000000;stroke-width:0.6;stroke-linecap:butt;stroke-linejoin:round;stroke-miterlimit:10;stroke-dasharray:none;stroke-opacity:1"
         d="m 57.6,42.836846 h -2" /></g><g
       id="g622"><g
         clip-path="url(#clipPath628)"
         id="g624"><path
           id="path630"
           style="fill:none;stroke:#d3d3d3;stroke-width:0.25;stroke-linecap:butt;stroke-linejoin:round;stroke-miterlimit:10;stroke-dasharray:1.6, 0.4, 0.25, 0.4;stroke-dashoffset:0;stroke-opacity:1"
           d="M 57.6,51.918039 H 414.72" /></g></g><g
       id="g632"><path
         id="path634"
         style="fill:#000000;fill-opacity:1;fill-rule:nonzero;stroke:#000000;stroke-width:0.6;stroke-linecap:butt;stroke-linejoin:round;stroke-miterlimit:10;stroke-dasharray:none;stroke-opacity:1"
         d="m 57.6,51.918039 h -2" /></g><g
       id="g636"><g
         clip-path="url(#clipPath642)"
         id="g638"><path
           id="path644"
           style="fill:none;stroke:#d3d3d3;stroke-width:0.25;stroke-linecap:butt;stroke-linejoin:round;stroke-miterlimit:10;stroke-dasharray:1.6, 0.4, 0.25, 0.4;stroke-dashoffset:0;stroke-opacity:1"
           d="M 57.6,60.999233 H 414.72" /></g></g><g
       id="g646"><path
         id="path648"
         style="fill:#000000;fill-opacity:1;fill-rule:nonzero;stroke:#000000;stroke-width:0.6;stroke-linecap:butt;stroke-linejoin:round;stroke-miterlimit:10;stroke-dasharray:none;stroke-opacity:1"
         d="m 57.6,60.999233 h -2" /></g><g
       id="g650"><g
         clip-path="url(#clipPath656)"
         id="g652"><path
           id="path658"
           style="fill:none;stroke:#d3d3d3;stroke-width:0.25;stroke-linecap:butt;stroke-linejoin:round;stroke-miterlimit:10;stroke-dasharray:1.6, 0.4, 0.25, 0.4;stroke-dashoffset:0;stroke-opacity:1"
           d="M 57.6,70.080426 H 414.72" /></g></g><g
       id="g660"><path
         id="path662"
         style="fill:#000000;fill-opacity:1;fill-rule:nonzero;stroke:#000000;stroke-width:0.6;stroke-linecap:butt;stroke-linejoin:round;stroke-miterlimit:10;stroke-dasharray:none;stroke-opacity:1"
         d="m 57.6,70.080426 h -2" /></g><g
       id="g664"><g
         clip-path="url(#clipPath670)"
         id="g666"><path
           id="path672"
           style="fill:none;stroke:#d3d3d3;stroke-width:0.25;stroke-linecap:butt;stroke-linejoin:round;stroke-miterlimit:10;stroke-dasharray:1.6, 0.4, 0.25, 0.4;stroke-dashoffset:0;stroke-opacity:1"
           d="M 57.6,88.242812 H 414.72" /></g></g><g
       id="g674"><path
         id="path676"
         style="fill:#000000;fill-opacity:1;fill-rule:nonzero;stroke:#000000;stroke-width:0.6;stroke-linecap:butt;stroke-linejoin:round;stroke-miterlimit:10;stroke-dasharray:none;stroke-opacity:1"
         d="m 57.6,88.242812 h -2" /></g><g
       id="g678"><g
         clip-path="url(#clipPath684)"
         id="g680"><path
           id="path686"
           style="fill:none;stroke:#d3d3d3;stroke-width:0.25;stroke-linecap:butt;stroke-linejoin:round;stroke-miterlimit:10;stroke-dasharray:1.6, 0.4, 0.25, 0.4;stroke-dashoffset:0;stroke-opacity:1"
           d="M 57.6,97.324005 H 414.72" /></g></g><g
       id="g688"><path
         id="path690"
         style="fill:#000000;fill-opacity:1;fill-rule:nonzero;stroke:#000000;stroke-width:0.6;stroke-linecap:butt;stroke-linejoin:round;stroke-miterlimit:10;stroke-dasharray:none;stroke-opacity:1"
         d="m 57.6,97.324005 h -2" /></g><g
       id="g692"><g
         clip-path="url(#clipPath698)"
         id="g694"><path
           id="path700"
           style="fill:none;stroke:#d3d3d3;stroke-width:0.25;stroke-linecap:butt;stroke-linejoin:round;stroke-miterlimit:10;stroke-dasharray:1.6, 0.4, 0.25, 0.4;stroke-dashoffset:0;stroke-opacity:1"
           d="M 57.6,106.4052 H 414.72" /></g></g><g
       id="g702"><path
         id="path704"
         style="fill:#000000;fill-opacity:1;fill-rule:nonzero;stroke:#000000;stroke-width:0.6;stroke-linecap:butt;stroke-linejoin:round;stroke-miterlimit:10;stroke-dasharray:none;stroke-opacity:1"
         d="m 57.6,106.4052 h -2" /></g><g
       id="g706"><g
         clip-path="url(#clipPath712)"
         id="g708"><path
           id="path714"
           style="fill:none;stroke:#d3d3d3;stroke-width:0.25;stroke-linecap:butt;stroke-linejoin:round;stroke-miterlimit:10;stroke-dasharray:1.6, 0.4, 0.25, 0.4;stroke-dashoffset:0;stroke-opacity:1"
           d="M 57.6,115.48639 H 414.72" /></g></g><g
       id="g716"><path
         id="path718"
         style="fill:#000000;fill-opacity:1;fill-rule:nonzero;stroke:#000000;stroke-width:0.6;stroke-linecap:butt;stroke-linejoin:round;stroke-miterlimit:10;stroke-dasharray:none;stroke-opacity:1"
         d="m 57.6,115.48639 h -2" /></g><g
       id="g720"><g
         clip-path="url(#clipPath726)"
         id="g722"><path
           id="path728"
           style="fill:none;stroke:#d3d3d3;stroke-width:0.25;stroke-linecap:butt;stroke-linejoin:round;stroke-miterlimit:10;stroke-dasharray:1.6, 0.4, 0.25, 0.4;stroke-dashoffset:0;stroke-opacity:1"
           d="M 57.6,133.64878 H 414.72" /></g></g><g
       id="g730"><path
         id="path732"
         style="fill:#000000;fill-opacity:1;fill-rule:nonzero;stroke:#000000;stroke-width:0.6;stroke-linecap:butt;stroke-linejoin:round;stroke-miterlimit:10;stroke-dasharray:none;stroke-opacity:1"
         d="m 57.6,133.64878 h -2" /></g><g
       id="g734"><g
         clip-path="url(#clipPath740)"
         id="g736"><path
           id="path742"
           style="fill:none;stroke:#d3d3d3;stroke-width:0.25;stroke-linecap:butt;stroke-linejoin:round;stroke-miterlimit:10;stroke-dasharray:1.6, 0.4, 0.25, 0.4;stroke-dashoffset:0;stroke-opacity:1"
           d="M 57.6,142.72997 H 414.72" /></g></g><g
       id="g744"><path
         id="path746"
         style="fill:#000000;fill-opacity:1;fill-rule:nonzero;stroke:#000000;stroke-width:0.6;stroke-linecap:butt;stroke-linejoin:round;stroke-miterlimit:10;stroke-dasharray:none;stroke-opacity:1"
         d="m 57.6,142.72997 h -2" /></g><g
       id="g748"><g
         clip-path="url(#clipPath754)"
         id="g750"><path
           id="path756"
           style="fill:none;stroke:#d3d3d3;stroke-width:0.25;stroke-linecap:butt;stroke-linejoin:round;stroke-miterlimit:10;stroke-dasharray:1.6, 0.4, 0.25, 0.4;stroke-dashoffset:0;stroke-opacity:1"
           d="M 57.6,151.81116 H 414.72" /></g></g><g
       id="g758"><path
         id="path760"
         style="fill:#000000;fill-opacity:1;fill-rule:nonzero;stroke:#000000;stroke-width:0.6;stroke-linecap:butt;stroke-linejoin:round;stroke-miterlimit:10;stroke-dasharray:none;stroke-opacity:1"
         d="m 57.6,151.81116 h -2" /></g><g
       id="g762"><g
         clip-path="url(#clipPath768)"
         id="g764"><path
           id="path770"
           style="fill:none;stroke:#d3d3d3;stroke-width:0.25;stroke-linecap:butt;stroke-linejoin:round;stroke-miterlimit:10;stroke-dasharray:1.6, 0.4, 0.25, 0.4;stroke-dashoffset:0;stroke-opacity:1"
           d="M 57.6,160.89236 H 414.72" /></g></g><g
       id="g772"><path
         id="path774"
         style="fill:#000000;fill-opacity:1;fill-rule:nonzero;stroke:#000000;stroke-width:0.6;stroke-linecap:butt;stroke-linejoin:round;stroke-miterlimit:10;stroke-dasharray:none;stroke-opacity:1"
         d="m 57.6,160.89236 h -2" /></g><g
       id="g776"><g
         clip-path="url(#clipPath782)"
         id="g778"><path
           id="path784"
           style="fill:none;stroke:#d3d3d3;stroke-width:0.25;stroke-linecap:butt;stroke-linejoin:round;stroke-miterlimit:10;stroke-dasharray:1.6, 0.4, 0.25, 0.4;stroke-dashoffset:0;stroke-opacity:1"
           d="M 57.6,179.05474 H 414.72" /></g></g><g
       id="g786"><path
         id="path788"
         style="fill:#000000;fill-opacity:1;fill-rule:nonzero;stroke:#000000;stroke-width:0.6;stroke-linecap:butt;stroke-linejoin:round;stroke-miterlimit:10;stroke-dasharray:none;stroke-opacity:1"
         d="m 57.6,179.05474 h -2" /></g><g
       id="g790"><g
         clip-path="url(#clipPath796)"
         id="g792"><path
           id="path798"
           style="fill:none;stroke:#d3d3d3;stroke-width:0.25;stroke-linecap:butt;stroke-linejoin:round;stroke-miterlimit:10;stroke-dasharray:1.6, 0.4, 0.25, 0.4;stroke-dashoffset:0;stroke-opacity:1"
           d="M 57.6,188.13594 H 414.72" /></g></g><g
       id="g800"><path
         id="path802"
         style="fill:#000000;fill-opacity:1;fill-rule:nonzero;stroke:#000000;stroke-width:0.6;stroke-linecap:butt;stroke-linejoin:round;stroke-miterlimit:10;stroke-dasharray:none;stroke-opacity:1"
         d="m 57.6,188.13594 h -2" /></g><g
       id="g804"><g
         clip-path="url(#clipPath810)"
         id="g806"><path
           id="path812"
           style="fill:none;stroke:#d3d3d3;stroke-width:0.25;stroke-linecap:butt;stroke-linejoin:round;stroke-miterlimit:10;stroke-dasharray:1.6, 0.4, 0.25, 0.4;stroke-dashoffset:0;stroke-opacity:1"
           d="M 57.6,197.21713 H 414.72" /></g></g><g
       id="g814"><path
         id="path816"
         style="fill:#000000;fill-opacity:1;fill-rule:nonzero;stroke:#000000;stroke-width:0.6;stroke-linecap:butt;stroke-linejoin:round;stroke-miterlimit:10;stroke-dasharray:none;stroke-opacity:1"
         d="m 57.6,197.21713 h -2" /></g><g
       id="g818"><g
         clip-path="url(#clipPath824)"
         id="g820"><path
           id="path826"
           style="fill:none;stroke:#d3d3d3;stroke-width:0.25;stroke-linecap:butt;stroke-linejoin:round;stroke-miterlimit:10;stroke-dasharray:1.6, 0.4, 0.25, 0.4;stroke-dashoffset:0;stroke-opacity:1"
           d="M 57.6,206.29832 H 414.72" /></g></g><g
       id="g828"><path
         id="path830"
         style="fill:#000000;fill-opacity:1;fill-rule:nonzero;stroke:#000000;stroke-width:0.6;stroke-linecap:butt;stroke-linejoin:round;stroke-miterlimit:10;stroke-dasharray:none;stroke-opacity:1"
         d="m 57.6,206.29832 h -2" /></g><g
       id="g832"><g
         clip-path="url(#clipPath838)"
         id="g834"><path
           id="path840"
           style="fill:none;stroke:#d3d3d3;stroke-width:0.25;stroke-linecap:butt;stroke-linejoin:round;stroke-miterlimit:10;stroke-dasharray:1.6, 0.4, 0.25, 0.4;stroke-dashoffset:0;stroke-opacity:1"
           d="M 57.6,224.46071 H 414.72" /></g></g><g
       id="g842"><path
         id="path844"
         style="fill:#000000;fill-opacity:1;fill-rule:nonzero;stroke:#000000;stroke-width:0.6;stroke-linecap:butt;stroke-linejoin:round;stroke-miterlimit:10;stroke-dasharray:none;stroke-opacity:1"
         d="m 57.6,224.46071 h -2" /></g><g
       id="g846"><g
         clip-path="url(#clipPath852)"
         id="g848"><path
           id="path854"
           style="fill:none;stroke:#d3d3d3;stroke-width:0.25;stroke-linecap:butt;stroke-linejoin:round;stroke-miterlimit:10;stroke-dasharray:1.6, 0.4, 0.25, 0.4;stroke-dashoffset:0;stroke-opacity:1"
           d="M 57.6,233.5419 H 414.72" /></g></g><g
       id="g856"><path
         id="path858"
         style="fill:#000000;fill-opacity:1;fill-rule:nonzero;stroke:#000000;stroke-width:0.6;stroke-linecap:butt;stroke-linejoin:round;stroke-miterlimit:10;stroke-dasharray:none;stroke-opacity:1"
         d="m 57.6,233.5419 h -2" /></g><g
       id="g860"><g
         clip-path="url(#clipPath866)"
         id="g862"><path
           id="path868"
           style="fill:none;stroke:#d3d3d3;stroke-width:0.25;stroke-linecap:butt;stroke-linejoin:round;stroke-miterlimit:10;stroke-dasharray:1.6, 0.4, 0.25, 0.4;stroke-dashoffset:0;stroke-opacity:1"
           d="M 57.6,242.62309 H 414.72" /></g></g><g
       id="g870"><path
         id="path872"
         style="fill:#000000;fill-opacity:1;fill-rule:nonzero;stroke:#000000;stroke-width:0.6;stroke-linecap:butt;stroke-linejoin:round;stroke-miterlimit:10;stroke-dasharray:none;stroke-opacity:1"
         d="m 57.6,242.62309 h -2" /></g><g
       id="g874"><g
         clip-path="url(#clipPath880)"
         id="g876"><path
           id="path882"
           style="fill:none;stroke:#d3d3d3;stroke-width:0.25;stroke-linecap:butt;stroke-linejoin:round;stroke-miterlimit:10;stroke-dasharray:1.6, 0.4, 0.25, 0.4;stroke-dashoffset:0;stroke-opacity:1"
           d="M 57.6,251.70429 H 414.72" /></g></g><g
       id="g884"><path
         id="path886"
         style="fill:#000000;fill-opacity:1;fill-rule:nonzero;stroke:#000000;stroke-width:0.6;stroke-linecap:butt;stroke-linejoin:round;stroke-miterlimit:10;stroke-dasharray:none;stroke-opacity:1"
         d="m 57.6,251.70429 h -2" /></g><g
       id="g888"><g
         clip-path="url(#clipPath894)"
         id="g890"><path
           id="path896"
           style="fill:none;stroke:#d3d3d3;stroke-width:0.25;stroke-linecap:butt;stroke-linejoin:round;stroke-miterlimit:10;stroke-dasharray:1.6, 0.4, 0.25, 0.4;stroke-dashoffset:0;stroke-opacity:1"
           d="M 57.6,269.86667 H 414.72" /></g></g><g
       id="g898"><path
         id="path900"
         style="fill:#000000;fill-opacity:1;fill-rule:nonzero;stroke:#000000;stroke-width:0.6;stroke-linecap:butt;stroke-linejoin:round;stroke-miterlimit:10;stroke-dasharray:none;stroke-opacity:1"
         d="m 57.6,269.86667 h -2" /></g><g
       id="g902"><g
         clip-path="url(#clipPath908)"
         id="g904"><path
           id="path910"
           style="fill:none;stroke:#d3d3d3;stroke-width:0.25;stroke-linecap:butt;stroke-linejoin:round;stroke-miterlimit:10;stroke-dasharray:1.6, 0.4, 0.25, 0.4;stroke-dashoffset:0;stroke-opacity:1"
           d="M 57.6,278.94787 H 414.72" /></g></g><g
       id="g912"><path
         id="path914"
         style="fill:#000000;fill-opacity:1;fill-rule:nonzero;stroke:#000000;stroke-width:0.6;stroke-linecap:butt;stroke-linejoin:round;stroke-miterlimit:10;stroke-dasharray:none;stroke-opacity:1"
         d="m 57.6,278.94787 h -2" /></g><g
       id="g916"><g
         clip-path="url(#clipPath922)"
         id="g918"><path
           id="path924"
           style="fill:none;stroke:#d3d3d3;stroke-width:0.25;stroke-linecap:butt;stroke-linejoin:round;stroke-miterlimit:10;stroke-dasharray:1.6, 0.4, 0.25, 0.4;stroke-dashoffset:0;stroke-opacity:1"
           d="M 57.6,288.02906 H 414.72" /></g></g><g
       id="g926"><path
         id="path928"
         style="fill:#000000;fill-opacity:1;fill-rule:nonzero;stroke:#000000;stroke-width:0.6;stroke-linecap:butt;stroke-linejoin:round;stroke-miterlimit:10;stroke-dasharray:none;stroke-opacity:1"
         d="m 57.6,288.02906 h -2" /></g><g
       id="g930"><g
         clip-path="url(#clipPath936)"
         id="g932"><path
           id="path938"
           style="fill:none;stroke:#d3d3d3;stroke-width:0.25;stroke-linecap:butt;stroke-linejoin:round;stroke-miterlimit:10;stroke-dasharray:1.6, 0.4, 0.25, 0.4;stroke-dashoffset:0;stroke-opacity:1"
           d="M 57.6,297.11025 H 414.72" /></g></g><g
       id="g940"><path
         id="path942"
         style="fill:#000000;fill-opacity:1;fill-rule:nonzero;stroke:#000000;stroke-width:0.6;stroke-linecap:butt;stroke-linejoin:round;stroke-miterlimit:10;stroke-dasharray:none;stroke-opacity:1"
         d="m 57.6,297.11025 h -2" /><g
         transform="rotate(90,-57.76725,89.570375)"
         id="g944"><text
           id="text948"
           style="font-variant:normal;font-weight:normal;font-size:10px;font-family:'DejaVu Sans Mono for Powerline';-inkscape-font-specification:DejaVuSans;writing-mode:lr-tb;fill:#000000;fill-opacity:1;fill-rule:nonzero;stroke:none"
           transform="scale(1,-1)"><tspan
             id="tspan946"
             y="0"
             x="0 6.9499998 15.58 21.93 29.629999 32.810001 43.544922">RMSD ()</tspan></text><g
           transform="matrix(0.01,0,0,0.01,36.704102,0)"
           id="g950"><g
             id="g952"><g
               clip-path="url(#clipPath958)"
               id="g954"><g
                 id="g960"><path
                   id="path962"
                   style="fill:#000000;fill-opacity:1;fill-rule:nonzero;stroke:none"
                   d="m 416,794 c 0,20 -8,38 -22,52 -14,14 -32,22 -52,22 -21,0 -39,-7 -53,-21 -14,-14 -21,-32 -21,-53 0,-21 7,-39 21,-53 14,-14 32,-21 53,-21 20,0 38,7 52,21 14,14 22,32 22,53 M 342,632 209,269 H 475 L 342,632 m -74,50 c -20,13 -35,29 -45,48 -10,18 -15,40 -15,64 0,37 13,69 39,95 26,26 57,39 95,39 36,0 68,-13 94,-39 26,-26 40,-58 40,-95 0,-23 -6,-44 -16,-63 -10,-20 -25,-36 -44,-49 L 676,0 H 573 L 507,187 H 178 L 112,0 H 8 l 260,682" /></g></g></g></g></g></g><g
       id="g964"><g
         clip-path="url(#clipPath970)"
         id="g966"><path
           id="path972"
           style="fill:none;stroke:#1f77b4;stroke-width:0.5;stroke-linecap:square;stroke-linejoin:round;stroke-miterlimit:10;stroke-dasharray:none;stroke-opacity:1"
           d="m 73.832727,236.35015 0.108218,0.28051 0.108219,-0.34001 0.541091,3.8287 0.324654,5.195 0.108218,0.90507 0.108218,-0.22531 0.108219,0.52816 0.108218,-0.22233 0.216436,-1.19442 0.108218,0.55901 0.108219,-0.41199 0.108218,0.13382 0.216436,-2.01007 0.324655,3.41092 0.324654,-1.42447 0.216437,-0.40621 0.108218,0.17345 0.216436,-1.10897 0.108218,0.18765 0.324655,3.9761 0.216436,-0.76756 0.216437,1.23215 0.324654,-3.51548 0.324655,0.74237 0.108218,-0.50233 0.216436,-2.04404 0.324655,-0.68168 0.108218,-0.21486 0.108218,-1.28762 0.108218,0.52071 0.108218,-1.09925 0.108219,0.17651 0.108218,0.77946 0.216436,-1.31437 0.108218,-0.79383 0.108219,0.79084 0.108218,-2.19455 0.108218,0.38365 0.108218,-0.88373 0.216436,2.19193 0.216437,2.2298 0.216436,1.96676 0.216437,1.48295 0.108218,0.84622 0.108218,-0.83768 0.108218,0.43683 0.108218,-0.64084 0.324655,5.00678 0.541091,4.2786 0.216436,1.64311 0.108218,-0.16927 0.216437,-0.44382 0.324654,1.07497 0.108218,-0.50609 0.108219,0.1714 0.108218,0.99996 0.108218,-0.0217 0.108218,-0.004 0.108218,0.55135 0.108218,-0.54294 0.108219,0.31006 0.216436,-1.35464 0.108218,0.0671 0.108218,-0.24699 0.216437,1.85674 0.108218,-0.16883 0.108218,1.28768 0.108218,-0.14909 0.108218,-0.96576 0.108219,0.18522 0.108218,-1.04801 0.757527,7.0041 0.216436,-1.37634 0.108219,0.63958 0.216436,2.4392 0.108218,0.28805 0.324655,-1.43747 0.216436,2.60304 0.108218,-1.12519 0.108218,0.48119 0.216437,-2.42224 0.108218,0.78758 0.216436,3.63041 0.108219,-0.56829 0.108218,0.9737 0.541091,-2.32518 0.108218,0.53064 0.108218,-0.39028 0.108218,0.6154 0.108218,-0.50455 0.108219,0.93873 0.216436,-2.28574 0.108218,0.80147 0.108218,-0.10787 0.432873,2.66169 0.108218,-0.28657 0.216437,0.27899 0.324654,-0.73206 0.216436,1.32687 0.108219,-0.35123 0.432872,4.41862 0.216437,1.05287 0.108218,0.18908 0.108218,1.0109 0.108218,-0.30411 0.216437,2.72607 0.108218,-1.01682 0.108218,1.60714 0.108218,-0.18935 0.108218,0.95099 0.216437,-1.90812 0.108218,-0.92539 0.541091,3.82957 0.108218,0.0681 0.108218,0.2239 0.108218,-1.3582 0.108219,0.43335 0.108218,0.95845 0.108218,-0.0338 0.324654,2.17317 0.216437,-0.90465 0.216436,-3.43436 0.108218,0.43473 0.108219,-0.39721 0.54109,-5.25957 0.108219,-0.76981 0.108218,0.11829 0.108218,1.12851 0.216436,-1.67855 0.108219,1.36664 0.216436,-0.79542 0.108218,0.7897 0.324655,-0.83479 0.108218,-0.5508 0.108218,0.45091 0.216436,-1.8641 0.216437,-0.72674 0.108218,0.42545 0.216436,-1.5409 0.108218,0.24911 0.432873,2.38136 0.216437,-0.80068 0.216436,1.9883 0.108218,-0.36007 0.108221,0.44338 0.21643,-3.31311 0.10822,0.5779 0.10822,0.84013 0.21644,-0.23749 0.21643,-0.4629 0.10822,0.054 0.32465,2.351 0.10822,-0.20739 0.10822,0.10884 0.21644,-1.55072 0.21644,-1.88737 0.54109,3.33202 0.10821,-0.16246 0.10822,-1.38306 0.10822,1.39516 0.10822,-0.68174 0.10822,0.96314 0.10821,-0.24677 0.5411,-4.30424 0.10821,0.003 0.32466,2.34335 0.21644,-2.71882 0.10821,1.07693 0.10822,-1.23691 0.32466,2.60889 0.32465,-1.3572 0.43287,3.64484 0.10822,-0.35958 0.10822,0.98832 0.10822,-0.14817 0.21643,-1.55498 0.10822,0.37785 0.21644,-0.52962 0.10822,0.28783 0.32465,1.86321 0.54109,1.24064 0.10822,-0.5973 0.10822,0.4697 0.21644,-0.98601 0.43287,1.37815 0.32465,-0.48111 0.32466,1.8461 0.6493,-3.28711 0.10822,0.20847 0.10822,-0.34954 0.10822,-1.19883 0.32466,3.69707 0.10821,0.38646 0.10822,-0.0892 0.10822,0.71876 0.10822,-0.89723 0.21643,0.25173 0.32466,-1.78101 0.10822,-0.20586 0.10822,0.28573 0.10821,-0.17999 0.21644,1.06666 0.10822,0.10582 0.32465,2.67518 0.21644,-0.79465 0.10822,0.34533 0.10821,-0.29258 0.64931,4.64119 0.10822,0.15743 0.10822,0.36976 0.21644,-1.15911 0.10821,0.40915 0.10822,-0.26458 0.21644,-2.9993 0.21644,0.89264 0.21643,-0.14861 0.10822,0.0472 0.10822,-0.31975 0.21644,-1.29815 0.10821,0.53403 0.10822,-0.91381 0.10822,0.79168 0.10822,-0.52297 0.32465,-4.27782 0.32466,0.25649 0.10822,-0.0658 0.43287,-2.90989 0.10821,0.0296 0.10822,-0.14559 0.10822,0.0484 0.32466,2.03973 0.10822,-0.21696 0.21643,-1.68128 0.10822,0.53214 0.32465,-1.41343 0.10822,0.42407 0.10822,-0.35428 0.10822,1.64916 0.21643,-1.0408 0.10822,-0.44329 0.10822,-1.8012 0.10822,0.35367 0.10822,-0.76283 0.32465,2.38787 0.21644,-1.55652 0.10822,-0.93533 0.10821,0.23045 0.10822,0.84823 0.32466,-3.5247 0.21643,-0.25715 0.21644,2.54895 0.10822,-0.29441 0.10822,-1.55091 0.10822,0.9492 0.10821,-0.49169 0.10822,0.79135 0.10822,-1.69304 0.10822,0.93495 0.21643,-0.48351 0.10822,-1.25529 0.21644,1.43893 0.10822,-0.0831 0.10822,0.16672 0.21643,1.44648 0.10822,-0.19802 0.10822,0.21699 0.10822,1.21158 0.10821,-0.0612 0.32466,0.70903 0.10822,-0.0159 0.10822,0.95817 0.10821,-0.14985 0.10822,-0.37552 0.54109,3.2609 0.21644,-0.11248 0.10822,0.37781 0.10822,1.29955 0.10821,-0.16045 0.10822,0.14856 0.21644,1.71246 0.43287,-3.60631 0.10822,0.1336 0.10822,0.83491 0.10822,-0.2646 0.21643,1.23365 0.10822,-0.52473 0.32465,-3.63643 0.21644,-0.98297 0.21644,0.25928 0.10822,-0.0126 0.21643,-2.36261 0.21644,1.96049 0.21643,-2.84553 0.10822,0.61601 0.10822,-0.89884 0.10822,0.21112 0.21643,2.42741 0.21644,-2.90216 0.10822,-0.1862 0.21643,1.4926 0.32466,1.66647 0.10822,-0.24875 0.21643,-0.80806 0.10822,0.26241 0.32466,-1.11527 0.21643,1.1044 0.10822,0.3189 0.10822,-0.18158 0.21644,-2.08934 0.10821,0.84197 0.43288,-2.5184 0.10822,0.0161 0.21643,0.76179 0.21644,1.50531 0.10822,0.32238 0.10821,0.77763 0.10822,-0.22164 0.10822,0.034 0.43287,3.66794 0.21644,2.43052 0.21644,1.03488 0.10821,-0.80079 0.10822,0.39108 0.10822,-0.086 0.10822,-0.88138 0.21643,1.59059 0.21644,1.98131 0.10822,-0.42547 0.21644,0.77365 0.21643,1.32304 0.32466,2.98433 0.21643,-1.23841 0.10822,0.0626 0.32466,1.98895 0.21643,3.54641 0.10822,0.47845 0.10822,1.2964 0.10822,-0.86042 0.10821,0.032 0.32466,-1.11456 0.10822,0.63971 0.21643,-1.00458 0.21644,1.15394 0.10822,-1.08385 0.10822,0.78097 0.10822,-1.92366 0.10821,0.30137 0.64931,-5.56675 0.10822,0.67083 0.32465,-2.5515 0.10822,0.0255 0.21644,-1.4475 0.21644,-1.00461 0.32465,-1.56342 0.10822,0.35792 0.21643,-2.48473 0.10822,-0.23288 0.10822,0.10099 0.21644,-2.33147 0.10822,-0.55766 0.10821,1.13726 0.21644,-0.73767 0.10822,1.07466 0.32465,-1.57283 0.32466,2.31503 0.10822,0.0128 0.10821,0.48154 0.21644,-2.9283 0.21644,1.82768 0.10821,-0.26041 0.10822,1.47436 0.10822,-0.12955 0.32466,3.56966 0.10821,-0.29741 0.21644,-2.6188 0.21644,-1.44248 0.43287,3.57793 0.10822,0.3316 0.10822,-0.54289 0.21643,1.2887 0.54109,-4.6396 0.10822,0.14069 0.21644,3.04721 0.21643,0.60209 0.10822,-0.20449 0.21644,1.6716 0.10822,0.0603 0.21643,-0.58448 0.10822,1.16961 0.21644,-0.59499 0.75753,6.51234 0.21643,-1.12966 0.21644,1.44798 0.10822,-0.45687 0.10821,-1.47594 0.10822,0.67831 0.10822,-0.0355 0.10822,-0.351 0.21643,1.22117 0.21644,-1.22685 0.21644,1.48278 0.10822,0.14947 0.10821,-0.70969 0.43288,2.15408 0.21643,-0.43189 0.21644,3.21733 0.10822,-0.0228 0.43287,-2.93165 0.21644,3.76861 0.10821,-0.0334 0.32466,-1.79313 0.21644,-3.1345 0.32465,3.88603 0.32465,-2.59878 0.21644,-0.0236 0.32466,2.95819 0.10821,-0.36717 0.32466,1.81987 0.21644,0.77445 0.21643,1.63253 0.10822,0.11271 0.21644,1.89812 0.10821,-1.80156 0.32466,1.10297 0.32465,-2.88393 0.10822,-0.72935 0.21644,1.09398 0.10822,0.44196 0.10821,1.40348 0.5411,-4.86941 0.32465,2.88008 0.10822,0.26349 0.10822,0.62633 0.10821,-0.12828 0.10822,-1.38575 0.10822,0.24823 0.10822,-0.0882 0.21643,-0.97038 0.10822,0.45481 0.10822,1.37319 0.54109,-5.99553 0.10822,-0.0437 0.10822,0.73916 0.21643,-0.88021 0.10822,0.61325 0.32466,-1.28884 0.10822,-0.0146 0.43287,-3.6316 0.10822,0.0835 0.10822,-0.19617 0.21643,-0.88872 0.54109,4.55153 0.10822,0.67177 0.10822,-0.10702 0.10822,-1.04292 0.21643,1.0801 0.10822,-0.66896 0.21644,0.63247 0.10822,-1.01468 0.10821,0.30058 0.32466,3.08145 0.32465,-0.78989 0.21644,0.63152 0.21644,0.73495 0.10821,-0.0856 0.10822,0.58433 0.10822,2.52583 0.10822,-0.24107 0.21643,-1.32128 0.10822,-0.008 0.21644,-0.58365 0.10822,-0.0665 0.10822,-0.31939 0.21643,-1.19194 0.10822,1.47816 0.10822,-0.38392 0.10822,1.36722 0.10821,-0.37648 0.21644,1.78262 0.10822,-0.0976 0.10822,0.74271 0.10822,-0.69651 0.21643,0.31841 0.10822,-2.41764 0.21644,2.24255 0.10821,0.92317 0.10822,-0.0493 0.21644,1.03471 0.10822,1.49617 0.10822,-0.29083 0.21643,-2.71368 0.10822,0.26008 0.10822,-0.69007 0.10822,0.64824 0.21643,-1.79242 0.21644,1.08567 0.10822,-0.48517 0.10822,0.3088 0.10821,-0.13012 0.21644,-1.7649 0.21644,-0.91544 0.32465,-3.37958 0.10822,0.21491 0.21644,-1.29343 0.10821,0.55561 0.21644,-2.05221 0.10822,-0.72899 0.10822,0.28076 0.21643,-1.21128 0.10822,0.24384 0.10822,1.49517 0.64931,-7.93873 0.10822,-0.19046 0.10821,1.30337 0.10822,-1.16881 0.10822,0.76288 0.75753,-6.82199 0.10822,0.3314 0.10821,0.0617 0.10822,1.11246 0.10822,-0.35092 0.21644,-3.83184 0.10822,0.0634 0.10821,-0.11935 0.21644,-1.24165 0.10822,0.33797 0.10822,-0.0636 0.21643,-2.32591 0.10822,-0.24268 0.21644,2.46743 0.10822,0.70509 0.32465,-1.95943 0.21644,0.59727 0.43287,-2.36945 0.10822,1.85493 0.10822,-0.80204 0.10821,0.79082 0.10822,-0.84193 0.21644,0.90278 0.10822,0.33963 0.10821,-0.33601 0.10822,-1.15881 0.10822,0.0406 0.10822,-0.69049 0.10822,1.5595 0.10822,-0.13311 0.32465,1.26862 0.21644,1.59314 0.10821,-0.29838 0.10822,1.31569 0.32466,-1.16102 0.32465,2.32633 0.10822,1.46351 0.10822,-0.17185 0.10822,-0.48745 0.10821,-1.42967 0.32466,2.08262 0.10822,-0.0688 0.10822,1.53484 0.21643,-0.21078 0.21644,0.943 0.32465,-0.836 0.64931,-6.10887 0.10822,0.24919 0.21644,1.52328 0.10821,-0.377 0.21644,1.30956 0.32466,2.72779 0.10821,-0.46922 0.10822,-1.01078 0.21644,1.11876 0.21643,-0.35474 0.21644,2.35628 0.10822,-0.0671 0.21644,2.00891 0.21643,1.85575 0.10822,-0.01 0.21644,-1.26742 0.10821,0.24303 0.10822,-0.213 0.10822,0.4292 0.10822,-0.38974 0.21644,-2.57826 0.10821,1.116 0.21644,-1.83014 0.10822,0.28124 0.10822,-0.0118 0.32465,-1.78533 0.32466,-1.22369 0.21643,0.78139 0.21644,-0.89959 0.21644,0.96489 0.21643,-0.0112 0.10822,0.4812 0.10822,-0.0957 0.10822,-0.42935 0.10821,0.28943 0.32466,-4.3157 0.10822,-0.0165 0.43287,-2.67962 0.10822,-0.2385 0.21643,-1.68084 0.10822,-0.041 0.43287,-3.36127 0.10822,-0.17294 0.10822,0.17454 0.21644,1.74916 0.10822,-0.71514 0.10821,1.95581 0.10822,-0.4944 0.21644,2.16433 0.43287,-3.23822 0.21644,0.31384 0.75752,-6.50712 0.10822,-0.39796 0.10822,0.42729 0.10822,-0.32023 0.21644,1.58037 0.10821,-0.43645 0.10822,1.27336 0.10822,-0.92357 0.10822,0.81304 0.10822,-0.0794 0.10821,0.85908 0.10822,1.95543 0.10822,-0.26901 0.10822,2.34044 0.21644,-1.68238 0.10821,0.28386 0.10822,-0.16714 0.10822,0.17201 0.10822,-0.16889 0.10822,-0.79657 0.10821,0.31012 0.10822,0.84208 0.10822,-1.24606 0.21644,2.9493 0.10822,-0.0513 0.10821,0.85333 0.10822,2.09421 0.10822,-1.62938 0.10822,0.0648 0.32465,-4.08702 0.21644,-0.5307 0.10822,0.0256 0.21643,1.79949 0.21644,-1.10619 0.10822,0.16294 0.21644,2.27744 0.10821,-0.77146 0.43288,1.47003 0.10821,-0.24624 0.10822,0.16618 0.32466,-3.00097 0.21643,0.34931 0.21644,0.61059 0.21644,-0.78646 0.21643,1.65036 0.10822,-0.42836 0.10822,0.17866 0.10822,-0.65456 0.10822,0.24708 0.10821,-0.15082 0.32466,-4.70254 0.21643,-1.20815 0.21644,-0.44253 0.32466,-3.56878 0.10821,0.22917 0.21644,-2.39066 0.10822,0.5701 0.54109,-4.95863 0.10822,-0.0773 0.21643,3.68067 0.32466,-3.0343 0.21643,0.51543 0.10822,1.22679 0.10822,-0.0251 0.21644,1.17371 0.10822,-0.77107 0.21643,1.00001 0.10822,0.26547 0.32465,2.26394 0.32466,-2.02834 0.54109,4.43766 0.10822,0.56106 0.43287,-2.1692 0.10822,-0.87589 0.10822,0.64119 0.32465,-2.36495 0.21644,0.59433 0.32465,-2.9055 0.10822,0.55711 0.10822,-0.76797 0.32465,1.16584 0.10822,-1.1021 0.21644,1.49316 0.10822,-0.41606 0.10821,0.24544 0.10822,-0.36668 0.10822,-0.79315 0.10822,0.6853 0.10822,-1.16516 0.10821,0.51844 0.10822,-0.57522 0.10822,0.3078 0.10822,1.30092 0.21644,-0.31531 0.10821,0.24845 0.10822,0.76988 0.10822,-0.4937 0.21644,-2.13579 0.10822,0.5346 0.21643,-2.27461 0.10822,-0.0412 0.10822,0.1894 0.21643,1.38002 0.10822,1.99001 0.10822,-0.055 0.10822,-0.13959 0.10822,0.88755 0.10821,-0.22992 0.21644,2.01966 0.21644,0.91818 0.10822,0.0581 0.32465,2.72064 0.21644,0.88124 0.10821,-0.28648 0.21644,0.36263 0.21644,-2.15488 0.10822,0.26573 0.10821,0.66573 0.10822,-0.70373 0.10822,0.0462 0.10822,-0.52696 0.10822,0.47109 0.21643,2.26489 0.32466,-2.22831 0.10822,-1.57128 0.10821,0.10523 0.21644,1.85891 0.32465,0.1739 0.21644,-0.67769 0.10822,0.49697 0.10822,-0.73167 0.10822,1.28973 0.10821,-0.5975 0.10822,0.13279 0.21644,2.42552 0.10822,-0.0619 0.21643,0.3899 0.32466,-2.2124 0.10822,0.6989 0.10821,-1.43643 0.21644,0.49904 0.10822,-0.004 0.21644,-2.18609 0.10821,0.29384 0.21644,-1.51148 0.10822,-0.11889 0.21643,-1.4323 0.32466,2.24085 0.10822,-0.18041 0.10821,-0.55846 0.21644,0.44753 0.10822,-0.15659 0.10822,0.12556 0.21643,-0.81375 0.21644,-0.96109 0.10822,-0.12093 0.10822,0.33237 0.10822,1.22645 0.10821,-0.0594 0.21644,-1.50552 0.32465,0.62798 0.32466,-2.54083 0.10822,0.23591 0.21643,-0.80027 0.10822,1.02351 0.43287,-1.47942 0.10822,-0.15663 0.10822,0.0459 0.10822,0.40089 0.21643,1.27991 0.10822,-0.2481 0.10822,-0.81535 0.10822,0.11634 0.10822,1.49264 0.10822,-0.98865 0.10821,0.85166 0.10822,-0.21788 0.21644,1.013 0.21643,1.11551 0.21644,-1.62941 0.21644,0.40046 0.10822,-0.87303 0.10821,0.51833 0.21644,-1.66268 0.32465,-1.3492 0.64931,-5.97933 0.21644,1.17947 0.10822,-0.48668 0.10822,0.22932 0.86574,8.18418 0.10822,0.3258 0.32465,-3.12407 0.10822,0.63608 0.10822,-0.68239 0.10822,1.02139 0.21644,-1.47813 0.21643,-2.79374 0.21644,2.17962 0.10822,-0.14759 0.10821,0.38137 0.21644,-0.4956 0.10822,0.58637 0.21644,-0.46805 0.21643,0.16366 0.43288,-3.1705 0.10821,0.72901 0.21644,-2.00642 0.21644,-0.1289 0.10821,0.14649 0.32466,1.27489 0.10822,-0.96615 0.10821,0.82499 0.10822,-0.0877 0.21644,-0.33875 0.10822,-1.11196 0.10822,0.28779 0.10821,-0.33175 0.21644,-0.85885 0.21644,1.20994 0.21643,0.31835 0.10822,1.02014 0.32466,-2.61152 0.21643,-0.67754 0.21644,-1.81046 0.21643,0.31264 0.10822,0.45516 0.21644,-1.69796 0.10822,0.58829 0.10822,-0.24807 0.21643,0.82102 0.10822,-0.53866 0.10822,1.02161 0.10822,-0.64395 0.10821,1.4933 0.21644,-0.27029 0.21644,-1.21056 0.21643,0.0187 0.10822,0.64321 0.10822,-0.18975 0.21644,1.9535 0.43287,-3.38791 0.32465,-1.25074 0.10822,-0.23547 0.32466,-2.10401 0.21643,-0.97907 0.21644,-2.29292 0.21644,2.28992 0.10821,-0.54929 0.21644,0.34388 0.10822,-0.96141 0.10822,1.58235 0.21643,-1.70002 0.10822,0.24421 0.10822,0.58649 0.10822,-0.0215 0.10822,0.18604 0.32465,2.66287 0.10822,-0.1787 0.10822,-0.81235 0.10821,0.38412 0.10822,-0.51075 0.10822,-1.11293 0.32466,1.50556 0.21643,-2.59576 0.21644,1.77595 0.10822,-0.22442 0.21643,0.59802 0.21644,-0.92752 0.21644,1.19534 0.32465,-1.33971 0.10822,0.12435 0.10822,-0.12048 0.10822,-0.55394 0.21643,1.80967 0.21644,-1.78724 0.10822,-0.0182 0.10821,0.28365 0.10822,1.22116 0.21644,-0.57799 0.10822,0.28673 0.10821,0.60711 0.21644,1.76097 0.21644,0.74435 0.10822,-1.31125 0.10821,0.21387 0.10822,-0.0429 0.21644,-2.11994 0.32465,-1.81732 0.32466,-1.00731 0.10822,0.12203 0.10821,-1.46072 0.10822,0.35781 0.32466,-2.25854 0.32465,0.76635 0.10822,-0.32781 0.32465,-2.50161 0.10822,-0.0613 0.10822,-0.26037 0.10822,0.5583 0.10822,-0.0951 0.10821,-0.88722 0.10822,0.0571 0.32466,-2.20322 0.21643,1.71443 0.10822,-0.01 0.10822,0.73626 0.21644,-1.53464 0.10822,-0.40258 0.10821,-1.50746 0.10822,0.21495 0.10822,-0.22257 0.21644,-2.63712 0.10821,0.86791 0.32466,-1.10249 0.10822,0.28753 0.10821,-0.26365 0.32466,1.68508 0.10822,-0.35038 0.21643,0.40461 0.21644,-1.82943 0.10822,-0.41152 0.10822,0.14517 0.10821,-0.55228 0.10822,-1.62839 0.10822,1.22206 0.10822,-0.16641 0.21644,-1.86998 0.10821,-0.28 0.21644,-1.78835 0.21644,-1.5704 0.10822,-0.55602 0.21643,0.32854 0.21644,2.33279 0.10822,0.3012 0.10821,2.00591 0.10822,-0.13637 0.10822,0.25163 0.10822,-0.17223 0.10822,-0.54333 0.10821,0.66272 0.10822,-0.0558 0.10822,0.79562 0.10822,-0.0685 0.10822,-0.38987 0.10822,-1.28365 0.21643,1.95132 0.10822,-0.57065 0.21644,0.60665 0.10821,0.022 0.10822,-0.50507 0.10822,0.96801 0.10822,-0.17384 0.10822,1.25504 0.10822,-0.0196 0.21643,0.31242 0.10822,-0.53566 0.10822,0.0447 0.10822,-0.32697 0.21643,-2.02142 0.10822,-0.30574 0.10822,1.45633 0.43287,-5.1182 1.08218,-6.61824 0.10822,0.56499 0.21644,-1.50986 0.21643,-0.8699 0.10822,1.16763 0.10822,-0.0505 0.10822,0.32876 0.10822,-0.17199 0.21643,-3.07748 0.10822,-1.03953 0.10822,0.24008 0.21644,-1.47337 0.10821,0.3877 0.10822,1.28359 0.10822,-1.47448 0.10822,0.33154 0.32465,-2.23308 0.10822,0.75804 0.10822,-0.7355 0.21644,1.94394 0.54109,-1.54502 0.10822,0.48954 0.10821,-0.17259 0.21644,-0.98695 0.43287,2.24179 0.32466,-2.99132 0.32465,-3.59238 0.10822,0.1602 0.21644,0.28733 0.10821,-0.32979 0.21644,0.65163 0.21644,-1.2756 0.21643,1.99728 0.10822,-0.90302 0.32466,1.38193 0.43287,-3.98767 0.10822,0.0274 0.10822,-1.65246 0.21643,1.77963 0.10822,-0.50389 0.10822,0.935 0.10822,-0.1139 0.21643,-0.75344 0.10822,0.12008 0.10822,-0.11025 0.10822,0.0723 0.43287,-2.20942 0.10822,-0.0555 0.21643,0.29842 0.10822,-0.43511 0.10822,0.30522 0.21644,-1.02598 0.21643,1.19451 0.10822,-1.5643 0.10822,0.009 0.10822,-0.26744 0.21643,1.26411 0.21644,-1.60293 0.43287,3.16128 0.21644,-0.65886 0.10822,0.59026 0.10822,1.42527 0.21643,-1.25107 0.21644,2.75725 0.21644,3.33889 0.10821,1.69464 0.10822,-0.93347 0.10822,0.3053 0.21644,2.01154 0.21643,0.18933 0.21644,1.03457 0.10822,0.27564 0.10822,0.89089 0.10821,-0.26337 0.10822,-0.77499 0.10822,0.95838 0.10822,-0.48487 0.10822,0.48954 0.10821,-0.21605 0.21644,0.88104 0.32466,-3.34001 0.10821,0.41597 0.10822,-0.0808 0.10822,-0.23049 0.21644,0.16291 0.10821,0.37857 0.21644,-3.60516 0.10822,-0.41713 0.10822,0.15322 0.10822,-0.96091 0.32465,1.41402 0.10822,0.3115 0.10822,1.03635 0.21643,-1.42523 0.10822,-0.46185 0.32466,1.5836 0.6493,-4.41045 0.10822,-0.1946 0.32466,-3.03249 0.10822,0.46918 0.21643,-0.98587 0.32466,2.74313 0.32465,-1.85306 0.10822,-0.21437 0.32465,3.57387 0.10822,-0.52164 0.10822,-0.34548 0.10822,0.88579 0.10822,-0.29167 0.21643,2.81741 0.10822,-0.33594 0.10822,0.66011 0.10822,-0.0862 0.10822,0.68529 0.10821,-0.43768 0.10822,0.70684 0.10822,-0.2878 0.10822,-0.88678 0.43287,4.2847 0.10822,-0.0498 0.21644,-1.44832 0.43287,-4.61124 0.10822,-0.19549 0.21643,-1.45347 0.10822,-0.0672 0.10822,0.0733 0.64931,-4.15488 0.21643,0.61288 0.10822,-0.23241 0.10822,1.19922 0.32466,-0.98288 0.21643,-0.58503 0.21644,-1.31055 0.43287,2.15912 0.21644,-0.98536 0.32465,1.64008 0.21644,-1.78793 0.21643,0.6161 0.10822,-0.0296 0.21644,-0.92022 0.10822,-1.28575 0.10822,0.1503 0.10821,-0.83035 0.10822,0.80107 0.10822,-1.12312 0.21644,1.03415 0.21643,-0.9665 0.10822,0.72765 0.10822,-1.41405 0.21644,0.20123 0.10822,-0.72638 0.21643,1.10073 0.32466,1.23828 0.10821,-1.55923 0.10822,0.008 0.21644,-0.82682 0.10822,0.15824 0.21643,0.6088 0.21644,-0.99305 0.10822,0.8005 0.10821,-0.22524 0.10822,0.0895 0.10822,0.49244 0.21644,-0.20645 0.10822,0.0901 0.10821,0.53933 0.21644,2.18398 0.21644,-1.58012 0.10821,-0.15722 0.43288,-2.99785 0.10822,0.94184 0.10821,-0.82025 0.10822,0.0475 0.10822,-0.2644 0.10822,-1.12599 0.43287,3.66144 0.21644,-0.93484 0.21643,0.75547 0.10822,-1.15647 0.21644,2.41993 0.21643,0.2595 0.10822,-0.32257 0.21644,1.57029 0.10822,0.34806 0.21644,-1.5656 0.10821,-0.89569 0.10822,0.90233 0.10822,-0.21989 0.10822,0.2097 0.32465,2.38697 0.32466,3.39245 0.21643,-0.96417 0.21644,2.47167 0.10822,-0.77046 0.10821,0.54739 0.10822,-0.4988 0.10822,-1.08979 0.10822,0.33066 0.10822,1.30352 0.21643,-1.55219 0.43288,4.13444 0.10821,-0.50339 0.10822,-0.19012 0.10822,0.0573 0.10822,-0.92533 0.21644,0.50005 0.32465,1.5229 0.10822,-0.6021 0.10822,0.12353 0.10821,-0.9234 0.10822,0.86151 0.10822,-0.0289 0.43287,0.81085 0.21644,-1.14391 0.10822,0.1554 0.10822,-1.0122 0.21643,-2.69594 0.10822,-0.65086 0.10822,0.20881 0.10822,-0.94912 0.10822,0.0282 0.10822,0.51262 0.10821,-0.33156 0.10822,0.46709 0.10822,-0.85961 0.10822,0.56052 0.10821,-0.41624 0.21644,1.36185 0.32466,-2.52606 0.21643,0.71284 0.32466,-2.86689 0.10821,-1.66756 0.21644,0.69041 0.32466,2.01518 0.10821,0.3585 0.10822,-0.85001 0.10822,0.30209 0.10822,0.95032 0.10822,-0.81853 0.10821,0.21586 0.10822,1.10282 0.10822,-0.0239 0.21644,-0.85771 0.10822,0.83042 0.10821,-0.33648 0.21644,-1.2191 0.21644,0.71563 0.32465,2.08898 0.32466,-1.82889 0.10821,0.0679 0.21644,-1.94512 0.21644,-1.5293 0.10821,0.52489 0.10822,-0.20015 0.10822,0.45051 0.10822,-0.34493 0.10822,0.22984 0.10822,-0.12182 0.21643,-0.99801 0.10822,0.51086 0.10822,-0.23747 0.10822,0.0773 0.21643,-2.45038 0.10822,0.0266 0.32466,-1.60098 0.10821,-0.84522 0.32466,1.17499 0.10822,-0.31425 0.32465,-2.18622 0.10822,0.19962 0.21644,-1.29219 0.21643,-1.51407 0.21644,2.15391 0.10822,-0.64335 0.21643,1.37028 0.10822,0.26058 0.21644,-0.99296 0.10822,0.068 0.10821,0.36925 0.21644,2.25772 0.10822,-0.0503 0.10822,-0.15812 0.10821,-1.05679 0.10822,0.44375 0.32466,4.43732 0.21643,1.29077 0.10822,0.15269 0.10822,0.43984 0.21644,-1.83582 0.10821,0.15331 0.10822,-0.0823 0.10822,-0.86288 0.21644,-3.06744 0.10822,0.009 0.10821,-0.41898 0.21644,0.47843 0.10822,-0.34627 0.10822,-1.34909 0.32465,2.99331 0.10822,-0.0851 0.10822,-0.72396 0.32465,-3.97769 0.21644,1.04448 0.10822,0.0165 0.21643,0.56649 0.43288,-0.72765 0.10821,0.19895 0.10822,0.48381 0.21644,2.28995 0.10822,-0.50649 0.10821,0.31043 0.10822,0.9016 0.10822,-0.28341 0.10822,0.1534 0.10822,-0.24119 0.21643,-1.44568 0.21644,-0.90733 0.10822,0.76752 0.21643,-0.16727 0.21644,0.98817 0.10822,-0.98454 0.10822,0.22053 0.21643,1.21389 0.21644,-1.03738 0.10822,-0.22938 0.21643,-2.24061 0.21644,-2.51611 0.10822,1.1818 0.54109,-3.67355 0.10822,-0.48222 0.21643,1.10592 0.10822,0.49601 0.32466,2.61932 0.10822,0.12816 0.10821,-0.27505 0.32466,0.90641 0.10822,-0.553 0.32465,1.29218 0.10822,-1.13816 0.10822,0.85419 0.10822,-0.1337 0.10821,1.30716 0.21644,-1.65021 0.10822,-0.78306 0.10822,0.12469 0.10821,0.79165 0.21644,-2.62935 0.10822,0.0179 0.21644,0.64377 0.21643,-2.20146 0.10822,0.0941 0.10822,0.377 0.43287,-3.05367 0.10822,-1.1023 0.10822,0.12959 0.21643,1.12409 0.21644,0.78605 0.10822,0.0313 0.10822,-0.23877 0.10821,0.17779 0.21644,0.87576 0.21644,2.30189 0.10822,-0.37895 0.21643,0.93559 0.10822,-0.005 0.21644,-1.3223 0.43287,-3.42938 0.10822,-0.0212 0.10822,0.18812 0.10821,-0.1278 0.21644,-0.76526 0.10822,0.0615 0.21643,-0.074 0.10822,-0.35128 0.21644,0.84708 0.10822,-0.33971 0.43287,2.10571 0.10822,-0.10458 0.10822,0.0823 0.21643,-1.90147 0.10822,0.61793 0.21644,-1.09095 0.10822,-0.13008 0.10821,-0.36672 0.10822,-0.77702 0.21644,1.2705 0.32465,-2.0543 0.21644,1.266 0.10822,-1.20576 0.10822,0.49254 0.10821,-0.69792 0.21644,1.46414 0.10822,-0.98991 0.10822,1.25557 0.10821,-0.14175 0.43288,3.71138 0.10822,-0.19248 0.43287,-4.16374 0.10822,-0.52595 0.10821,0.35979 0.10822,-1.35334 0.10822,0.42549 0.10822,-1.04558 0.10822,1.07212 0.10822,-0.26392 0.21643,-1.43329 0.10822,-0.0704 0.10822,1.32551 0.10822,-0.36732 0.54109,-3.20779 0.10822,0.69973 0.10821,-0.0557 0.10822,0.29155 0.10822,0.62475 0.10822,-0.57911 0.32465,3.36429 0.21644,0.62995 0.10822,0.50764 0.10822,-0.1593 0.10821,0.58947 0.21644,1.96526 0.32465,-1.25572 0.32466,1.3233 0.54109,-3.59473 0.10822,0.52272 0.21643,-0.62829 0.10822,0.33202 0.21644,1.45562 0.21644,-1.53276 0.10821,-0.53064 0.21644,-2.54244 0.21644,0.30667 0.10821,-1.03231 0.21644,0.78309 0.10822,1.32869 0.10822,-0.13775 0.10822,0.15024 0.32465,1.77749 0.10822,-0.43803 0.10822,-1.582 0.21643,1.95309 0.10822,-0.61518 0.21644,-1.44631 0.43287,4.60826 0.10822,0.24599 0.10822,-1.34859 0.21643,0.84683 0.21644,-0.60511 0.10822,0.23464 0.10822,0.58975 0.10821,-0.47783 0.21644,1.88538 0.10822,-0.0705 0.10822,-0.30471 0.10821,-1.05836 0.10822,0.0851 0.10822,0.39858 0.21644,-1.14517 0.10822,-0.19836 0.21643,-1.33365 0.10822,0.83722 0.43287,-3.80808 0.21644,-1.12205 0.64931,4.19311 0.21643,0.44116 0.10822,0.0523 0.21644,-1.17108 0.10822,0.2461 0.10822,-0.35052 0.21643,-1.52347 0.10822,-0.84198 0.10822,0.37055 0.32465,-0.82911 0.10822,0.7101 0.10822,-0.0732 0.10822,-0.6971 0.10822,0.12914 0.54109,3.1401 0.10821,-0.0331 0.32466,-2.92471 0.21644,0.74504 0.10821,-0.11506 0.64931,3.66236 0.21644,-0.95706 0.43287,2.99051 0.10822,-0.59062 0.10822,0.0871 0.21643,-1.01378 0.21644,1.44859 0.10822,-0.31031 0.10822,-0.65449 0.10822,-1.40249 0.21643,1.5528 0.10822,-0.42559 0.21644,-2.76992 0.32465,0.4404 0.10822,0.59133 0.21644,-2.07425 0.21643,2.28341 0.21644,-1.95818 0.32465,-2.75443 0.32466,3.27114 0.10822,-0.58029 0.43287,-1.79996 0.10822,0.24289 0.10821,0.71674 0.10822,-0.30734 0.10822,-1.50201 0.21644,0.76095 0.10822,-0.0748 0.10821,0.0371 0.21644,0.8396 0.10822,0.0675 0.10822,0.66788 0.10821,-0.29874 0.21644,-2.53806 0.21644,1.84321 0.10822,-0.19592 0.10821,0.0986 0.10822,0.41041 0.10822,-0.5671 0.10822,1.15301 0.10822,-1.0901 0.10821,0.25461 0.10822,0.9612 0.21644,-0.84463 0.10822,-0.52965 0.21643,-2.2026 0.21644,-0.45009 0.10822,0.10715 0.10822,-0.19744 0.21643,-0.68787 0.10822,0.52295 0.10822,-0.47151 0.10822,0.12345 0.32465,-2.8326 0.10822,-0.0447 0.10822,0.77153 0.10822,-0.20696 0.21643,-0.77871 0.10822,-0.2536 0.43287,-4.3853 0.32466,-0.77678 0.32465,-1.29372 0.10822,-0.76062 0.10822,0.95368 0.21644,-1.12749 0.10821,0.53693 0.32466,-0.73169 0.21643,-1.51915 0.21644,0.86801 0.10822,0.24294 0.32465,-3.047 0.10822,0.15511 0.21644,1.03175 0.10822,-0.29455 0.10821,0.23305 0.10822,-0.17195 0.10822,-0.79042 0.10822,0.71601 0.21644,-0.91439 0.32465,1.32743 0.32465,-2.32569 0.10822,0.0475 0.10822,1.14226 0.10822,-0.20101 0.21644,-1.48578 0.21643,-1.80475 0.21644,-1.66758 0.10822,-0.0176 0.10821,0.49981 0.21644,-1.77446 0.10822,-0.70925 0.10822,0.1056 0.21643,0.55502 0.54109,-8.54639 0.21644,0.95106 0.21644,-0.6855 0.21644,0.19079 0.21643,-3.28365 0.86575,-5.07718 0.43287,-6.61518 0.32465,-5.39145 0.21644,-2.30459 0.10822,0.17814 0.21643,-1.23644 0.32466,-2.213725 0.21643,0.861465 0.10822,-0.39977 0.32466,1.8806 0.10822,0.008 0.21643,-1.52899 0.32466,-2.0549 0.43287,-2.326223 0.43287,1.587859 0.10822,-0.126768 0.10822,0.554663 0.21643,-1.188483 0.10822,-0.07751 0.32466,-2.007399 0.10822,-0.196771 0.21643,1.750652 0.10822,0.0087 0.43287,-3.052455 0.10822,0.01759 0.10822,0.748095 0.32465,-3.795052 0.10822,0.07792 0.32466,1.636312 0.10821,0.117751 0.10822,-1.449405 0.10822,0.824514 0.10822,-0.105899 0.21644,0.801306 0.43287,-2.966297 0.10822,-0.1948 0.75752,-5.571585 0.10822,-0.412342 0.21644,0.476409 0.32465,-2.433698 0.10822,0.229634 0.10822,-0.107219 0.21644,-0.988412 0.10822,-0.0614 0.10821,-0.207349 0.10822,0.391466 0.10822,-0.366098 0.10822,0.298385 0.21643,-0.76242 0.21644,0.444964 0.10822,-0.279744 1.51505,-12.114251 0.10822,-0.02413 0.21644,-0.875624 0.21643,-0.565168 0.43288,-1.509512 0.21643,-2.554353 0.21644,-1.829195 0.10822,-0.130511 0.21643,-2.018665 0.21644,-0.02956 0.54109,-3.467827 0.21644,-1.400914 0.10821,0.183533 0.10822,-0.05098 0.21644,-1.118054 0.10822,0.06172 0.10822,-0.466282 0.10822,1.054871 0.10821,-0.399932 0.10822,0.613727 0.32465,-0.662451 0.10822,-0.583482 0.21644,0.33526 0.21644,0.465661 0.10821,0.436418 0.10822,-0.32928 0.10822,0.139661 0.21644,-0.451847 0.10822,-0.26341 0.10821,0.155668 0.10822,-0.460945 0.21644,1.014575 0.21643,-0.50545 0.21644,-0.935092 0.10822,0.539968 0.10822,-0.242023 0.10821,0.807085 0.21644,-1.022955 0.10822,0.104847 0.21644,-0.532977 0.10821,0.703916 0.10822,-0.467382 0.32466,0.89603 0.21643,0.03836 0.10822,-0.408689 0.10822,0.268842 0.10822,-0.179225 0.10822,-0.554553 0.10821,0.777365 0.10822,-0.04223 0.10822,-0.706888 0.21644,0.35726 0.10821,-0.567852 0.21644,0.466315 0.10822,-0.36626 0.21644,0.233569 0.21643,0.01741 0.10822,-0.365603 0.10822,0.250639 0.21643,-0.580547 0.10822,0.909257 0.10822,-0.349459 0.10822,-0.886158 0.21644,0.94736 0.21643,0.236995 0.10822,-0.366365 0.21644,1.081155 0.10821,0.140002 0.32466,-1.207742 0.10822,0.235044 0.32465,-0.238186 0.10822,-0.591776 0.21644,1.202937 0.21643,-0.687092 0.10822,0.282283 0.10822,-0.858687 0.10822,0.303786 0.21643,-0.543792 0.10822,0.657564 0.21644,-0.875565 0.10822,0.367196 0.10821,-0.480575 0.10822,0.769791 0.10822,-0.06518 0.21644,-0.908588 0.10822,0.391731 0.10821,-0.02717 0.32466,0.723624 0.21643,0.905391 0.21644,-0.80222 0.10822,0.04023 0.10822,-0.46411 0.10822,0.124112 0.21643,-0.532556 0.10822,-0.387073 0.43287,0.882976 0.21644,-0.175404 0.10822,0.379259 0.10822,-0.143365 0.10821,0.1888 0.21644,-0.641271 0.10822,0.0061 0.32465,1.684778 0.10822,-0.189015 0.10822,-0.428589 0.21644,0.15741 0.21643,0.824423 0.10822,-1.11209 0.10822,0.127566 0.10822,-0.05414 0.10821,0.185792 0.10822,0.495317 0.10822,-0.493435 0.10822,0.03938 0.10822,-0.36869 0.21643,0.582647 0.10822,-1.259542 0.10822,0.133609 0.10822,-0.595364 0.21643,0.745763 0.32466,0.714486 0.32465,-0.968966 0.10822,-0.165929 0.21644,0.21856 0.10822,0.04685 0.21643,0.432049 0.10822,0.0555 0.10822,-0.114832 0.10822,-0.414002 0.32465,1.711481 0.21644,-1.155557 0.21643,1.903833 0.21644,-0.603602 0.21644,0.323045 0.10822,0.22157 0.10822,0.636661 0.32465,-1.617867 0.10822,0.03365 0.10821,-0.884576 0.32466,0.812667 0.21644,-1.08352 0.10821,0.38976 0.43288,-1.468756 0.10821,0.530981 0.10822,-0.128761 0.10822,0.390507 0.10822,-0.143093 0.10822,-0.597022 0.10822,0.552831 0.10821,-0.138037 0.10822,-0.428732 0.10822,0.608414 0.10822,-0.155431 0.10822,0.924682 0.10821,-0.469911 0.21644,1.225842 0.21644,-0.888784 0.21643,0.05466 0.10822,0.453681 0.10822,-1.225587 0.21644,1.092316 0.21643,-0.257156 0.10822,-0.181418 0.10822,-0.597693 0.10822,0.02941 0.10822,-0.382272 0.10821,0.897703 0.21644,-0.232671 0.10822,0.242661 0.21643,-0.99821 0.21644,0.635543 0.10822,-0.373379 0.21644,0.900613 0.10822,0.212959 0.10821,-0.463739 0.10822,0.312425 0.10822,-0.788374 0.32465,0.768055 0.10822,0.157041 0.10822,-0.101562 0.21644,-0.542198 0.10821,0.586993 0.10822,-0.256281 0.21644,0.193016 0.21643,0.0333 0.21644,0.416252 0.10822,0.106222 0.10822,0.926392 0.10822,-0.23 0.21643,0.616086 0.10822,-0.0541 0.10822,-0.251578 0.10822,0.05938 0.32465,-2.005456 0.10822,0.590208 0.10822,-0.209968 0.10822,0.494177 0.21643,-0.686219 v 0" /></g></g><g
       id="g974"><g
         clip-path="url(#clipPath980)"
         id="g976"><path
           id="path982"
           style="fill:none;stroke:#808080;stroke-width:0.75;stroke-linecap:butt;stroke-linejoin:round;stroke-miterlimit:10;stroke-dasharray:2.775, 1.2;stroke-dashoffset:0;stroke-opacity:1"
           d="M 57.6,60.999233 H 414.72" /></g></g><g
       id="g984"><g
         clip-path="url(#clipPath990)"
         id="g986"><path
           id="path992"
           style="fill:#ff7f0e;fill-opacity:1;fill-rule:nonzero;stroke:#ff7f0e;stroke-width:1;stroke-linecap:butt;stroke-linejoin:round;stroke-miterlimit:10;stroke-dasharray:none;stroke-opacity:1"
           d="m 367.64509,58.042232 c 0.66301,0 1.29895,0.263415 1.76777,0.732233 0.46881,0.468817 0.73223,1.104759 0.73223,1.767767 0,0.663007 -0.26342,1.298949 -0.73223,1.767767 -0.46882,0.468817 -1.10476,0.732233 -1.76777,0.732233 -0.66301,0 -1.29895,-0.263416 -1.76777,-0.732233 -0.46881,-0.468818 -0.73223,-1.10476 -0.73223,-1.767767 0,-0.663008 0.26342,-1.29895 0.73223,-1.767767 0.46882,-0.468818 1.10476,-0.732233 1.76777,-0.732233 z" /></g></g><g
       id="g994"><g
         clip-path="url(#clipPath1000)"
         id="g996"><path
           id="path1002"
           style="fill:none;stroke:#ff7f0e;stroke-width:1;stroke-linecap:butt;stroke-linejoin:round;stroke-miterlimit:10;stroke-dasharray:1, 1.65;stroke-dashoffset:0;stroke-opacity:1"
           d="M 367.64509,38.016 V 304.128" /></g></g><g
       id="g1004"><path
         id="path1006"
         style="fill:none;stroke:#000000;stroke-width:0.8;stroke-linecap:square;stroke-linejoin:miter;stroke-miterlimit:10;stroke-dasharray:none;stroke-opacity:1"
         d="M 57.6,38.016 V 304.128" /><path
         id="path1008"
         style="fill:none;stroke:#000000;stroke-width:0.8;stroke-linecap:square;stroke-linejoin:miter;stroke-miterlimit:10;stroke-dasharray:none;stroke-opacity:1"
         d="M 414.72,38.016 V 304.128" /><path
         id="path1010"
         style="fill:none;stroke:#000000;stroke-width:0.8;stroke-linecap:square;stroke-linejoin:miter;stroke-miterlimit:10;stroke-dasharray:none;stroke-opacity:1"
         d="M 57.6,38.016 H 414.72" /><path
         id="path1012"
         style="fill:none;stroke:#000000;stroke-width:0.8;stroke-linecap:square;stroke-linejoin:miter;stroke-miterlimit:10;stroke-dasharray:none;stroke-opacity:1"
         d="M 57.6,304.128 H 414.72" /></g></g></svg>
